<svg width="83" height="80" viewBox="0 0 83 80" fill="none" xmlns="http://www.w3.org/2000/svg">
<circle cx="42.5" cy="40.5" r="31.5" fill="#4ADE80"/>
<circle cx="79.5" cy="12.5" r="3.5" fill="#4ADE80"/>
<circle cx="8.5" cy="4.5" r="4.5" fill="#4ADE80"/>
<circle cx="4" cy="59" r="2" fill="#4ADE80"/>
<circle cx="73" cy="71" r="1" fill="#4ADE80"/>
<path fill-rule="evenodd" clip-rule="evenodd" d="M47.7359 34.8985C47.7359 38.0803 45.1848 40.6315 42.0008 40.6315C38.8178 40.6315 36.2656 38.0803 36.2656 34.8985C36.2656 31.7167 38.8178 29.1665 42.0008 29.1665C45.1848 29.1665 47.7359 31.7167 47.7359 34.8985ZM41.9997 50.833C37.3006 50.833 33.333 50.0693 33.333 47.1226C33.333 44.1748 37.3255 43.4381 41.9997 43.4381C46.6999 43.4381 50.6663 44.2019 50.6663 47.1486C50.6663 50.0964 46.6738 50.833 41.9997 50.833Z" fill="white"/>
<circle cx="47" cy="2" r="1" fill="#4ADE80"/>
<circle cx="27.5" cy="78.5" r="1.5" fill="#4ADE80"/>
<circle cx="54.5" cy="76.5" r="0.5" fill="#4ADE80"/>
<circle cx="76" cy="49" r="1" fill="#4ADE80"/>
<circle cx="0.5" cy="33.5" r="0.5" fill="#4ADE80"/>
</svg>
