<svg width="29" height="28" viewBox="0 0 29 28" fill="none" xmlns="http://www.w3.org/2000/svg">
<g clip-path="url(#clip0_1893_117499)">
<path d="M8.18833 0.771644C10.9183 -1.34002 13.8817 1.23831 14.5467 5.25164C15.0483 5.25164 15.5383 5.39164 15.9817 5.64831C16.5883 4.94831 17.125 3.99164 16.915 2.91831C16.425 0.409977 19.2367 -1.62002 21.9083 1.84498C24.02 4.57498 21.4417 7.53831 17.4167 8.20331C17.4167 8.70498 17.2883 9.20664 17.02 9.64998C17.72 10.245 18.6767 10.7816 19.75 10.5716C22.235 10.0816 24.2767 12.8816 20.8117 15.565C18.0817 17.6766 15.1183 15.0983 14.4533 11.085C13.9517 11.085 13.4617 10.9333 13.03 10.6766C12.4233 11.3766 11.875 12.345 12.085 13.4183C12.575 15.915 9.76333 17.9566 7.09167 14.4916C4.96833 11.75 7.55833 8.78664 11.5833 8.13331C11.5833 7.63164 11.735 7.14164 11.9917 6.69831C11.2917 6.10331 10.335 5.55498 9.25 5.76498C6.765 6.25498 4.72333 3.45498 8.18833 0.771644V0.771644ZM6.33333 18.6683H8.66667C9.2855 18.6683 9.879 18.9141 10.3166 19.3517C10.7542 19.7893 11 20.3828 11 21.0016V28.0016H8.66667V25.6683H6.33333V28.0016H4V21.0016C4 20.3828 4.24583 19.7893 4.68342 19.3517C5.121 18.9141 5.71449 18.6683 6.33333 18.6683V18.6683ZM6.33333 21.0016V23.335H8.66667V21.0016H6.33333ZM15.585 18.6683H18L14.5817 28.0016H12.1667L15.585 18.6683ZM21.5 18.6683H25V21.0016H21.5V25.6683H25V28.0016H21.5C20.8812 28.0016 20.2877 27.7558 19.8501 27.3182C19.4125 26.8806 19.1667 26.2871 19.1667 25.6683V21.0016C19.1667 20.3828 19.4125 19.7893 19.8501 19.3517C20.2877 18.9141 20.8812 18.6683 21.5 18.6683V18.6683Z" fill="#4AAF57"/>
</g>
<defs>
<clipPath id="clip0_1893_117499">
<rect width="28" height="28" fill="white" transform="translate(0.5)"/>
</clipPath>
</defs>
</svg>
