<svg width="32" height="32" viewBox="0 0 32 32" fill="none" xmlns="http://www.w3.org/2000/svg">
<rect width="32" height="32" rx="12" fill="url(#paint0_linear_3336_786)"/>
<path fill-rule="evenodd" clip-rule="evenodd" d="M15.7615 8.07165C13.2753 8.37806 11.181 10.0042 10.4267 12.2134C10.1403 13.0521 10.1333 13.1555 10.1333 16.5364V18.9332C10.1333 19.5225 10.6113 20.0002 11.2009 20.0002H13.3313C13.9209 20.0002 14.3989 19.5225 14.3989 18.9332V16.7858C14.3989 13.798 14.4156 13.5394 14.6355 13.117C15.0862 12.2515 15.8218 11.9614 17.5684 11.9605L17.5962 11.9605C18.186 11.9601 18.6644 12.438 18.6644 13.0275V13.2092C18.6644 14.2958 18.6291 14.5216 18.3934 14.9439C18.0351 15.5856 17.1363 16.0351 16.2115 16.0351C15.8635 16.0351 15.583 16.3201 15.5887 16.6678L15.633 19.3415C15.6386 19.6816 15.9063 19.9594 16.2461 19.9778C17.1148 20.0248 18.4768 19.7318 19.4346 19.2916C20.8265 18.6522 22.031 17.3916 22.6033 15.9757C22.8553 15.3522 22.8706 15.1346 22.9066 11.657L22.9332 9.078C22.9394 8.48242 22.4565 7.99713 21.8605 8.00001L19.5307 8.01129C17.6531 8.02032 15.957 8.04753 15.7615 8.07165ZM10.1333 23.9997C10.1333 24.589 10.6113 25.0667 11.2009 25.0667H13.3313C13.9209 25.0667 14.3989 24.589 14.3989 23.9997V22.1686C14.3989 21.5793 13.9209 21.1016 13.3313 21.1016H11.2009C10.6113 21.1016 10.1333 21.5793 10.1333 22.1686V23.9997Z" fill="white"/>
<defs>
<linearGradient id="paint0_linear_3336_786" x1="32" y1="32" x2="-6.07713" y2="20.9599" gradientUnits="userSpaceOnUse">
<stop stop-color="#4D5DFA"/>
<stop offset="1" stop-color="#7784FF"/>
</linearGradient>
</defs>
</svg>
