<svg width="150" height="200" viewBox="0 0 150 200" fill="none" xmlns="http://www.w3.org/2000/svg">
<path fill-rule="evenodd" clip-rule="evenodd" d="M65.955 0.839604C36.8209 4.43038 12.2771 23.4865 3.43777 49.3758C0.0817013 59.2046 0 60.4166 0 100.036V128.123C0 135.029 5.60131 140.627 12.5109 140.627H37.4761C44.3857 140.627 49.987 135.029 49.987 128.123V102.959C49.987 67.9453 50.1827 64.9147 52.7598 59.9648C58.0417 49.8223 66.6618 46.4226 87.1301 46.4123L87.4556 46.4121C94.3681 46.4079 99.974 52.0073 99.974 58.9159V61.0452C99.974 73.7794 99.5602 76.4253 96.7984 81.374C92.5995 88.8937 82.066 94.1611 71.2285 94.1611C67.1504 94.1611 63.8635 97.5009 63.931 101.576L64.4494 132.909C64.5153 136.893 67.6524 140.149 71.634 140.365C81.8147 140.916 97.7759 137.482 108.999 132.324C125.31 124.83 139.426 110.058 146.133 93.4654C149.086 86.1587 149.265 83.6082 149.687 42.855L149.999 12.6328C150.071 5.65338 144.412 -0.0336567 137.429 0.000149947L110.125 0.132319C88.1228 0.238158 68.246 0.556937 65.955 0.839604ZM0 187.496C0 194.402 5.60131 200 12.5109 200H37.4761C44.3857 200 49.987 194.402 49.987 187.496V166.038C49.987 159.132 44.3857 153.534 37.4761 153.534H12.5109C5.60131 153.534 0 159.132 0 166.038V187.496Z" fill="white"/>
</svg>
