<svg width="28" height="28" viewBox="0 0 28 28" fill="none" xmlns="http://www.w3.org/2000/svg">
<path d="M23.334 14.3203C23.334 14.7633 23.0048 15.1294 22.5777 15.1873L22.459 15.1953L4.95898 15.1953C4.47574 15.1953 4.08398 14.8036 4.08398 14.3203C4.08398 13.8773 4.41316 13.5112 4.84025 13.4533L4.95898 13.4453L22.459 13.4453C22.9422 13.4453 23.334 13.8371 23.334 14.3203Z" fill="#212121"/>
<path d="M12.635 20.7301C12.9774 21.0711 12.9786 21.6251 12.6376 21.9675C12.3277 22.2788 11.8416 22.3081 11.4985 22.0547L11.4002 21.9702L4.34186 14.9422C4.02962 14.6313 4.00121 14.1435 4.25666 13.8004L4.34181 13.7021L11.4001 6.67297C11.7426 6.33197 12.2966 6.33312 12.6376 6.67553C12.9476 6.98682 12.9748 7.47298 12.7199 7.815L12.635 7.91297L6.19964 14.3225L12.635 20.7301Z" fill="#212121"/>
</svg>
