<svg width="20" height="20" viewBox="0 0 20 20" fill="none" xmlns="http://www.w3.org/2000/svg">
<path d="M9.0575 13.8596C9.00917 13.8126 8.8025 13.6348 8.6325 13.4692C7.56333 12.4982 5.81333 9.96534 5.27917 8.63963C5.19333 8.4383 5.01167 7.92929 5 7.65733C5 7.39674 5.06 7.14832 5.18167 6.91127C5.35167 6.61577 5.61917 6.37872 5.935 6.24882C6.15417 6.16521 6.81 6.03532 6.82167 6.03532C7.53917 5.90542 8.705 5.83398 9.99333 5.83398C11.2208 5.83398 12.3392 5.90542 13.0675 6.01177C13.0792 6.02395 13.8942 6.15384 14.1733 6.29591C14.6833 6.5565 15 7.06552 15 7.61025V7.65733C14.9875 8.0121 14.6708 8.75816 14.6592 8.75816C14.1242 10.0124 12.46 12.4868 11.3542 13.4813C11.3542 13.4813 11.07 13.7614 10.8925 13.8832C10.6375 14.0731 10.3217 14.1673 10.0058 14.1673C9.65333 14.1673 9.325 14.061 9.0575 13.8596Z" fill="#212121"/>
</svg>
