<svg width="380" height="137" viewBox="0 0 380 137" fill="none" xmlns="http://www.w3.org/2000/svg">
<path d="M38.7186 0H35.4707V112H38.7186V0Z" fill="black"/>
<path d="M45.2147 0H41.9668V112H45.2147V0Z" fill="black"/>
<path d="M56.7106 0H50.2148V100H56.7106V0Z" fill="black"/>
<path d="M66.4549 0H63.207V100H66.4549V0Z" fill="black"/>
<path d="M79.4449 0H72.9492V100H79.4449V0Z" fill="black"/>
<path d="M89.1893 0H85.9414V100H89.1893V0Z" fill="black"/>
<path d="M105.429 0H95.6855V100H105.429V0Z" fill="black"/>
<path d="M111.924 0H108.676V100H111.924V0Z" fill="black"/>
<path d="M118.42 0H115.172V100H118.42V0Z" fill="black"/>
<path d="M134.659 0H121.668V100H134.659V0Z" fill="black"/>
<path d="M144.402 0H141.154V100H144.402V0Z" fill="black"/>
<path d="M157.394 0H154.146V100H157.394V0Z" fill="black"/>
<path d="M163.89 0H160.643V100H163.89V0Z" fill="black"/>
<path d="M180.129 0H176.881V100H180.129V0Z" fill="black"/>
<path d="M91.5499 122V121.233L94.4306 118.08C94.7686 117.71 95.0471 117.389 95.2658 117.116C95.4846 116.841 95.6465 116.582 95.7516 116.341C95.8596 116.097 95.9135 115.841 95.9135 115.574C95.9135 115.267 95.8397 115.001 95.6919 114.777C95.5471 114.553 95.3482 114.379 95.0953 114.257C94.8425 114.135 94.5584 114.074 94.2431 114.074C93.9078 114.074 93.6152 114.143 93.3652 114.283C93.1181 114.419 92.9263 114.611 92.79 114.858C92.6564 115.105 92.5897 115.395 92.5897 115.727H91.584C91.584 115.216 91.7019 114.767 91.9377 114.381C92.1735 113.994 92.4945 113.693 92.9007 113.477C93.3098 113.261 93.7686 113.153 94.2772 113.153C94.7885 113.153 95.2417 113.261 95.6365 113.477C96.0314 113.693 96.3411 113.984 96.5655 114.351C96.79 114.717 96.9022 115.125 96.9022 115.574C96.9022 115.895 96.8439 116.209 96.7275 116.516C96.6138 116.82 96.415 117.159 96.1309 117.534C95.8496 117.906 95.459 118.361 94.959 118.898L92.9988 120.994V121.062H97.0556V122H91.5499ZM99.0882 122L102.992 114.278V114.21H98.4917V113.273H104.083V114.261L100.196 122H99.0882ZM108.421 122.119C107.858 122.119 107.357 122.023 106.916 121.83C106.479 121.636 106.131 121.368 105.872 121.024C105.617 120.678 105.477 120.276 105.455 119.818H106.529C106.551 120.099 106.648 120.342 106.818 120.547C106.989 120.749 107.212 120.905 107.487 121.016C107.763 121.126 108.068 121.182 108.404 121.182C108.779 121.182 109.111 121.116 109.401 120.986C109.691 120.855 109.918 120.673 110.083 120.44C110.247 120.207 110.33 119.938 110.33 119.631C110.33 119.31 110.25 119.027 110.091 118.783C109.932 118.536 109.699 118.342 109.392 118.203C109.085 118.064 108.71 117.994 108.267 117.994H107.568V117.057H108.267C108.614 117.057 108.918 116.994 109.179 116.869C109.443 116.744 109.649 116.568 109.797 116.341C109.948 116.114 110.023 115.847 110.023 115.54C110.023 115.244 109.958 114.987 109.827 114.768C109.696 114.55 109.512 114.379 109.273 114.257C109.037 114.135 108.759 114.074 108.438 114.074C108.137 114.074 107.852 114.129 107.585 114.24C107.321 114.348 107.105 114.506 106.938 114.713C106.77 114.918 106.679 115.165 106.665 115.455H105.642C105.659 114.997 105.797 114.597 106.056 114.253C106.314 113.906 106.652 113.636 107.07 113.443C107.49 113.25 107.952 113.153 108.455 113.153C108.994 113.153 109.458 113.263 109.844 113.482C110.23 113.697 110.527 113.983 110.735 114.338C110.942 114.693 111.046 115.077 111.046 115.489C111.046 115.98 110.916 116.399 110.658 116.746C110.402 117.092 110.054 117.332 109.614 117.466V117.534C110.165 117.625 110.595 117.859 110.905 118.237C111.215 118.612 111.369 119.077 111.369 119.631C111.369 120.105 111.24 120.531 110.982 120.909C110.726 121.284 110.377 121.58 109.933 121.795C109.49 122.011 108.986 122.119 108.421 122.119ZM116.01 122.119C115.652 122.114 115.294 122.045 114.936 121.915C114.578 121.784 114.252 121.564 113.956 121.254C113.661 120.942 113.423 120.52 113.244 119.989C113.066 119.455 112.976 118.784 112.976 117.977C112.976 117.205 113.048 116.52 113.193 115.923C113.338 115.324 113.548 114.82 113.824 114.411C114.1 113.999 114.432 113.686 114.821 113.473C115.213 113.26 115.655 113.153 116.146 113.153C116.635 113.153 117.07 113.251 117.45 113.447C117.834 113.641 118.146 113.911 118.388 114.257C118.629 114.604 118.786 115.003 118.857 115.455H117.817C117.72 115.062 117.533 114.737 117.254 114.479C116.976 114.22 116.607 114.091 116.146 114.091C115.47 114.091 114.938 114.385 114.548 114.973C114.162 115.561 113.968 116.386 113.965 117.449H114.033C114.192 117.207 114.381 117.001 114.6 116.831C114.821 116.658 115.066 116.524 115.333 116.43C115.6 116.337 115.882 116.29 116.181 116.29C116.681 116.29 117.138 116.415 117.553 116.665C117.968 116.912 118.3 117.254 118.55 117.692C118.8 118.126 118.925 118.625 118.925 119.188C118.925 119.727 118.804 120.222 118.563 120.67C118.321 121.116 117.982 121.472 117.544 121.736C117.11 121.997 116.598 122.125 116.01 122.119ZM116.01 121.182C116.368 121.182 116.689 121.092 116.973 120.913C117.26 120.734 117.486 120.494 117.651 120.193C117.818 119.892 117.902 119.557 117.902 119.188C117.902 118.827 117.821 118.499 117.659 118.203C117.5 117.905 117.28 117.668 116.999 117.491C116.72 117.315 116.402 117.227 116.044 117.227C115.774 117.227 115.523 117.281 115.29 117.389C115.057 117.494 114.852 117.639 114.676 117.824C114.503 118.009 114.367 118.22 114.267 118.459C114.168 118.695 114.118 118.943 114.118 119.205C114.118 119.551 114.199 119.875 114.361 120.176C114.526 120.477 114.75 120.72 115.034 120.905C115.321 121.089 115.646 121.182 116.01 121.182ZM120.601 122V121.233L123.481 118.08C123.819 117.71 124.098 117.389 124.317 117.116C124.535 116.841 124.697 116.582 124.802 116.341C124.91 116.097 124.964 115.841 124.964 115.574C124.964 115.267 124.89 115.001 124.743 114.777C124.598 114.553 124.399 114.379 124.146 114.257C123.893 114.135 123.609 114.074 123.294 114.074C122.959 114.074 122.666 114.143 122.416 114.283C122.169 114.419 121.977 114.611 121.841 114.858C121.707 115.105 121.64 115.395 121.64 115.727H120.635C120.635 115.216 120.753 114.767 120.988 114.381C121.224 113.994 121.545 113.693 121.952 113.477C122.361 113.261 122.819 113.153 123.328 113.153C123.839 113.153 124.292 113.261 124.687 113.477C125.082 113.693 125.392 113.984 125.616 114.351C125.841 114.717 125.953 115.125 125.953 115.574C125.953 115.895 125.895 116.209 125.778 116.516C125.665 116.82 125.466 117.159 125.182 117.534C124.9 117.906 124.51 118.361 124.01 118.898L122.05 120.994V121.062H126.106V122H120.601ZM130.662 122.119C130.077 122.119 129.559 122.016 129.111 121.808C128.665 121.598 128.317 121.31 128.067 120.943C127.817 120.574 127.693 120.153 127.696 119.682C127.693 119.312 127.765 118.972 127.913 118.659C128.061 118.344 128.263 118.081 128.518 117.871C128.777 117.658 129.065 117.523 129.383 117.466V117.415C128.966 117.307 128.633 117.072 128.386 116.712C128.139 116.348 128.017 115.935 128.02 115.472C128.017 115.028 128.129 114.632 128.356 114.283C128.584 113.933 128.896 113.658 129.294 113.456C129.694 113.254 130.15 113.153 130.662 113.153C131.167 113.153 131.619 113.254 132.017 113.456C132.415 113.658 132.727 113.933 132.954 114.283C133.184 114.632 133.301 115.028 133.304 115.472C133.301 115.935 133.175 116.348 132.925 116.712C132.677 117.072 132.349 117.307 131.94 117.415V117.466C132.256 117.523 132.54 117.658 132.792 117.871C133.045 118.081 133.247 118.344 133.398 118.659C133.548 118.972 133.625 119.312 133.628 119.682C133.625 120.153 133.497 120.574 133.244 120.943C132.994 121.31 132.646 121.598 132.2 121.808C131.757 122.016 131.244 122.119 130.662 122.119ZM130.662 121.182C131.057 121.182 131.398 121.118 131.684 120.99C131.971 120.862 132.193 120.682 132.349 120.449C132.506 120.216 132.585 119.943 132.588 119.631C132.585 119.301 132.5 119.01 132.332 118.757C132.165 118.504 131.936 118.305 131.646 118.161C131.359 118.016 131.031 117.943 130.662 117.943C130.29 117.943 129.957 118.016 129.665 118.161C129.375 118.305 129.146 118.504 128.979 118.757C128.814 119.01 128.733 119.301 128.736 119.631C128.733 119.943 128.808 120.216 128.961 120.449C129.118 120.682 129.341 120.862 129.631 120.99C129.92 121.118 130.264 121.182 130.662 121.182ZM130.662 117.04C130.974 117.04 131.251 116.977 131.493 116.852C131.737 116.727 131.929 116.553 132.068 116.328C132.207 116.104 132.278 115.841 132.281 115.54C132.278 115.244 132.209 114.987 132.072 114.768C131.936 114.547 131.747 114.376 131.506 114.257C131.264 114.135 130.983 114.074 130.662 114.074C130.335 114.074 130.05 114.135 129.805 114.257C129.561 114.376 129.372 114.547 129.238 114.768C129.105 114.987 129.04 115.244 129.042 115.54C129.04 115.841 129.106 116.104 129.243 116.328C129.382 116.553 129.574 116.727 129.818 116.852C130.062 116.977 130.344 117.04 130.662 117.04Z" fill="black"/>
<path d="M188.377 0H185.129V112H188.377V0Z" fill="black"/>
<path d="M194.873 0H191.625V112H194.873V0Z" fill="black"/>
<path d="M203.119 0H199.871V100H203.119V0Z" fill="black"/>
<path d="M216.111 0H212.863V100H216.111V0Z" fill="black"/>
<path d="M225.853 0H222.605V100H225.853V0Z" fill="black"/>
<path d="M235.597 0H232.35V100H235.597V0Z" fill="black"/>
<path d="M248.59 0H245.342V100H248.59V0Z" fill="black"/>
<path d="M264.828 0H261.58V100H264.828V0Z" fill="black"/>
<path d="M277.82 0H268.076V100H277.82V0Z" fill="black"/>
<path d="M284.316 0H281.068V100H284.316V0Z" fill="black"/>
<path d="M300.554 0H290.811V100H300.554V0Z" fill="black"/>
<path d="M307.051 0H303.803V100H307.051V0Z" fill="black"/>
<path d="M323.29 0H313.547V100H323.29V0Z" fill="black"/>
<path d="M329.785 0H326.537V100H329.785V0Z" fill="black"/>
<path d="M250.507 122.119C249.922 122.119 249.405 122.016 248.956 121.808C248.51 121.598 248.162 121.31 247.912 120.943C247.662 120.574 247.539 120.153 247.542 119.682C247.539 119.312 247.611 118.972 247.759 118.659C247.907 118.344 248.108 118.081 248.364 117.871C248.623 117.658 248.911 117.523 249.229 117.466V117.415C248.811 117.307 248.479 117.072 248.232 116.712C247.985 116.348 247.863 115.935 247.865 115.472C247.863 115.028 247.975 114.632 248.202 114.283C248.429 113.933 248.742 113.658 249.14 113.456C249.54 113.254 249.996 113.153 250.507 113.153C251.013 113.153 251.465 113.254 251.863 113.456C252.26 113.658 252.573 113.933 252.8 114.283C253.03 114.632 253.147 115.028 253.15 115.472C253.147 115.935 253.02 116.348 252.77 116.712C252.523 117.072 252.195 117.307 251.786 117.415V117.466C252.101 117.523 252.385 117.658 252.638 117.871C252.891 118.081 253.093 118.344 253.243 118.659C253.394 118.972 253.471 119.312 253.473 119.682C253.471 120.153 253.343 120.574 253.09 120.943C252.84 121.31 252.492 121.598 252.046 121.808C251.603 122.016 251.09 122.119 250.507 122.119ZM250.507 121.182C250.902 121.182 251.243 121.118 251.53 120.99C251.817 120.862 252.039 120.682 252.195 120.449C252.351 120.216 252.431 119.943 252.434 119.631C252.431 119.301 252.346 119.01 252.178 118.757C252.01 118.504 251.782 118.305 251.492 118.161C251.205 118.016 250.877 117.943 250.507 117.943C250.135 117.943 249.803 118.016 249.51 118.161C249.221 118.305 248.992 118.504 248.824 118.757C248.659 119.01 248.578 119.301 248.581 119.631C248.578 119.943 248.654 120.216 248.807 120.449C248.963 120.682 249.186 120.862 249.476 120.99C249.766 121.118 250.11 121.182 250.507 121.182ZM250.507 117.04C250.82 117.04 251.097 116.977 251.338 116.852C251.583 116.727 251.775 116.553 251.914 116.328C252.053 116.104 252.124 115.841 252.127 115.54C252.124 115.244 252.054 114.987 251.918 114.768C251.782 114.547 251.593 114.376 251.351 114.257C251.11 114.135 250.828 114.074 250.507 114.074C250.181 114.074 249.895 114.135 249.651 114.257C249.407 114.376 249.218 114.547 249.084 114.768C248.951 114.987 248.885 115.244 248.888 115.54C248.885 115.841 248.952 116.104 249.088 116.328C249.228 116.553 249.419 116.727 249.664 116.852C249.908 116.977 250.189 117.04 250.507 117.04ZM258.055 122.119C257.493 122.119 256.991 122.023 256.551 121.83C256.114 121.636 255.766 121.368 255.507 121.024C255.251 120.678 255.112 120.276 255.089 119.818H256.163C256.186 120.099 256.283 120.342 256.453 120.547C256.624 120.749 256.847 120.905 257.122 121.016C257.398 121.126 257.703 121.182 258.038 121.182C258.413 121.182 258.746 121.116 259.036 120.986C259.325 120.855 259.553 120.673 259.717 120.44C259.882 120.207 259.964 119.938 259.964 119.631C259.964 119.31 259.885 119.027 259.726 118.783C259.567 118.536 259.334 118.342 259.027 118.203C258.72 118.064 258.345 117.994 257.902 117.994H257.203V117.057H257.902C258.249 117.057 258.553 116.994 258.814 116.869C259.078 116.744 259.284 116.568 259.432 116.341C259.582 116.114 259.658 115.847 259.658 115.54C259.658 115.244 259.592 114.987 259.462 114.768C259.331 114.55 259.146 114.379 258.908 114.257C258.672 114.135 258.393 114.074 258.072 114.074C257.771 114.074 257.487 114.129 257.22 114.24C256.956 114.348 256.74 114.506 256.572 114.713C256.405 114.918 256.314 115.165 256.3 115.455H255.277C255.294 114.997 255.432 114.597 255.69 114.253C255.949 113.906 256.287 113.636 256.705 113.443C257.125 113.25 257.587 113.153 258.089 113.153C258.629 113.153 259.092 113.263 259.479 113.482C259.865 113.697 260.162 113.983 260.369 114.338C260.577 114.693 260.68 115.077 260.68 115.489C260.68 115.98 260.551 116.399 260.293 116.746C260.037 117.092 259.689 117.332 259.249 117.466V117.534C259.8 117.625 260.23 117.859 260.54 118.237C260.849 118.612 261.004 119.077 261.004 119.631C261.004 120.105 260.875 120.531 260.616 120.909C260.361 121.284 260.011 121.58 259.568 121.795C259.125 122.011 258.621 122.119 258.055 122.119ZM263.02 122L266.923 114.278V114.21H262.423V113.273H268.014V114.261L264.128 122H263.02ZM269.603 122V121.233L272.483 118.08C272.821 117.71 273.1 117.389 273.319 117.116C273.537 116.841 273.699 116.582 273.804 116.341C273.912 116.097 273.966 115.841 273.966 115.574C273.966 115.267 273.892 115.001 273.745 114.777C273.6 114.553 273.401 114.379 273.148 114.257C272.895 114.135 272.611 114.074 272.296 114.074C271.961 114.074 271.668 114.143 271.418 114.283C271.171 114.419 270.979 114.611 270.843 114.858C270.709 115.105 270.642 115.395 270.642 115.727H269.637C269.637 115.216 269.755 114.767 269.99 114.381C270.226 113.994 270.547 113.693 270.953 113.477C271.363 113.261 271.821 113.153 272.33 113.153C272.841 113.153 273.294 113.261 273.689 113.477C274.084 113.693 274.394 113.984 274.618 114.351C274.843 114.717 274.955 115.125 274.955 115.574C274.955 115.895 274.897 116.209 274.78 116.516C274.667 116.82 274.468 117.159 274.184 117.534C273.902 117.906 273.512 118.361 273.012 118.898L271.051 120.994V121.062H275.108V122H269.603ZM277.141 122L281.044 114.278V114.21H276.544V113.273H282.135V114.261L278.249 122H277.141ZM286.385 113.153C286.743 113.156 287.101 113.224 287.459 113.358C287.817 113.491 288.143 113.713 288.439 114.023C288.734 114.33 288.972 114.749 289.151 115.28C289.33 115.811 289.419 116.477 289.419 117.278C289.419 118.054 289.345 118.743 289.197 119.345C289.053 119.945 288.842 120.45 288.567 120.862C288.294 121.274 287.962 121.587 287.57 121.8C287.18 122.013 286.74 122.119 286.249 122.119C285.76 122.119 285.324 122.023 284.94 121.83C284.56 121.634 284.247 121.362 284.003 121.016C283.761 120.666 283.607 120.261 283.538 119.801H284.578C284.672 120.202 284.858 120.533 285.136 120.794C285.418 121.053 285.788 121.182 286.249 121.182C286.922 121.182 287.453 120.888 287.842 120.3C288.234 119.712 288.43 118.881 288.43 117.807H288.362C288.203 118.045 288.014 118.251 287.795 118.425C287.577 118.598 287.334 118.732 287.067 118.825C286.8 118.919 286.516 118.966 286.214 118.966C285.714 118.966 285.256 118.842 284.838 118.595C284.423 118.345 284.091 118.003 283.841 117.568C283.594 117.131 283.47 116.631 283.47 116.068C283.47 115.534 283.589 115.045 283.828 114.602C284.07 114.156 284.408 113.801 284.842 113.537C285.28 113.273 285.794 113.145 286.385 113.153ZM286.385 114.091C286.027 114.091 285.705 114.18 285.418 114.359C285.134 114.536 284.908 114.774 284.74 115.075C284.575 115.374 284.493 115.705 284.493 116.068C284.493 116.432 284.572 116.763 284.732 117.061C284.893 117.357 285.114 117.592 285.392 117.768C285.673 117.942 285.993 118.028 286.351 118.028C286.621 118.028 286.872 117.976 287.105 117.871C287.338 117.763 287.541 117.616 287.714 117.432C287.891 117.244 288.028 117.033 288.128 116.797C288.227 116.558 288.277 116.31 288.277 116.051C288.277 115.71 288.195 115.391 288.03 115.092C287.868 114.794 287.643 114.553 287.357 114.368C287.072 114.183 286.749 114.091 286.385 114.091Z" fill="black"/>
<path d="M338.033 0H334.785V112H338.033V0Z" fill="black"/>
<path d="M344.529 0H341.281V112H344.529V0Z" fill="black"/>
</svg>
