<svg width="29" height="28" viewBox="0 0 29 28" fill="none" xmlns="http://www.w3.org/2000/svg">
<path d="M19.9774 3.73043H16.0849C15.3815 3.73267 15.4078 4.78099 16.0849 4.77483H19.9774V5.31075H16.0849C15.3854 5.30459 15.4112 6.35235 16.0849 6.35515H19.9774V6.90283H16.0849C15.3854 6.90283 15.4112 7.95003 16.0849 7.94723H19.9774V8.46915H16.0849C15.4 8.47419 15.4112 9.52251 16.0849 9.52587H19.9774V10.0489H16.0849C15.4 10.0467 15.3972 11.0933 16.0849 11.0933H19.9774V11.6152H16.0849C15.4 11.6175 15.3972 12.6652 16.0849 12.6602H19.9774V13.195H16.0849C15.4 13.1888 15.3972 14.2355 16.0849 14.2394H19.9774V14.7602H16.0849C15.4 14.7596 15.4112 15.8085 16.0849 15.8052H19.9774V25.9742C19.9797 27.5237 22.3333 27.4957 22.3401 25.9742V2.17699C22.3333 1.46915 21.7521 0.574274 20.7956 0.571474H16.0849C15.3815 0.572034 15.4078 1.62035 16.0849 1.61587L19.9774 1.62875V2.14955H16.0849C15.3826 2.14619 15.4089 3.19395 16.0849 3.19451H19.9774V3.73043V3.73043ZM15.8172 21.7591C15.8149 19.9503 13.9401 18.0048 11.7001 19.2648V12.3466L10.2513 0.936594C10.2211 0.634754 9.96518 0.563634 9.79326 0.558594C9.61574 0.563634 9.26014 0.634754 9.2215 0.936594L7.78006 12.3466V19.2648C5.54006 18.0048 3.72566 19.9626 3.7251 21.7451C3.72566 23.331 4.94646 24.6336 6.59846 24.6296C8.26278 24.6336 9.46006 23.1736 9.46006 21.7451V14.5586H10.0201V21.7451C10.0201 23.3444 11.2588 24.5283 12.6353 24.6033C12.6123 25.4803 12.8985 26.7313 13.4372 27.2275C14.0689 27.8099 14.8209 27.0651 14.5124 26.4586C14.2145 25.8941 13.9221 25.5598 14.1596 24.3272C15.1519 23.868 15.8149 22.9015 15.8172 21.7591V21.7591ZM6.6623 23.182C6.28468 23.182 5.92253 23.032 5.65552 22.765C5.3885 22.498 5.2385 22.1358 5.2385 21.7582C5.2385 21.3806 5.3885 21.0185 5.65552 20.7515C5.92253 20.4844 6.28468 20.3344 6.6623 20.3344C7.43846 20.3389 8.0707 20.9756 8.0763 21.7591C8.0747 22.1344 7.92549 22.4941 7.66092 22.7603C7.39634 23.0266 7.03763 23.1781 6.6623 23.182V23.182ZM11.4621 21.7591C11.4634 21.3834 11.6125 21.0233 11.8772 20.7567C12.1419 20.4901 12.5009 20.3384 12.8766 20.3344C13.2524 20.3378 13.6117 20.4893 13.8765 20.7561C14.1412 21.0228 14.29 21.3833 14.2906 21.7591C14.29 22.1347 14.1412 22.495 13.8764 22.7615C13.6116 23.0279 13.2523 23.1791 12.8766 23.182C12.501 23.1786 12.1419 23.0274 11.8772 22.761C11.6124 22.4946 11.4632 22.1347 11.4621 21.7591V21.7591Z" fill="#7210FF"/>
</svg>
