<svg width="25" height="24" viewBox="0 0 25 24" fill="none" xmlns="http://www.w3.org/2000/svg">
<path fill-rule="evenodd" clip-rule="evenodd" d="M19.671 19.0699C16.6148 22.1263 12.0894 22.7867 8.38603 21.074C7.83932 20.8539 7.39109 20.676 6.96498 20.676C5.7781 20.683 4.30077 21.8339 3.53297 21.067C2.76516 20.2991 3.91687 18.8206 3.91687 17.6266C3.91687 17.2004 3.74603 16.7602 3.52593 16.2124C1.81244 12.5096 2.47372 7.98269 5.52987 4.92721C9.43121 1.02443 15.7696 1.02443 19.671 4.9262C23.5793 8.83501 23.5723 15.1681 19.671 19.0699Z" stroke="#212121" stroke-width="1.5" stroke-linecap="round" stroke-linejoin="round"/>
<path d="M16.5394 12.4131H16.5484" stroke="#212121" stroke-width="2" stroke-linecap="round" stroke-linejoin="round"/>
<path d="M12.5297 12.4131H12.5387" stroke="#212121" stroke-width="2" stroke-linecap="round" stroke-linejoin="round"/>
<path d="M8.52089 12.4131H8.52989" stroke="#212121" stroke-width="2" stroke-linecap="round" stroke-linejoin="round"/>
</svg>
