<svg width="15" height="14" viewBox="0 0 15 14" fill="none" xmlns="http://www.w3.org/2000/svg">
<path fill-rule="evenodd" clip-rule="evenodd" d="M7.50004 13.6668C3.82004 13.6668 0.833374 10.6868 0.833374 7.00016C0.833374 3.32016 3.82004 0.333496 7.50004 0.333496C11.1867 0.333496 14.1667 3.32016 14.1667 7.00016C14.1667 10.6868 11.1867 13.6668 7.50004 13.6668ZM9.62671 9.4735C9.70671 9.52016 9.79337 9.54683 9.88671 9.54683C10.0534 9.54683 10.22 9.46016 10.3134 9.30016C10.4534 9.06683 10.38 8.76016 10.14 8.6135L7.76671 7.20016V4.12016C7.76671 3.84016 7.54004 3.62016 7.26671 3.62016C6.99337 3.62016 6.76671 3.84016 6.76671 4.12016V7.48683C6.76671 7.66016 6.86004 7.82016 7.01337 7.9135L9.62671 9.4735Z" fill="#4D5DFA"/>
</svg>
