<svg width="60" height="58" viewBox="0 0 60 58" fill="none" xmlns="http://www.w3.org/2000/svg">
<ellipse cx="30.7226" cy="29.2787" rx="22.7709" ry="22.7709" fill="#4ADE80"/>
<circle cx="57.4714" cy="9.03791" r="2.5301" fill="#4ADE80"/>
<circle cx="6.14215" cy="3.25299" r="3.25299" fill="#4ADE80"/>
<circle cx="2.89462" cy="42.6489" r="1.44577" fill="#4ADE80"/>
<circle cx="52.7707" cy="51.3244" r="0.722886" fill="#4ADE80"/>
<path fill-rule="evenodd" clip-rule="evenodd" d="M34.5082 25.2334C34.5082 27.5335 32.664 29.3777 30.3623 29.3777C28.0614 29.3777 26.2165 27.5335 26.2165 25.2334C26.2165 22.9333 28.0614 21.0898 30.3623 21.0898C32.664 21.0898 34.5082 22.9333 34.5082 25.2334ZM30.3621 36.7511C26.9652 36.7511 24.0971 36.199 24.0971 34.0689C24.0971 31.938 26.9832 31.4054 30.3621 31.4054C33.7598 31.4054 36.6271 31.9576 36.6271 34.0877C36.6271 36.2186 33.741 36.7511 30.3621 36.7511Z" fill="white"/>
<circle cx="33.9783" cy="1.44554" r="0.722886" fill="#4ADE80"/>
<ellipse cx="19.881" cy="56.7484" rx="1.08433" ry="1.08433" fill="#4ADE80"/>
<circle cx="39.3952" cy="55.3028" r="0.361443" fill="#4ADE80"/>
<circle cx="54.9397" cy="35.4221" r="0.722886" fill="#4ADE80"/>
<circle cx="0.361443" cy="24.2169" r="0.361443" fill="#4ADE80"/>
</svg>
