<svg width="20" height="20" viewBox="0 0 20 20" fill="none" xmlns="http://www.w3.org/2000/svg">
<path d="M6.66797 3.33464V13.3346C6.66797 13.7767 6.84356 14.2006 7.15612 14.5131C7.46869 14.8257 7.89261 15.0013 8.33464 15.0013H15.0013C15.4433 15.0013 15.8673 14.8257 16.1798 14.5131C16.4924 14.2006 16.668 13.7767 16.668 13.3346V6.0363C16.6679 5.81427 16.6235 5.59448 16.5374 5.38984C16.4513 5.1852 16.3251 4.99984 16.1663 4.84464L13.4038 2.14297C13.0924 1.83852 12.6743 1.66802 12.2388 1.66797H8.33464C7.89261 1.66797 7.46869 1.84356 7.15612 2.15612C6.84356 2.46868 6.66797 2.89261 6.66797 3.33464V3.33464Z" stroke="#7210FF" stroke-width="2" stroke-linecap="round" stroke-linejoin="round"/>
<path d="M13.334 15.0026V16.6693C13.334 17.1113 13.1584 17.5352 12.8458 17.8478C12.5333 18.1603 12.1093 18.3359 11.6673 18.3359H5.00065C4.55862 18.3359 4.1347 18.1603 3.82214 17.8478C3.50958 17.5352 3.33398 17.1113 3.33398 16.6693V7.5026C3.33398 7.06058 3.50958 6.63665 3.82214 6.32409C4.1347 6.01153 4.55862 5.83594 5.00065 5.83594H6.66732" stroke="#7210FF" stroke-width="2" stroke-linecap="round" stroke-linejoin="round"/>
</svg>
