<svg width="29" height="28" viewBox="0 0 29 28" fill="none" xmlns="http://www.w3.org/2000/svg">
<path d="M4.00016 4.74219H9.8335C10.1429 4.74219 10.4397 4.8651 10.6585 5.0839C10.8772 5.30269 11.0002 5.59943 11.0002 5.90885V22.2422C11.0002 22.5516 10.8772 22.8484 10.6585 23.0671C10.4397 23.2859 10.1429 23.4089 9.8335 23.4089H4.00016C3.69074 23.4089 3.394 23.2859 3.1752 23.0671C2.95641 22.8484 2.8335 22.5516 2.8335 22.2422V5.90885C2.8335 5.59943 2.95641 5.30269 3.1752 5.0839C3.394 4.8651 3.69074 4.74219 4.00016 4.74219V4.74219ZM4.00016 17.5755V19.9089H6.3335V17.5755H4.00016ZM14.5002 8.24219H23.8335C24.4523 8.24219 25.0458 8.48802 25.4834 8.9256C25.921 9.36319 26.1668 9.95668 26.1668 10.5755V17.5755C26.1668 18.1944 25.921 18.7879 25.4834 19.2254C25.0458 19.663 24.4523 19.9089 23.8335 19.9089H14.5002C13.8813 19.9089 13.2878 19.663 12.8502 19.2254C12.4127 18.7879 12.1668 18.1944 12.1668 17.5755V10.5755C12.1668 9.95668 12.4127 9.36319 12.8502 8.9256C13.2878 8.48802 13.8813 8.24219 14.5002 8.24219ZM16.8335 21.0755H21.5002C21.8096 21.0755 22.1063 21.1984 22.3251 21.4172C22.5439 21.636 22.6668 21.9328 22.6668 22.2422C22.6668 22.5516 22.5439 22.8484 22.3251 23.0671C22.1063 23.2859 21.8096 23.4089 21.5002 23.4089H16.8335C16.5241 23.4089 16.2273 23.2859 16.0085 23.0671C15.7897 22.8484 15.6668 22.5516 15.6668 22.2422C15.6668 21.9328 15.7897 21.636 16.0085 21.4172C16.2273 21.1984 16.5241 21.0755 16.8335 21.0755V21.0755Z" fill="#FF981F"/>
</svg>
