<svg width="80" height="81" viewBox="0 0 80 81" fill="none" xmlns="http://www.w3.org/2000/svg">
<rect y="0.666748" width="80" height="80" rx="40" fill="#EDEFFF"/>
<path fill-rule="evenodd" clip-rule="evenodd" d="M46.5859 28.6667C48.3739 28.6667 50.0939 29.3734 51.3592 30.6414C52.6259 31.9067 53.3339 33.6134 53.3339 35.4001V45.9334C53.3339 49.6534 50.3072 52.6667 46.5859 52.6667H33.4139C29.6926 52.6667 26.6672 49.6534 26.6672 45.9334V35.4001C26.6672 31.6801 29.6792 28.6667 33.4139 28.6667H46.5859ZM48.7072 37.3867L48.8139 37.2801C49.1326 36.8934 49.1326 36.3334 48.7992 35.9467C48.6139 35.7481 48.3592 35.6267 48.0939 35.6001C47.8139 35.5854 47.5472 35.6801 47.3459 35.8667L41.3339 40.6667C40.5606 41.3081 39.4526 41.3081 38.6672 40.6667L32.6672 35.8667C32.2526 35.5601 31.6792 35.6001 31.3339 35.9601C30.9739 36.3201 30.9339 36.8934 31.2392 37.2934L31.4139 37.4667L37.4806 42.2001C38.2272 42.7867 39.1326 43.1067 40.0806 43.1067C41.0259 43.1067 41.9472 42.7867 42.6926 42.2001L48.7072 37.3867Z" fill="url(#paint0_linear_727_25768)"/>
<defs>
<linearGradient id="paint0_linear_727_25768" x1="53.3339" y1="52.6667" x2="22.1698" y2="42.627" gradientUnits="userSpaceOnUse">
<stop stop-color="#4D5DFA"/>
<stop offset="1" stop-color="#7784FF"/>
</linearGradient>
</defs>
</svg>
