<svg width="20" height="20" viewBox="0 0 20 20" fill="none" xmlns="http://www.w3.org/2000/svg">
<path d="M8.60846 13.8269H3.35787" stroke="#7210FF" stroke-width="1.5" stroke-linecap="round" stroke-linejoin="round"/>
<path d="M10.9504 5.75072H16.201" stroke="#7210FF" stroke-width="1.5" stroke-linecap="round" stroke-linejoin="round"/>
<path fill-rule="evenodd" clip-rule="evenodd" d="M7.27191 5.70521C7.27191 4.6255 6.39011 3.75 5.30262 3.75C4.21513 3.75 3.33333 4.6255 3.33333 5.70521C3.33333 6.78492 4.21513 7.66042 5.30262 7.66042C6.39011 7.66042 7.27191 6.78492 7.27191 5.70521Z" stroke="#7210FF" stroke-width="1.5" stroke-linecap="round" stroke-linejoin="round"/>
<path fill-rule="evenodd" clip-rule="evenodd" d="M16.6667 13.7951C16.6667 12.7153 15.7855 11.8398 14.6981 11.8398C13.6099 11.8398 12.7281 12.7153 12.7281 13.7951C12.7281 14.8748 13.6099 15.7503 14.6981 15.7503C15.7855 15.7503 16.6667 14.8748 16.6667 13.7951Z" stroke="#7210FF" stroke-width="1.5" stroke-linecap="round" stroke-linejoin="round"/>
</svg>
