<svg width="288" height="251" viewBox="0 0 288 251" fill="none" xmlns="http://www.w3.org/2000/svg">
<g clip-path="url(#clip0_932_13045)">
<path d="M200.658 244.161L195.289 244.16L192.735 223.449L200.66 223.449L200.658 244.161Z" fill="#A0616A"/>
<path d="M200.847 249.762L184.337 249.761V249.552C184.337 247.848 185.014 246.213 186.219 245.008C187.424 243.803 189.059 243.126 190.763 243.126H190.763L193.779 240.837L199.406 243.126L200.847 243.126L200.847 249.762Z" fill="#2F2E41"/>
<path d="M238.646 244.161L244.015 244.16L246.57 223.449L238.645 223.449L238.646 244.161Z" fill="#A0616A"/>
<path d="M266.653 232.032L274.411 229.571C275.378 225.406 275.313 221.069 274.224 216.936C271.107 223.866 261.963 225.565 256.753 231.097C255.141 232.834 253.941 234.913 253.242 237.177C252.542 239.442 252.361 241.835 252.712 244.179L251.08 249.717C254.892 249.391 258.588 248.243 261.914 246.351C265.239 244.459 268.115 241.868 270.344 238.758C271.576 237 272.583 235.095 273.339 233.086C270.031 232.755 266.653 232.032 266.653 232.032Z" fill="#F2F2F2"/>
<path d="M258.363 221.792L264.209 216.129C263.217 211.971 261.226 208.117 258.407 204.903C258.708 212.497 251.281 218.095 249.085 225.371C248.417 227.645 248.27 230.04 248.654 232.379C249.038 234.718 249.943 236.941 251.302 238.883L252.311 244.567C255.578 242.575 258.374 239.899 260.507 236.722C262.639 233.545 264.058 229.944 264.665 226.166C264.985 224.043 265.036 221.889 264.818 219.753C261.709 220.932 258.363 221.792 258.363 221.792Z" fill="#F2F2F2"/>
<path d="M238.457 249.762L254.966 249.761V249.552C254.966 247.848 254.289 246.213 253.084 245.008C251.879 243.803 250.245 243.126 248.54 243.126H248.54L245.524 240.837L239.898 243.126L238.456 243.126L238.457 249.762Z" fill="#2F2E41"/>
<path d="M288 249.761C288 249.836 287.986 249.91 287.957 249.98C287.928 250.05 287.886 250.113 287.833 250.166C287.78 250.219 287.716 250.262 287.647 250.29C287.577 250.319 287.503 250.334 287.427 250.333H152.524C152.373 250.333 152.227 250.273 152.119 250.166C152.012 250.058 151.952 249.912 151.952 249.761C151.952 249.609 152.012 249.463 152.119 249.356C152.227 249.248 152.373 249.188 152.524 249.188H287.427C287.503 249.188 287.577 249.202 287.647 249.231C287.716 249.26 287.78 249.302 287.833 249.355C287.886 249.408 287.928 249.471 287.957 249.541C287.986 249.611 288 249.685 288 249.761Z" fill="#CCCCCC"/>
<path d="M134.131 165.673H12.5147C12.0172 165.673 11.54 165.475 11.1882 165.123C10.8363 164.771 10.6387 164.294 10.6387 163.796C10.6387 163.299 10.8363 162.821 11.1882 162.469C11.54 162.118 12.0172 161.92 12.5147 161.92H134.131C134.628 161.92 135.106 162.118 135.457 162.469C135.809 162.821 136.007 163.299 136.007 163.796C136.007 164.294 135.809 164.771 135.457 165.123C135.106 165.475 134.628 165.673 134.131 165.673Z" fill="#E6E7E8"/>
<path d="M177.366 158.259H12.5147C12.2681 158.259 12.0238 158.211 11.7959 158.117C11.5679 158.023 11.3608 157.885 11.1863 157.71C11.0117 157.536 10.8733 157.329 10.7788 157.101C10.6844 156.873 10.6357 156.629 10.6357 156.383C10.6357 156.136 10.6844 155.892 10.7788 155.664C10.8733 155.436 11.0117 155.229 11.1863 155.055C11.3608 154.881 11.5679 154.742 11.7959 154.648C12.0238 154.554 12.2681 154.506 12.5147 154.506H177.366C177.889 154.535 178.381 154.759 178.748 155.133C179.114 155.507 179.328 156.004 179.346 156.527C179.331 156.771 179.267 157.01 179.159 157.229C179.051 157.449 178.901 157.644 178.716 157.805C178.532 157.966 178.318 158.089 178.086 158.167C177.855 158.245 177.61 158.276 177.366 158.259Z" fill="#E6E7E8"/>
<path d="M16.9386 150.607C20.4179 150.607 23.2384 147.787 23.2384 144.307C23.2384 140.827 20.4179 138.006 16.9386 138.006C13.4592 138.006 10.6387 140.827 10.6387 144.307C10.6387 147.787 13.4592 150.607 16.9386 150.607Z" fill="#E6E7E8"/>
<path d="M144.778 120.208H12.5147C12.0172 120.208 11.54 120.01 11.1882 119.658C10.8363 119.306 10.6387 118.829 10.6387 118.331C10.6387 117.834 10.8363 117.357 11.1882 117.005C11.54 116.653 12.0172 116.455 12.5147 116.455H144.778C145.276 116.455 145.753 116.653 146.105 117.005C146.457 117.357 146.654 117.834 146.654 118.331C146.654 118.829 146.457 119.306 146.105 119.658C145.753 120.01 145.276 120.208 144.778 120.208Z" fill="#E6E7E8"/>
<path d="M154.409 112.794H12.5147C12.0172 112.794 11.54 112.596 11.1882 112.244C10.8363 111.892 10.6387 111.415 10.6387 110.918C10.6387 110.42 10.8363 109.943 11.1882 109.591C11.54 109.239 12.0172 109.041 12.5147 109.041H154.409C154.907 109.041 155.384 109.239 155.736 109.591C156.088 109.943 156.285 110.42 156.285 110.918C156.285 111.415 156.088 111.892 155.736 112.244C155.384 112.596 154.907 112.794 154.409 112.794Z" fill="#E6E7E8"/>
<path d="M147.515 203.155C173.281 203.155 194.169 182.265 194.169 156.495C194.169 130.726 173.281 109.836 147.515 109.836C121.749 109.836 100.861 130.726 100.861 156.495C100.861 182.265 121.749 203.155 147.515 203.155Z" fill="#4D5DFA"/>
<path d="M147.451 172.775C151.132 172.775 154.116 169.791 154.116 166.109C154.116 162.428 151.132 159.444 147.451 159.444C143.77 159.444 140.786 162.428 140.786 166.109C140.786 169.791 143.77 172.775 147.451 172.775Z" fill="#3F3D56"/>
<path d="M147.451 169.186C149.151 169.186 150.528 167.808 150.528 166.109C150.528 164.41 149.151 163.033 147.451 163.033C145.752 163.033 144.375 164.41 144.375 166.109C144.375 167.808 145.752 169.186 147.451 169.186Z" fill="#4D5DFA"/>
<path d="M159.823 180.947H135.207C132.77 180.944 130.433 179.975 128.71 178.251C126.986 176.528 126.017 174.191 126.014 171.753V160.465C126.017 158.028 126.986 155.691 128.71 153.967C130.433 152.243 132.77 151.274 135.207 151.271H159.823C162.26 151.274 164.597 152.243 166.321 153.967C168.044 155.691 169.013 158.028 169.016 160.465V171.753C169.013 174.19 168.044 176.527 166.32 178.251C164.597 179.975 162.26 180.944 159.823 180.947ZM135.207 152.233C133.025 152.236 130.933 153.104 129.39 154.647C127.847 156.191 126.979 158.283 126.977 160.465V171.753C126.979 173.935 127.847 176.028 129.39 177.571C130.933 179.114 133.025 179.982 135.207 179.984H159.823C162.005 179.982 164.097 179.114 165.64 177.571C167.183 176.028 168.051 173.935 168.054 171.753V160.465C168.051 158.283 167.183 156.191 165.64 154.647C164.097 153.104 162.005 152.236 159.823 152.233L135.207 152.233Z" fill="white"/>
<path d="M133.749 174.82H155.598C156.732 174.82 157.855 174.597 158.903 174.163C159.951 173.729 160.903 173.092 161.705 172.29C162.506 171.488 163.143 170.536 163.577 169.488C164.011 168.441 164.234 167.317 164.234 166.183V156.737C164.232 155.69 164.039 154.651 163.664 153.673C164.73 154.476 165.595 155.515 166.191 156.71C166.786 157.904 167.096 159.22 167.096 160.554V170C167.096 171.135 166.873 172.258 166.439 173.305C166.005 174.353 165.369 175.305 164.567 176.107C163.765 176.909 162.813 177.546 161.765 177.98C160.718 178.414 159.595 178.637 158.461 178.637H136.612C134.861 178.636 133.152 178.103 131.711 177.107C130.27 176.112 129.166 174.702 128.546 173.064C130.041 174.203 131.87 174.82 133.749 174.82Z" fill="#3F3D56"/>
<path d="M192.498 208.229C192.578 207.048 193.208 200.512 193.208 200.512L194.718 186.651L197.38 149.91L197.553 147.505L211.495 144.828L221.024 140.26L232.349 143.881L241.168 147.188C241.168 147.188 241.183 148.604 241.251 150.314C241.342 152.553 241.5 155.298 241.878 156.012C242.508 157.273 242.35 164.043 242.35 164.043C242.35 164.043 242.977 177.816 243.766 179.327C244.555 180.837 244.713 183.982 244.475 184.613C244.237 185.243 245.264 201.784 245.264 201.784C245.264 201.784 247.9 231.056 246.246 235.47C244.593 239.884 238.344 236.992 238.344 236.992C238.344 236.992 238.646 235.814 236.834 235.259C235.022 234.704 229.503 193.198 229.503 193.198C229.503 193.198 228.476 184.688 227.532 182.249C226.588 179.81 225.72 172.957 225.72 172.957C225.72 172.957 219.891 161.615 219.816 159.093C219.816 159.093 219.053 156.733 218.332 159.331C217.611 161.928 215.486 168.151 215.486 168.151L213.413 175.793L210.974 187.21L209.396 196.823C209.396 196.823 207.033 209.581 206.655 210.132C206.278 210.683 206.655 222.339 206.655 222.339C206.655 222.339 204.828 232.265 202.246 233.998C199.664 235.731 192.822 234.026 192.822 234.026C192.822 234.026 192.419 209.411 192.498 208.229Z" fill="#2F2E41"/>
<path d="M147.894 131.196C143.331 131.196 139.32 133.262 137.049 136.363C139.477 134.596 142.408 133.656 145.41 133.68C152.477 133.68 158.225 138.63 158.225 144.715V149.773H160.709V142.231C160.709 136.146 154.96 131.196 147.894 131.196Z" fill="#3F3D56"/>
<path d="M162.415 152.362H132.615V143.593C132.615 136.518 139.299 130.761 147.515 130.761C155.731 130.761 162.415 136.518 162.415 143.593V152.362ZM133.577 151.399H161.453V143.593C161.453 137.048 155.2 131.724 147.515 131.724C139.829 131.724 133.577 137.048 133.577 143.593V151.399Z" fill="white"/>
<path d="M155.147 149.014H139.883C139.196 149.013 138.538 148.74 138.052 148.254C137.567 147.769 137.294 147.11 137.293 146.423V142.934C137.293 138.068 141.879 134.109 147.515 134.109C153.152 134.109 157.737 138.068 157.737 142.934V146.423C157.737 147.11 157.463 147.769 156.978 148.254C156.492 148.74 155.834 149.013 155.147 149.014ZM147.515 135.072C142.409 135.072 138.256 138.599 138.256 142.934V146.423C138.256 146.855 138.428 147.269 138.733 147.574C139.038 147.879 139.451 148.051 139.883 148.051H155.147C155.579 148.051 155.992 147.879 156.298 147.574C156.603 147.269 156.774 146.855 156.775 146.423V142.934C156.775 138.599 152.621 135.072 147.515 135.072Z" fill="white"/>
<path d="M177.366 105.38H12.5146C12.0171 105.38 11.5399 105.182 11.1881 104.831C10.8363 104.479 10.6387 104.001 10.6387 103.504C10.6387 103.006 10.8363 102.529 11.1881 102.177C11.5399 101.825 12.0171 101.628 12.5146 101.628H177.366C177.863 101.628 178.34 101.825 178.692 102.177C179.044 102.529 179.242 103.006 179.242 103.504C179.242 104.001 179.044 104.479 178.692 104.831C178.34 105.182 177.863 105.38 177.366 105.38Z" fill="#E6E7E8"/>
<path d="M16.9386 97.729C20.4179 97.729 23.2384 94.9081 23.2384 91.4283C23.2384 87.9486 20.4179 85.1277 16.9386 85.1277C13.4592 85.1277 10.6387 87.9486 10.6387 91.4283C10.6387 94.9081 13.4592 97.729 16.9386 97.729Z" fill="#E6E7E8"/>
<path d="M198.446 113.996L201.546 123.333L197.721 127.886L199.405 129.62L198.163 132.07L194.924 157.752L212.682 164.488L218.663 156.989L223.378 164.488L243.926 159.466L238.686 126.716V124.575L237.207 120.441V111.689L241.114 85.6368L229.452 81.5515L223.876 77.1379L222.072 83.345L214.389 81.9785L214.189 77.3151L208.311 82.8694L203.361 84.2813L197.435 85.6368L196.679 87.5246L198.189 87.1473L197.944 111.708L198.446 113.996Z" fill="#2F2E41"/>
<path d="M245.032 148.16L242.05 119.287L241.263 107.404L249.611 105.895C249.611 105.895 249.28 114.391 250.373 119.185C251.453 123.916 250.517 147.526 250.45 148.157C251.063 148.706 251.495 149.427 251.689 150.226C251.884 151.026 251.83 151.865 251.537 152.634C251.244 153.402 250.724 154.063 250.047 154.53C249.37 154.997 248.567 155.247 247.745 155.247C246.922 155.248 246.119 154.998 245.441 154.532C244.764 154.066 244.243 153.405 243.949 152.637C243.655 151.869 243.602 151.03 243.795 150.23C243.988 149.431 244.42 148.709 245.032 148.16Z" fill="#A0616A"/>
<path d="M193.138 148.16L196.12 119.287L196.908 107.404L188.56 105.895C188.56 105.895 188.89 114.391 187.797 119.185C186.718 123.916 187.654 147.526 187.72 148.157C187.107 148.706 186.675 149.427 186.481 150.226C186.287 151.026 186.34 151.865 186.633 152.634C186.926 153.402 187.446 154.063 188.123 154.53C188.8 154.997 189.603 155.247 190.426 155.247C191.248 155.248 192.051 154.998 192.729 154.532C193.407 154.066 193.927 153.405 194.221 152.637C194.515 151.869 194.569 151.03 194.375 150.23C194.182 149.431 193.75 148.709 193.138 148.16Z" fill="#A0616A"/>
<path d="M253.175 125.27L250.854 125.75L242.888 127.4L242.446 127.49L241.506 123.752L240.415 122.589L238.339 111.708L238.229 111.142L235.092 104.436L235.81 84.2815L240.993 85.7314C241.035 85.7729 241.072 85.8182 241.11 85.8635C242.269 87.1774 243.096 89.0048 244.447 90.8436C248.846 96.828 252.22 111.368 252.088 119.335C252.084 119.463 252.217 119.603 252.375 119.746C253.124 120.434 253.612 121.36 253.758 122.366C253.903 123.372 253.698 124.398 253.175 125.27Z" fill="#2F2E41"/>
<path d="M184.995 125.27L187.317 125.75L195.283 127.4L195.724 127.49L196.664 123.752L197.755 122.589L199.832 111.708L199.941 111.142L203.079 104.436L205.249 84.2815L197.178 85.7313C197.136 85.7729 197.098 85.8182 197.061 85.8635C195.902 87.1774 195.075 89.0048 193.723 90.8436C189.325 96.828 185.95 111.368 186.083 119.335C186.086 119.463 185.954 119.603 185.796 119.746C185.047 120.434 184.559 121.36 184.413 122.366C184.267 123.372 184.473 124.398 184.995 125.27Z" fill="#2F2E41"/>
<path d="M210.396 87.2635L214.189 77.3154L223.876 77.1379L227.091 87.2635L238.644 151.815C238.644 151.815 203.248 161.674 203.607 149.823C203.984 137.364 205.688 120.813 205.688 120.813L210.396 87.2635Z" fill="#4D5DFA"/>
<path d="M134.131 67.3293H12.5147C12.0172 67.3293 11.54 67.1316 11.1882 66.7797C10.8363 66.4278 10.6387 65.9506 10.6387 65.4529C10.6387 64.9553 10.8363 64.4781 11.1882 64.1262C11.54 63.7743 12.0172 63.5767 12.5147 63.5767H134.131C134.628 63.5767 135.106 63.7743 135.457 64.1262C135.809 64.4781 136.007 64.9553 136.007 65.4529C136.007 65.9506 135.809 66.4278 135.457 66.7797C135.106 67.1316 134.628 67.3293 134.131 67.3293Z" fill="#E6E7E8"/>
<path d="M177.366 59.9153H12.5146C12.0171 59.9153 11.5399 59.7176 11.1881 59.3657C10.8363 59.0139 10.6387 58.5367 10.6387 58.0391C10.6387 57.5415 10.8363 57.0642 11.1881 56.7124C11.5399 56.3605 12.0171 56.1628 12.5146 56.1628H177.366C177.863 56.1628 178.34 56.3605 178.692 56.7124C179.044 57.0642 179.242 57.5415 179.242 58.0391C179.242 58.5367 179.044 59.0139 178.692 59.3657C178.34 59.7176 177.863 59.9153 177.366 59.9153Z" fill="#E6E7E8"/>
<path d="M218.816 74.5327C225.118 74.5327 230.227 69.4229 230.227 63.1197C230.227 56.8165 225.118 51.7068 218.816 51.7068C212.513 51.7068 207.404 56.8165 207.404 63.1197C207.404 69.4229 212.513 74.5327 218.816 74.5327Z" fill="#A0616A"/>
<path d="M206.731 54.8404C208.589 52.818 210.913 49.1161 217.952 47.5615C226.649 45.6407 230.758 53.4984 228.565 53.6272C234.979 55.5695 230.859 68.8432 229.02 67.7299C229.004 67.7189 228.989 67.7071 228.975 67.6945C227.986 66.9662 227.156 66.0439 226.535 64.984C225.915 63.9241 225.517 62.7488 225.366 61.53L225.017 58.3889C224.967 60.9445 222.356 61.2826 219.687 60.3414C219.845 59.7811 220.146 59.2716 220.561 58.8632C220.976 58.4548 221.49 58.1616 222.052 58.0125C220.192 59.6989 217.83 60.7271 215.328 60.9387C215.459 60.2988 215.725 59.6944 216.109 59.166C216.493 58.6376 216.986 58.1975 217.554 57.8753L217.449 57.7718C216.407 58.6506 215.21 59.3281 213.921 59.7696C212.45 60.1912 210.687 59.9631 209.68 58.8116C209.408 58.4938 209.203 58.1249 209.077 57.7266C209.295 59.7506 207.937 62.0609 206.883 61.6643C206.006 61.4938 205.495 56.1867 206.731 54.8404Z" fill="#2F2E41"/>
<path d="M16.9386 52.2641C20.4179 52.2641 23.2384 49.4432 23.2384 45.9635C23.2384 42.4837 20.4179 39.6628 16.9386 39.6628C13.4592 39.6628 10.6387 42.4837 10.6387 45.9635C10.6387 49.4432 13.4592 52.2641 16.9386 52.2641Z" fill="#E6E7E8"/>
<path d="M219.501 16.9323H0.850557C0.623136 16.9275 0.406659 16.8338 0.247525 16.6712C0.08839 16.5087 -0.000732422 16.2902 -0.000732422 16.0627C-0.000732422 15.8352 0.08839 15.6168 0.247525 15.4542C0.406659 15.2917 0.623136 15.1979 0.850557 15.1931H219.501C219.728 15.1979 219.945 15.2917 220.104 15.4542C220.263 15.6168 220.352 15.8352 220.352 16.0627C220.352 16.2902 220.263 16.5087 220.104 16.6712C219.945 16.8338 219.728 16.9275 219.501 16.9323Z" fill="#3F3D56"/>
<path d="M208.902 8.729H196.397C196.149 8.73391 195.913 8.83583 195.74 9.01288C195.566 9.18993 195.469 9.42799 195.469 9.67594C195.469 9.92389 195.566 10.1619 195.74 10.339C195.913 10.516 196.149 10.618 196.397 10.6229H208.902C209.15 10.618 209.386 10.516 209.559 10.339C209.733 10.1619 209.83 9.92389 209.83 9.67594C209.83 9.42799 209.733 9.18993 209.559 9.01288C209.386 8.83583 209.15 8.73391 208.902 8.729Z" fill="#3F3D56"/>
<path d="M208.902 5.1792H196.397C196.149 5.1841 195.913 5.28603 195.74 5.46308C195.566 5.64013 195.469 5.87819 195.469 6.12614C195.469 6.37408 195.566 6.61215 195.74 6.7892C195.913 6.96625 196.149 7.06817 196.397 7.07307H208.902C209.15 7.06817 209.386 6.96625 209.559 6.7892C209.733 6.61215 209.83 6.37408 209.83 6.12614C209.83 5.87819 209.733 5.64013 209.559 5.46308C209.386 5.28603 209.15 5.1841 208.902 5.1792Z" fill="#3F3D56"/>
<path d="M208.902 1.62451H196.397C196.149 1.62945 195.913 1.73138 195.74 1.90843C195.566 2.08548 195.469 2.32352 195.469 2.57145C195.469 2.81938 195.566 3.05742 195.74 3.23447C195.913 3.41151 196.149 3.51345 196.397 3.51838H208.902C209.15 3.51345 209.386 3.41151 209.559 3.23447C209.733 3.05742 209.83 2.81938 209.83 2.57145C209.83 2.32352 209.733 2.08548 209.559 1.90843C209.386 1.73138 209.15 1.62945 208.902 1.62451Z" fill="#3F3D56"/>
<path d="M50.9412 10.7531C53.7555 10.7531 56.0369 8.42056 56.0369 5.54319C56.0369 2.66582 53.7555 0.333252 50.9412 0.333252C48.1269 0.333252 45.8455 2.66582 45.8455 5.54319C45.8455 8.42056 48.1269 10.7531 50.9412 10.7531Z" fill="#3F3D56"/>
<path d="M33.3379 10.7531C36.1522 10.7531 38.4337 8.42056 38.4337 5.54319C38.4337 2.66582 36.1522 0.333252 33.3379 0.333252C30.5236 0.333252 28.2422 2.66582 28.2422 5.54319C28.2422 8.42056 30.5236 10.7531 33.3379 10.7531Z" fill="#3F3D56"/>
<path d="M15.7344 10.7531C18.5487 10.7531 20.8302 8.42056 20.8302 5.54319C20.8302 2.66582 18.5487 0.333252 15.7344 0.333252C12.9201 0.333252 10.6387 2.66582 10.6387 5.54319C10.6387 8.42056 12.9201 10.7531 15.7344 10.7531Z" fill="#3F3D56"/>
</g>
<defs>
<clipPath id="clip0_932_13045">
<rect width="288" height="250" fill="white" transform="translate(0 0.333252)"/>
</clipPath>
</defs>
</svg>
