<svg width="20" height="21" viewBox="0 0 20 21" fill="none" xmlns="http://www.w3.org/2000/svg">
<path fill-rule="evenodd" clip-rule="evenodd" d="M8.16972 13.2104C8.69011 13.5632 9.32434 13.7765 9.99923 13.7765C11.7881 13.7765 13.2436 12.308 13.2436 10.503C13.2436 9.82208 13.0321 9.18215 12.6825 8.65708L11.7962 9.55134C11.9426 9.83029 12.0239 10.1585 12.0239 10.503C12.0239 11.627 11.1132 12.5459 9.99923 12.5459C9.65772 12.5459 9.33247 12.4638 9.05601 12.3162L8.16972 13.2104ZM15.3577 5.95789C16.5367 7.04085 17.5368 8.5012 18.2849 10.2569C18.3499 10.4128 18.3499 10.5933 18.2849 10.741C16.5448 14.8267 13.4468 17.2715 9.99923 17.2715H9.9911C8.42178 17.2715 6.91752 16.7547 5.59214 15.8112L4.0147 17.4028C3.89273 17.5259 3.73824 17.5833 3.58375 17.5833C3.42926 17.5833 3.26663 17.5259 3.1528 17.4028C2.94952 17.1977 2.91699 16.8695 3.07962 16.6316L3.10401 16.5988L15.13 4.46472C15.1462 4.44831 15.1625 4.4319 15.1706 4.41549C15.1869 4.39908 15.2032 4.38268 15.2113 4.36627L15.9756 3.59507C16.2196 3.35715 16.6017 3.35715 16.8375 3.59507C17.0815 3.83299 17.0815 4.22679 16.8375 4.46472L15.3577 5.95789ZM6.74896 10.5062C6.74896 10.7195 6.77336 10.9329 6.80588 11.1298L3.79735 14.1653C2.98424 13.2136 2.27683 12.065 1.71578 10.7442C1.65073 10.5965 1.65073 10.416 1.71578 10.2601C3.45585 6.1744 6.55381 3.73774 9.99329 3.73774H10.0014C11.1642 3.73774 12.2944 4.01668 13.3352 4.54176L10.6194 7.28197C10.4242 7.24915 10.2128 7.22454 10.0014 7.22454C8.20444 7.22454 6.74896 8.6931 6.74896 10.5062Z" fill="#212121"/>
</svg>
