<svg xmlns="http://www.w3.org/2000/svg" viewBox="0 0 24 30" x="0px" y="0px"><g><path d="M20.85,9.06l-8-4.44c-.53-.3-1.17-.3-1.7,0l-1.4,.78v-.39c0-.96-.79-1.75-1.75-1.75h-2c-.96,0-1.75,.79-1.75,1.75v3.45l-1.1,.61c-.56,.31-.9,.89-.9,1.53v9.41c0,.96,.79,1.75,1.75,1.75h4c.96,0,1.75-.79,1.75-1.75v-4c0-.14,.11-.25,.25-.25h4c.14,0,.25,.11,.25,.25v4c0,.96,.79,1.75,1.75,1.75h4c.96,0,1.75-.79,1.75-1.75V10.59c0-.64-.34-1.22-.9-1.53Zm-.6,10.94c0,.14-.11,.25-.25,.25h-4c-.14,0-.25-.11-.25-.25v-4c0-.96-.79-1.75-1.75-1.75h-4c-.96,0-1.75,.79-1.75,1.75v4c0,.14-.11,.25-.25,.25H4c-.14,0-.25-.11-.25-.25V10.59c0-.09,.05-.17,.13-.22l1.49-.83c.24-.13,.39-.38,.39-.66v-3.89c0-.14,.11-.25,.25-.25h2c.14,0,.25,.11,.25,.25v1.67c0,.27,.14,.51,.37,.65,.23,.13,.51,.14,.75,0l2.52-1.4c.07-.04,.16-.04,.24,0l8,4.44c.08,.04,.13,.13,.13,.22v9.41Z"/></g><text x="0" y="39" fill="#000000" font-size="5px" font-weight="bold" font-family="'Helvetica Neue', Helvetica, Arial-Unicode, Arial, Sans-serif">Created by Kreev Studio</text><text x="0" y="44" fill="#000000" font-size="5px" font-weight="bold" font-family="'Helvetica Neue', Helvetica, Arial-Unicode, Arial, Sans-serif">from the Noun Project</text></svg>