<svg xmlns="http://www.w3.org/2000/svg" width="21" height="21" viewBox="0 0 21 21">
  <path id="Path_334784" data-name="Path 334784" d="M12.507,2A10.5,10.5,0,0,1,12.5,23a10.421,10.421,0,0,1-2.255-.247.786.786,0,1,1,.341-1.536A8.927,8.927,0,1,0,12.506,3.572H12.5A8.929,8.929,0,0,0,4.583,16.628l.2.394a2.061,2.061,0,0,1,.141,1.557,17.974,17.974,0,0,0-.557,1.714c.59-.178,1.31-.439,1.831-.629l.214-.077a.786.786,0,0,1,.534,1.478l-.211.077-.036.013h0a24.539,24.539,0,0,1-2.527.818.812.812,0,0,1-.187.019,1.267,1.267,0,0,1-.939-.36A1.376,1.376,0,0,1,2.7,20.579a.8.8,0,0,1,.02-.154,18.389,18.389,0,0,1,.724-2.358.493.493,0,0,0-.052-.325l-.2-.393A10.5,10.5,0,0,1,12.5,2ZM6.624,12.5a1.248,1.248,0,1,1,1.248,1.248A1.249,1.249,0,0,1,6.624,12.5Zm7.12,0A1.248,1.248,0,1,0,12.5,13.747,1.25,1.25,0,0,0,13.744,12.5Zm3.375-1.249A1.249,1.249,0,1,1,15.87,12.5,1.25,1.25,0,0,1,17.119,11.25Z" transform="translate(-2 -2)" fill="#9e9e9e" fill-rule="evenodd"/>
</svg>
