<svg width="28" height="29" viewBox="0 0 28 29" fill="none" xmlns="http://www.w3.org/2000/svg">
<path d="M22.3413 9.83464C22.1377 9.48198 21.8454 9.18875 21.4934 8.98408C21.1413 8.77941 20.7419 8.67043 20.3347 8.66797H17.4997V6.33464C17.4997 6.02522 17.3768 5.72847 17.158 5.50968C16.9392 5.29089 16.6424 5.16797 16.333 5.16797H4.66634C4.0475 5.16797 3.45401 5.4138 3.01643 5.85139C2.57884 6.28897 2.33301 6.88246 2.33301 7.5013V19.168C2.33343 19.5771 2.44144 19.979 2.64621 20.3333C2.85098 20.6875 3.14531 20.9817 3.49967 21.1863C3.4579 22.2693 3.84805 23.3245 4.58429 24.1198C5.32052 24.9151 6.34254 25.3854 7.42551 25.4271C8.50847 25.4689 9.56368 25.0788 10.359 24.3425C11.1543 23.6063 11.6246 22.5843 11.6663 21.5013H15.283C15.412 22.4775 15.8914 23.3735 16.6318 24.0225C17.3723 24.6715 18.3234 25.0294 19.308 25.0294C20.2926 25.0294 21.2437 24.6715 21.9842 24.0225C22.7246 23.3735 23.204 22.4775 23.333 21.5013C23.9518 21.5013 24.5453 21.2555 24.9829 20.8179C25.4205 20.3803 25.6663 19.7868 25.6663 19.168V15.668C25.6645 15.4551 25.6083 15.2463 25.503 15.0613L22.3413 9.83464ZM17.4997 11.0013H20.3347L22.4347 14.5013H17.4997V11.0013ZM7.58301 22.668C7.23689 22.668 6.89855 22.5653 6.61076 22.373C6.32297 22.1807 6.09867 21.9074 5.96622 21.5877C5.83377 21.2679 5.79911 20.916 5.86663 20.5766C5.93416 20.2371 6.10083 19.9253 6.34557 19.6805C6.59031 19.4358 6.90213 19.2691 7.2416 19.2016C7.58107 19.1341 7.93293 19.1687 8.2527 19.3012C8.57247 19.4336 8.84579 19.6579 9.03808 19.9457C9.23037 20.2335 9.33301 20.5719 9.33301 20.918C9.33301 21.3821 9.14863 21.8272 8.82044 22.1554C8.49226 22.4836 8.04714 22.668 7.58301 22.668ZM19.2497 22.668C18.9036 22.668 18.5652 22.5653 18.2774 22.373C17.9896 22.1807 17.7653 21.9074 17.6329 21.5877C17.5004 21.2679 17.4658 20.916 17.5333 20.5766C17.6008 20.2371 17.7675 19.9253 18.0122 19.6805C18.257 19.4358 18.5688 19.2691 18.9083 19.2016C19.2477 19.1341 19.5996 19.1687 19.9194 19.3012C20.2391 19.4336 20.5125 19.6579 20.7047 19.9457C20.897 20.2335 20.9997 20.5719 20.9997 20.918C20.9997 21.3821 20.8153 21.8272 20.4871 22.1554C20.1589 22.4836 19.7138 22.668 19.2497 22.668Z" fill="#00BCD3"/>
</svg>
