<svg class="svg-icon" style="width: 1.1044921875em; height: 1em;vertical-align: middle;fill: currentColor;overflow: hidden;" viewBox="0 0 1131 1024" version="1.1" xmlns="http://www.w3.org/2000/svg"><path d="M749.136842 819.2c-18.863158 0-35.031579-16.168421-40.421053-18.863158l-153.6-91.621053c-5.389474-2.694737-8.084211-13.473684-5.389473-18.863157 2.694737-5.389474 13.473684-8.084211 18.863158-5.389474l153.6 94.315789c10.778947 8.084211 21.557895 13.473684 24.252631 13.473685 0 0 2.694737-2.694737 2.694737-10.778948 2.694737-48.505263 37.726316-431.157895 40.421053-447.326316 0-5.389474-2.694737-16.168421-5.389474-18.863157-2.694737 0-5.389474 0-10.778947 2.694736-37.726316 18.863158-433.852632 218.273684-452.71579 226.357895-8.084211 2.694737-16.168421 10.778947-16.168421 13.473684 0 2.694737 2.694737 8.084211 16.168421 16.168421C371.873684 603.621053 404.210526 619.789474 404.210526 619.789474c5.389474 2.694737 8.084211 10.778947 5.389474 18.863158-2.694737 5.389474-10.778947 8.084211-18.863158 5.389473 0 0-32.336842-16.168421-83.536842-45.810526-21.557895-10.778947-29.642105-24.252632-29.642105-40.421053 0-21.557895 26.947368-35.031579 29.642105-37.726315 2.694737-2.694737 414.989474-207.494737 450.021053-226.357895 18.863158-10.778947 29.642105-8.084211 37.726315-2.694737 18.863158 10.778947 18.863158 37.726316 18.863158 43.115789 0 5.389474-37.726316 401.515789-40.421052 447.326316 0 18.863158-8.084211 29.642105-18.863158 35.031579 0 0-2.694737 2.694737-5.389474 2.694737z"  /><path d="M466.189474 854.231579c-8.084211 0-13.473684-5.389474-13.473685-13.473684v-172.463158l2.694737-2.694737 323.368421-361.094737c5.389474-5.389474 13.473684-5.389474 18.863158 0 5.389474 5.389474 5.389474 13.473684 0 18.863158L479.663158 676.378947v164.378948c0 8.084211-8.084211 13.473684-13.473684 13.473684z"  /></svg>