<svg width="60" height="58" viewBox="0 0 60 58" fill="none" xmlns="http://www.w3.org/2000/svg">
<ellipse cx="30.7215" cy="29.2789" rx="22.7711" ry="22.7711" fill="url(#paint0_linear_1905_115948)"/>
<circle cx="57.4704" cy="9.03793" r="2.53012" fill="url(#paint1_linear_1905_115948)"/>
<ellipse cx="6.14364" cy="3.25301" rx="3.25301" ry="3.25301" fill="url(#paint2_linear_1905_115948)"/>
<circle cx="2.89341" cy="42.6528" r="1.44578" fill="url(#paint3_linear_1905_115948)"/>
<circle cx="52.7725" cy="51.3245" r="0.722892" fill="url(#paint4_linear_1905_115948)"/>
<path fill-rule="evenodd" clip-rule="evenodd" d="M24.5207 21.0898H27.1676C28.2719 21.0898 29.1568 21.9904 29.1568 23.0954V25.7651C29.1568 26.8772 28.2719 27.77 27.1676 27.77H24.5207C23.4243 27.77 22.5315 26.8772 22.5315 25.7651V23.0954C22.5315 21.9904 23.4243 21.0898 24.5207 21.0898ZM24.5207 30.0752H27.1676C28.2719 30.0752 29.1568 30.9687 29.1568 32.0808V34.7505C29.1568 35.8547 28.2719 36.7553 27.1676 36.7553H24.5207C23.4243 36.7553 22.5315 35.8547 22.5315 34.7505V32.0808C22.5315 30.9687 23.4243 30.0752 24.5207 30.0752ZM36.2051 21.0898H33.5581C32.4539 21.0898 31.569 21.9904 31.569 23.0954V25.7651C31.569 26.8772 32.4539 27.77 33.5581 27.77H36.2051C37.3015 27.77 38.1943 26.8772 38.1943 25.7651V23.0954C38.1943 21.9904 37.3015 21.0898 36.2051 21.0898ZM33.5581 30.0752H36.2051C37.3015 30.0752 38.1943 30.9687 38.1943 32.0808V34.7505C38.1943 35.8547 37.3015 36.7553 36.2051 36.7553H33.5581C32.4539 36.7553 31.569 35.8547 31.569 34.7505V32.0808C31.569 30.9687 32.4539 30.0752 33.5581 30.0752Z" fill="white"/>
<circle cx="33.9766" cy="1.44555" r="0.722892" fill="url(#paint5_linear_1905_115948)"/>
<circle cx="19.8803" cy="56.7484" r="1.08434" fill="url(#paint6_linear_1905_115948)"/>
<circle cx="39.3964" cy="55.3029" r="0.361446" fill="url(#paint7_linear_1905_115948)"/>
<circle cx="54.9416" cy="35.4221" r="0.722892" fill="url(#paint8_linear_1905_115948)"/>
<circle cx="0.361446" cy="24.2169" r="0.361446" fill="url(#paint9_linear_1905_115948)"/>
<defs>
<linearGradient id="paint0_linear_1905_115948" x1="53.4925" y1="52.05" x2="-0.698545" y2="36.3378" gradientUnits="userSpaceOnUse">
<stop stop-color="#FF4D67"/>
<stop offset="1" stop-color="#FF8A9B"/>
</linearGradient>
<linearGradient id="paint1_linear_1905_115948" x1="60.0005" y1="11.5681" x2="53.9793" y2="9.82225" gradientUnits="userSpaceOnUse">
<stop stop-color="#FF4D67"/>
<stop offset="1" stop-color="#FF8A9B"/>
</linearGradient>
<linearGradient id="paint2_linear_1905_115948" x1="9.39665" y1="6.50602" x2="1.65506" y2="4.26142" gradientUnits="userSpaceOnUse">
<stop stop-color="#FF4D67"/>
<stop offset="1" stop-color="#FF8A9B"/>
</linearGradient>
<linearGradient id="paint3_linear_1905_115948" x1="4.3392" y1="44.0986" x2="0.898494" y2="43.101" gradientUnits="userSpaceOnUse">
<stop stop-color="#FF4D67"/>
<stop offset="1" stop-color="#FF8A9B"/>
</linearGradient>
<linearGradient id="paint4_linear_1905_115948" x1="53.4954" y1="52.0473" x2="51.7751" y2="51.5485" gradientUnits="userSpaceOnUse">
<stop stop-color="#FF4D67"/>
<stop offset="1" stop-color="#FF8A9B"/>
</linearGradient>
<linearGradient id="paint5_linear_1905_115948" x1="34.6994" y1="2.16844" x2="32.9791" y2="1.66964" gradientUnits="userSpaceOnUse">
<stop stop-color="#FF4D67"/>
<stop offset="1" stop-color="#FF8A9B"/>
</linearGradient>
<linearGradient id="paint6_linear_1905_115948" x1="20.9646" y1="57.8327" x2="18.3841" y2="57.0845" gradientUnits="userSpaceOnUse">
<stop stop-color="#FF4D67"/>
<stop offset="1" stop-color="#FF8A9B"/>
</linearGradient>
<linearGradient id="paint7_linear_1905_115948" x1="39.7578" y1="55.6643" x2="38.8976" y2="55.4149" gradientUnits="userSpaceOnUse">
<stop stop-color="#FF4D67"/>
<stop offset="1" stop-color="#FF8A9B"/>
</linearGradient>
<linearGradient id="paint8_linear_1905_115948" x1="55.6645" y1="36.145" x2="53.9442" y2="35.6462" gradientUnits="userSpaceOnUse">
<stop stop-color="#FF4D67"/>
<stop offset="1" stop-color="#FF8A9B"/>
</linearGradient>
<linearGradient id="paint9_linear_1905_115948" x1="0.722892" y1="24.5784" x2="-0.137284" y2="24.329" gradientUnits="userSpaceOnUse">
<stop stop-color="#FF4D67"/>
<stop offset="1" stop-color="#FF8A9B"/>
</linearGradient>
</defs>
</svg>
