<svg width="29" height="28" viewBox="0 0 29 28" fill="none" xmlns="http://www.w3.org/2000/svg">
<path d="M27.0457 3.70694L27.1875 0.875H22.4717L22.445 2.68231C22.4691 2.71338 22.5036 2.7405 22.5321 2.76981L21.1373 4.74425C19.925 3.95587 18.7507 3.983 18.7507 3.983C18.7507 3.983 18.3741 2.51562 14.5 2.51562C11.6541 2.51562 9.43725 3.36438 7.87712 4.76525L6.46269 2.76281L6.46225 2.76194C6.49331 2.73525 6.52963 2.71031 6.555 2.68231L6.52831 0.875H1.8125L1.95425 3.70694L2.01331 3.70387L1.85756 8.29281C1.7845 9.36469 2.41887 10.2174 2.80344 10.6291C3.02306 10.864 3.32275 11.1239 3.61194 11.2805L3.43125 13.4501C3.40369 13.8464 3.51263 14.2017 3.73706 14.4546C3.94444 14.6886 4.23494 14.8212 4.57662 14.8391L4.58756 14.8396H4.5985C4.81418 14.8487 5.02927 14.8109 5.22894 14.7289V22.8336L5.23375 22.8305C4.22094 23.5869 3.92738 24.8841 3.92738 27.125H25.0726C25.0726 24.8889 24.7795 23.5922 23.7693 22.8349L23.7702 22.8353V14.7289C23.9434 14.7993 24.1333 14.8409 24.3337 14.8409C24.3569 14.8409 24.3796 14.8409 24.4028 14.8396H24.4033L24.4229 14.8391C24.7646 14.8212 25.0551 14.6886 25.2625 14.4546C25.4874 14.2017 25.5959 13.8464 25.5683 13.4562L25.3881 11.2805C25.6777 11.1239 25.9774 10.864 26.1966 10.6295C26.5811 10.2182 27.2155 9.36513 27.142 8.27838L26.9867 3.70694H27.0457V3.70694ZM17.0432 6.54587C17.0432 6.54587 19.2648 10.5941 21.4072 11.1309C21.4072 11.1309 22.4454 11.3186 22.4454 12.9242C22.4454 14.8571 21.0603 15.1913 21.0603 15.1913C21.0516 16.6451 20.0339 18.2486 18.7096 19.4911C17.3792 20.7397 15.7394 21.623 14.5004 21.623C13.2706 21.623 11.6291 20.7524 10.2895 19.5191C8.93587 18.2722 7.88937 16.6561 7.88937 15.1909C7.88937 15.1909 6.55544 14.8566 6.55544 12.9238C6.55544 11.3929 7.56125 11.1304 7.56125 11.1304C11.1667 11.1309 17.0432 6.54587 17.0432 6.54587V6.54587ZM4.66588 14.4034C4.64619 14.4034 4.62694 14.4034 4.60725 14.4021H4.5985C4.06431 14.3745 3.83463 13.9549 3.867 13.4864L4.04637 11.3264L4.04812 11.3269L4.22575 9.34456L3.87706 8.46956L3.65875 10.7962C3.08344 10.4042 2.21763 9.44387 2.29463 8.30812L2.45081 3.70694H2.53088C3.37219 3.70694 5.2775 3.63388 6.10569 3.01525L7.81719 5.43813C7.81894 5.44075 7.81981 5.44381 7.82156 5.446C7.9585 5.57331 8.04031 5.74831 8.0495 5.96138C8.083 6.78045 8.26658 7.58641 8.59112 8.33919C8.73025 8.66556 8.48525 9.23475 7.89331 9.23475C7.84956 9.23475 7.80406 9.23169 7.75638 9.22513C6.75931 9.08819 6.43775 7.74506 6.43775 7.74506L6.06106 7.40994L5.63275 13.6032C5.60169 14.0547 5.17469 14.4034 4.66588 14.4034V14.4034ZM24.6312 26.6875H4.36881C4.43269 23.0379 5.38775 22.3987 10.3026 22.2517L10.727 22.2394V20.4601C12.0251 21.462 13.4159 22.0605 14.5004 22.0605C15.5907 22.0605 16.9802 21.4554 18.2721 20.4431V22.2394L18.6965 22.2517C23.6122 22.3996 24.5673 23.0383 24.6312 26.6875ZM25.3412 10.7966L25.1229 8.47L24.7743 9.345L24.9519 11.3273L24.9527 11.3269L25.1321 13.4868C25.1645 13.9549 24.9348 14.3749 24.4006 14.4025H24.3919C24.3722 14.4038 24.3529 14.4038 24.3333 14.4038C23.8249 14.4038 23.3974 14.0551 23.3664 13.6032L22.9381 7.40994L22.5614 7.74506C22.5614 7.74506 22.2402 9.08775 21.2427 9.22513C21.1974 9.23166 21.1516 9.23488 21.1058 9.23475C20.5139 9.23475 20.2689 8.66556 20.408 8.33919C20.7326 7.58643 20.9162 6.78045 20.9496 5.96138C20.9588 5.74875 21.0411 5.57331 21.1776 5.446C21.1793 5.44381 21.1802 5.44075 21.1819 5.43813L22.8821 3.03144C22.9223 3.05375 22.9687 3.07256 23.0124 3.09313C23.8909 3.63913 25.665 3.70694 26.4682 3.70694H26.5483L26.7045 8.30856C26.7824 9.44387 25.9174 10.4042 25.3412 10.7966" fill="#F54336"/>
<path d="M15.7085 18.1046C14.8064 17.7633 14.5001 18.305 14.5001 18.305C14.5001 18.305 14.1939 17.7633 13.2922 18.1046C12.5874 18.371 11.4337 18.2135 11.4376 18.2144C13.2751 20.8258 15.7247 20.8258 17.5626 18.2144C17.567 18.2135 16.4129 18.371 15.7085 18.1046ZM15.7671 16.3437H13.2073C12.5668 16.3437 13.2073 17.2624 14.4874 17.2624C15.7671 17.262 16.4076 16.3437 15.7671 16.3437ZM13.3237 13.1766C13.377 13.0738 13.237 13.0274 13.0642 12.9102C11.9766 13.765 10.217 13.6858 9.23086 12.9106C9.05892 13.0278 8.91805 13.0738 8.97143 13.1766C10.0556 15.2237 12.2387 15.2228 13.3237 13.1766V13.1766ZM20.0288 13.1766C20.0822 13.0738 19.9422 13.0274 19.7694 12.9102C18.6817 13.765 16.9221 13.6858 15.936 12.9106C15.764 13.0278 15.6232 13.0738 15.6765 13.1766C16.7607 15.2237 18.9438 15.2228 20.0288 13.1766" fill="#F54336"/>
</svg>
