<svg xmlns="http://www.w3.org/2000/svg" version="1.1" viewBox="-5.0 -10.0 110.0 135.0">
 <g>
  <path d="m61.918 44.793h21.414c1.7266 0 3.125-1.4023 3.125-3.125 0-1.7266-1.3984-3.125-3.125-3.125h-21.414c-0.25391 0-0.46094-0.20703-0.46094-0.46094v-21.414c0-1.7266-1.3984-3.125-3.125-3.125-1.7227 0-3.125 1.3984-3.125 3.125v21.414c0 3.707 3.0039 6.7109 6.7109 6.7109z"/>
  <path d="m83.332 55.207h-21.414c-3.707 0-6.7109 3.0039-6.7109 6.7109v21.414c0 1.7266 1.4023 3.125 3.125 3.125 1.7266 0 3.125-1.3984 3.125-3.125v-21.414c0-0.25391 0.20703-0.46094 0.46094-0.46094h21.414c1.7266 0 3.125-1.3984 3.125-3.125 0-1.7227-1.3984-3.125-3.125-3.125z"/>
  <path d="m41.668 13.543c-1.7188 0.019531-3.1055 1.4062-3.125 3.125v21.414c0 0.12109-0.050781 0.23828-0.13672 0.32422s-0.20312 0.13672-0.32422 0.13672h-21.414c-1.7266 0-3.125 1.3984-3.125 3.125 0 1.7227 1.3984 3.125 3.125 3.125h21.414c1.7812 0 3.4883-0.70703 4.7461-1.9648s1.9648-2.9648 1.9648-4.7461v-21.414c-0.023438-1.7188-1.4102-3.1055-3.125-3.125z"/>
  <path d="m38.082 55.207h-21.414c-1.7266 0-3.125 1.4023-3.125 3.125 0 1.7266 1.3984 3.125 3.125 3.125h21.414c0.12109 0 0.23828 0.050781 0.32422 0.13672s0.13672 0.20312 0.13672 0.32422v21.414c0 1.7266 1.3984 3.125 3.125 3.125 1.7227 0 3.125-1.3984 3.125-3.125v-21.414c0-3.707-3.0039-6.7109-6.7109-6.7109z"/>
 </g>
<text x="0.0" y="117.5" font-size="5.0" font-weight="bold" font-family="Arbeit Regular, Helvetica, Arial-Unicode, Arial, Sans-serif" fill="#000000">Created by Dwi ridwanto</text><text x="0.0" y="122.5" font-size="5.0" font-weight="bold" font-family="Arbeit Regular, Helvetica, Arial-Unicode, Arial, Sans-serif" fill="#000000">from Noun Project</text></svg>