<svg width="29" height="28" viewBox="0 0 29 28" fill="none" xmlns="http://www.w3.org/2000/svg">
<path fill-rule="evenodd" clip-rule="evenodd" d="M2.8335 13.9987C2.8335 7.5587 8.0485 2.33203 14.5002 2.33203C20.9402 2.33203 26.1668 7.5587 26.1668 13.9987C26.1668 20.4387 20.9402 25.6654 14.5002 25.6654C8.0485 25.6654 2.8335 20.4387 2.8335 13.9987ZM9.2735 15.3987C8.5035 15.3987 7.8735 14.7687 7.8735 13.9987C7.8735 13.2287 8.5035 12.5999 9.2735 12.5999C10.0435 12.5999 10.6618 13.2287 10.6618 13.9987C10.6618 14.7687 10.0435 15.3987 9.2735 15.3987ZM13.1002 13.9987C13.1002 14.7687 13.7302 15.3987 14.5002 15.3987C15.2702 15.3987 15.8885 14.7687 15.8885 13.9987C15.8885 13.2287 15.2702 12.5999 14.5002 12.5999C13.7302 12.5999 13.1002 13.2287 13.1002 13.9987ZM18.3268 13.9987C18.3268 14.7687 18.9452 15.3987 19.7268 15.3987C20.4968 15.3987 21.1152 14.7687 21.1152 13.9987C21.1152 13.2287 20.4968 12.5999 19.7268 12.5999C18.9452 12.5999 18.3268 13.2287 18.3268 13.9987Z" fill="#7210FF"/>
</svg>
