<svg width="340" height="250" viewBox="0 0 340 250" fill="none" xmlns="http://www.w3.org/2000/svg">
<g clip-path="url(#clip0_1905_116919)">
<path opacity="0.1" d="M4.14844 119.859C9.50146 140.543 20.8239 158.422 38.7166 167.089C75.9134 185.101 159.802 175.811 222.411 165.148C254.797 159.633 283.264 144.412 303.942 122.993L4.14844 119.859Z" fill="#7210FF"/>
<path opacity="0.1" d="M332.467 22.4996H298.115C296.484 22.4996 295.147 21.2919 295.147 19.816C295.147 18.3402 296.484 17.1294 298.115 17.1294H304.056C302.423 17.1294 301.088 15.9216 301.088 14.4427C301.088 12.9638 302.423 11.7591 304.056 11.7591H299.816C298.182 11.7591 296.845 10.5513 296.845 9.07239C296.845 7.59348 298.182 6.38879 299.816 6.38879H317.745C313.767 4.71578 309.116 3.52649 303.757 2.90103C254.865 -2.77735 237.41 0.978454 231.253 4.83902C223.578 9.71093 215.052 13.0914 206.124 14.8032C175.96 20.4322 119.548 27.2044 68.4185 12.6464C43.0063 5.39669 24.1181 17.6316 12.7988 38.0836H338.433C338.008 32.1403 336.735 26.6498 334.399 21.8465C333.846 22.2735 333.166 22.5034 332.467 22.4996Z" fill="#7210FF"/>
<path opacity="0.1" d="M1.23636 76.6875C-0.0831087 88.7165 0.365418 100.874 2.56768 112.773L304.174 122.752C312.476 114.144 319.53 104.413 325.13 93.8459L1.23636 76.6875ZM120.525 102.43H114.587C116.22 102.43 117.557 103.641 117.557 105.116C117.557 106.592 116.22 107.8 114.587 107.8H80.2342C78.604 107.8 77.2665 106.592 77.2665 105.116C77.2665 103.641 78.604 102.43 80.2342 102.43H86.1759C84.5425 102.43 83.2081 101.222 83.2081 99.7461C83.2081 98.2703 84.5425 97.0594 86.1759 97.0594H81.9323C80.299 97.0594 78.9615 95.8517 78.9615 94.3758C78.9615 92.9 80.299 91.6892 81.9323 91.6892H116.285C117.918 91.6892 119.252 92.8969 119.252 94.3758C119.252 95.8548 117.918 97.0594 116.285 97.0594H120.525C122.159 97.0594 123.493 98.2672 123.493 99.7461C123.493 101.225 122.159 102.43 120.525 102.43Z" fill="#7210FF"/>
<path opacity="0.1" d="M338.446 38.2695L9.16553 45.51C5.15924 54.824 2.50276 65.3551 1.2793 76.2682H332.677C334.833 69.8834 336.434 63.324 337.459 56.6634C338.449 50.2518 338.843 44.0496 338.446 38.2695ZM68.135 62.0091H62.1965C63.8298 62.0091 65.1673 63.2199 65.1673 64.6958C65.1673 66.1716 63.8298 67.3824 62.1965 67.3824H27.8441C26.2138 67.3824 24.8763 66.1716 24.8763 64.6958C24.8763 63.2199 26.2138 62.0091 27.8441 62.0091H33.7857C32.1524 62.0091 30.818 60.8013 30.818 59.3255C30.818 57.8496 32.1524 56.6388 33.7857 56.6388H29.5421C27.9088 56.6388 26.5713 55.431 26.5713 53.9552C26.5713 52.4794 27.9088 51.2685 29.5421 51.2685H63.8945C65.5279 51.2685 66.8623 52.4763 66.8623 53.9552C66.8623 55.4341 65.5279 56.6388 63.8945 56.6388H68.135C69.7684 56.6388 71.1028 57.8496 71.1028 59.3255C71.1028 60.8013 69.7684 62.0091 68.135 62.0091Z" fill="#7210FF"/>
<path opacity="0.1" d="M168.481 240.655C244.557 240.655 306.23 234.983 306.23 227.986C306.23 220.989 244.557 215.316 168.481 215.316C92.4046 215.316 30.7324 220.989 30.7324 227.986C30.7324 234.983 92.4046 240.655 168.481 240.655Z" fill="#7210FF"/>
<path d="M308.873 123.34C308.872 123.319 308.872 123.297 308.873 123.275C308.873 123.242 308.873 123.211 308.873 123.18C308.811 122.827 308.678 122.491 308.482 122.191C307.777 121.062 306.794 120.133 305.628 119.492C303.594 118.377 300.799 117.899 299.985 115.77C299.736 115.111 299.73 114.393 299.606 113.703C299.391 112.627 298.896 111.628 298.172 110.804C297.447 109.98 296.519 109.362 295.48 109.01C294.512 108.687 293.468 108.597 292.528 108.197C290.426 107.303 289.316 105.1 288.376 103.064C287.16 100.435 285.944 97.8044 284.728 95.1732C283.803 95.6384 282.607 95.4197 281.741 94.8373C280.907 94.2162 280.242 93.395 279.809 92.4495C278.555 90.0155 278.016 87.2579 276.542 84.941C275.069 82.624 272.126 80.7939 269.525 81.8014C269.017 82.0551 268.492 82.2723 267.954 82.4515C265.725 82.9722 263.26 80.4272 261.352 81.6627C261.036 81.8659 260.777 82.1485 260.604 82.4823C260.602 82.4618 260.602 82.4412 260.604 82.4207C260.355 82.9218 260.217 83.4701 260.197 84.029C260.197 84.143 260.197 84.2539 260.197 84.3617C260.197 84.3802 260.197 84.3987 260.197 84.4172C260.197 84.8609 260.225 85.3107 260.231 85.7605C260.238 86.1383 260.209 86.5159 260.144 86.8882V86.8574C260.108 87.0669 260.055 87.2731 259.984 87.4736C259.488 88.8046 258.114 89.6766 257.469 90.9275V90.8658C257.397 91.0019 257.334 91.143 257.281 91.288C257.167 91.6159 257.108 91.9605 257.106 92.3078C257.05 94.6586 259.543 96.8708 259.833 99.3942C260.04 101.181 260.449 101.754 261.969 102.765L262.302 102.987C262.169 102.987 262.034 103.005 261.883 103.008C261.824 103.009 261.765 103.016 261.707 103.027C261.439 102.953 261.158 102.94 260.884 102.988C260.61 103.035 260.35 103.144 260.123 103.304C258.958 104.228 256.203 103.517 254.979 103.304C253.756 103.091 249.565 103.665 248.979 105.988C248.394 108.311 247.389 113.105 247.389 113.105C247.389 113.105 247.389 116.146 247.016 116.713C247.002 116.753 247.002 116.796 247.016 116.836C247.016 117.69 247.047 122.819 246.221 124.141C246.018 124.449 246.033 125.13 246.184 125.968C245.315 127.087 244.498 128.393 244.643 129.25C244.908 131.003 248.465 136.515 253.562 133.563C253.562 133.563 256.462 128.261 252.813 125.441L252.97 124.825C254.073 126.181 254.89 127.155 254.89 127.155C254.89 127.155 254.933 127.269 255.001 127.463H254.89C255.366 128.758 255.655 130.115 255.747 131.493C255.733 131.998 255.641 132.497 255.476 132.975H255.571C255.543 133.079 255.513 133.184 255.476 133.283C255.296 133.803 254.962 134.256 254.517 134.58C251.968 136.385 249.05 149.28 249.05 149.28C249.05 149.28 243.269 170.123 242.113 171.309C241.158 172.283 247.161 175.025 251.666 174.698C252.295 174.661 252.917 174.543 253.516 174.347C253.543 174.655 253.574 174.963 253.605 175.244C253.7 176.168 253.799 177.025 253.861 177.293C254.021 177.964 254.338 184.823 254.338 184.823C254.338 184.823 253.688 189.278 253.845 192.377C253.845 192.59 253.873 192.793 253.891 192.994L253.331 193.08C252.48 194.99 255.984 210.928 256.462 212.269C256.778 213.325 256.956 214.417 256.992 215.519C256.992 215.519 256.684 216.653 256.939 217.272C257.099 217.651 257.202 218.05 257.248 218.459C257.248 218.459 257.038 219.488 257.355 220.159C257.673 220.831 257.303 222.008 257.303 222.008C257.303 222.008 257.198 226.651 256.243 229.178C255.983 229.857 255.907 230.594 256.023 231.313C256.14 232.031 256.444 232.706 256.905 233.269C256.972 233.357 257.044 233.44 257.121 233.519C257.121 233.519 262.391 233.562 263.319 233.519H263.439C263.812 233.466 264.767 229.288 263.916 227.277C263.066 225.265 263.812 222.787 263.812 222.787V219.127C263.812 219.127 264.767 218.246 263.812 216.354C262.856 214.462 263.014 213.889 263.014 213.889C263.014 213.889 264.077 210.845 262.961 209.866C261.846 208.886 263.174 205.17 263.174 205.17L263.55 192.784C263.353 192.72 263.152 192.669 262.949 192.63C262.927 192.427 262.906 192.217 262.884 191.995C262.665 189.752 262.477 186.702 262.964 185.833C263.451 184.964 263.685 177.379 263.762 172.107L268.619 172.292C268.721 174.757 268.829 177.006 268.897 177.293C269.057 177.964 269.377 184.823 269.377 184.823C269.377 184.823 268.724 189.278 268.881 192.377C268.881 192.59 268.909 192.793 268.927 192.994L268.367 193.08C267.516 194.99 271.02 210.928 271.498 212.269C271.814 213.325 271.993 214.417 272.031 215.519C272.031 215.519 271.723 216.653 271.975 217.272C272.135 217.651 272.238 218.05 272.283 218.459C272.283 218.459 272.074 219.488 272.391 220.159C272.709 220.831 272.339 222.008 272.339 222.008C272.339 222.008 272.234 226.651 271.279 229.178C271.023 229.858 270.951 230.595 271.071 231.312C271.191 232.03 271.499 232.703 271.963 233.263C272.029 233.351 272.101 233.434 272.179 233.513C272.179 233.513 277.448 233.556 278.376 233.513H278.496C278.869 233.46 279.825 229.282 278.974 227.27C278.123 225.258 278.869 222.781 278.869 222.781V219.127C278.869 219.127 279.825 218.246 278.869 216.354C277.914 214.462 278.071 213.889 278.071 213.889C278.071 213.889 279.134 210.845 278.019 209.866C276.903 208.886 278.231 205.17 278.231 205.17L278.613 192.784C278.412 192.719 278.206 192.668 277.997 192.63C277.975 192.427 277.954 192.217 277.932 191.995C277.714 189.752 277.526 186.702 278.012 185.833C278.404 185.122 278.629 180.537 278.731 176.06C278.731 175.752 278.731 175.444 278.755 175.136C280.987 175.043 283.209 174.794 285.406 174.39C285.406 174.39 282.808 165.206 283.603 163.711C283.945 163.067 283.452 159.638 282.777 155.944C283.718 156.706 284.888 157.129 286.099 157.146C287.261 159.379 290.796 164.519 292.786 165.31C295.122 166.235 293.369 158.039 292.256 156.853C291.73 156.205 291.287 155.494 290.937 154.736C290.968 154.699 291.002 154.668 291.033 154.634C291.064 154.601 291.088 145.915 290.555 146.072C290.022 146.229 289.387 144.781 289.387 144.781L287.742 130.34L287.051 124.295C287.628 124.721 288.312 124.992 288.9 125.414C290.503 126.588 291.027 128.649 291.729 130.473C292.309 131.973 293.122 133.461 294.457 134.404C295.791 135.347 297.748 135.597 299.079 134.642C300.312 133.745 300.676 132.127 300.947 130.652C303.184 131.437 305.899 129.336 305.61 127.041C305.539 126.474 305.329 125.854 305.625 125.358C306.217 124.379 308.09 124.949 308.707 123.981C308.81 123.814 308.864 123.62 308.861 123.423C308.87 123.38 308.873 123.362 308.873 123.34ZM278.946 131.283C278.912 131.835 279.67 136.265 280.287 139.771C279.781 137.587 278.767 135.255 276.771 133.656C276.771 133.656 276.771 133.545 276.746 133.347H276.771C276.771 133.347 276.687 132.466 276.675 131.212C276.679 130.101 276.761 128.991 276.922 127.891V127.863H276.881C276.881 127.771 276.906 127.675 276.922 127.583C277.044 126.655 277.296 125.748 277.67 124.89C277.836 124.554 278.026 124.23 278.241 123.923C278.57 126.902 278.977 130.725 278.946 131.283ZM280.604 141.549C280.875 143.062 281.07 144.125 281.07 144.125L282.706 155.359V155.411C281.825 150.669 280.7 145.672 280.7 145.672C280.814 144.298 280.782 142.916 280.604 141.549Z" fill="url(#paint0_linear_1905_116919)"/>
<path d="M260.548 100.009C260.24 97.1626 257.158 94.707 258.083 91.9987C258.585 90.5229 260.157 89.6201 260.687 88.1536C261.038 87.1861 260.881 86.1231 260.884 85.0941C260.887 84.065 261.127 82.9158 261.984 82.3458C263.833 81.1133 266.212 83.649 268.369 83.1314C268.891 82.9531 269.399 82.7368 269.889 82.4844C272.407 81.4831 275.254 83.307 276.669 85.6117C278.083 87.9163 278.613 90.6646 279.827 93.0863C280.242 94.0215 280.884 94.8381 281.695 95.4618C282.533 96.0411 283.68 96.2598 284.586 95.7977L288.114 103.654C289.039 105.679 290.099 107.872 292.121 108.763C293.027 109.16 294.037 109.25 294.974 109.573C295.992 109.932 296.898 110.552 297.602 111.371C298.305 112.191 298.78 113.18 298.981 114.241C299.101 114.931 299.104 115.646 299.347 116.302C300.133 118.422 302.836 118.896 304.805 119.999C305.944 120.642 306.899 121.566 307.579 122.683C307.887 123.216 308.152 123.915 307.822 124.439C307.227 125.4 305.418 124.834 304.845 125.81C304.555 126.303 304.759 126.919 304.845 127.486C305.126 129.769 302.497 131.861 300.333 131.079C300.072 132.548 299.717 134.16 298.528 135.05C297.249 136.005 295.353 135.753 294.062 134.816C292.771 133.88 291.988 132.398 291.427 130.903C290.746 129.085 290.238 127.033 288.687 125.866C288.127 125.447 287.455 125.176 286.906 124.753C285.674 123.811 285.057 122.255 284.616 120.748C284.046 118.869 283.593 116.937 282.767 115.162C281.941 113.387 280.635 111.736 278.844 110.926C277.165 110.171 275.229 110.22 273.494 109.607C270.508 108.553 268.299 106.042 265.328 104.859C264.378 104.46 263.478 103.951 262.647 103.343C261.152 102.36 260.745 101.79 260.548 100.009Z" fill="#3F3D56"/>
<g opacity="0.1">
<path opacity="0.1" d="M260.826 87.5529C260.89 87.4324 260.945 87.3078 260.993 87.1801C261.341 86.2126 261.187 85.1496 261.19 84.1206C261.19 83.7774 261.222 83.4349 261.285 83.0977C261.001 83.7064 260.863 84.3732 260.882 85.0449C260.879 85.8737 260.977 86.7426 260.826 87.5529Z" fill="black"/>
<path opacity="0.1" d="M298.818 134.085C297.539 135.037 295.644 134.788 294.353 133.848C293.061 132.908 292.276 131.432 291.73 129.932C291.049 128.114 290.544 126.062 288.99 124.894C288.433 124.475 287.758 124.201 287.212 123.782C285.98 122.839 285.363 121.283 284.919 119.792C284.349 117.913 283.899 115.981 283.07 114.206C282.241 112.431 280.941 110.78 279.147 109.97C277.471 109.215 275.535 109.264 273.8 108.651C270.811 107.597 268.601 105.086 265.634 103.903C264.684 103.503 263.783 102.994 262.949 102.387C261.489 101.38 261.1 100.81 260.885 99.032C260.577 96.3638 257.865 94.0376 258.287 91.5234C258.218 91.6594 258.157 91.7994 258.105 91.9425C257.18 94.6538 260.262 97.1094 260.57 99.9532C260.771 101.731 261.187 102.301 262.635 103.308C263.469 103.915 264.369 104.424 265.319 104.824C268.287 106.007 270.497 108.522 273.486 109.572C275.221 110.188 277.156 110.136 278.833 110.891C280.626 111.701 281.915 113.356 282.756 115.127C283.597 116.899 284.047 118.825 284.605 120.713C285.058 122.205 285.653 123.761 286.898 124.703C287.456 125.122 288.131 125.397 288.676 125.816C290.217 126.983 290.735 129.035 291.416 130.853C291.977 132.347 292.762 133.826 294.054 134.763C295.345 135.7 297.24 135.952 298.519 135C299.336 134.384 299.752 133.444 300.026 132.437C299.782 133.087 299.364 133.657 298.818 134.085Z" fill="black"/>
<path opacity="0.1" d="M305.151 124.847C305.033 125.068 304.981 125.318 305.003 125.568C305.699 124.88 307.27 125.284 307.819 124.4C307.946 124.181 307.996 123.926 307.961 123.676C307.246 124.354 305.674 123.95 305.151 124.847Z" fill="black"/>
<path opacity="0.1" d="M300.624 130.115C300.565 130.423 300.507 130.752 300.433 131.073C302.319 131.661 304.497 130.149 304.806 128.238C304.057 129.708 302.208 130.691 300.624 130.115Z" fill="black"/>
</g>
<path d="M264.53 101.495C264.53 101.495 265.557 103.565 262.527 103.608C259.498 103.651 264.478 117.054 264.478 117.054L269.514 123.463L275.779 120.073L276.139 110.725L276.602 105.078C276.602 105.078 270.746 103.177 271.825 100.663C272.903 98.1486 264.53 101.495 264.53 101.495Z" fill="#FBBEBE"/>
<path d="M282.716 156.138C282.716 156.138 286.414 159.777 290.728 154.949L287.416 151.434H283.224L282.716 156.138Z" fill="#575A89"/>
<path opacity="0.1" d="M283.116 151.434L282.607 156.138C282.607 156.138 286.306 159.777 290.62 154.949" fill="black"/>
<path d="M289.338 152.074C289.338 152.074 290.827 155.978 291.906 157.158C292.984 158.338 294.679 166.503 292.42 165.578C290.161 164.654 285.847 157.774 285.588 156.594C285.329 155.414 285.23 152.074 285.23 152.074H289.338Z" fill="#FBBEBE"/>
<path d="M257.032 172.103L276.959 172.873L274.648 164.449L264.61 164.246L257.032 172.103Z" fill="#575A89"/>
<path opacity="0.1" d="M259.803 172.103L279.733 172.873L277.421 164.449L267.381 164.246L259.803 172.103Z" fill="black"/>
<path d="M263.553 186.005C263.082 186.883 263.263 189.921 263.476 192.167C263.612 193.597 263.76 194.696 263.76 194.696C263.76 194.696 256.311 197.007 255.183 195.005C254.896 194.496 254.755 193.606 254.705 192.561C254.551 189.48 255.183 185.04 255.183 185.04C255.183 185.04 254.875 178.213 254.721 177.544C254.659 177.276 254.564 176.426 254.471 175.505C254.335 174.137 254.206 172.615 254.206 172.615L264.376 167.223C264.376 167.223 264.376 168.233 264.357 169.789C264.302 174.676 264.139 184.926 263.553 186.005Z" fill="#FBBEBE"/>
<path opacity="0.1" d="M263.759 194.699C263.759 194.699 256.311 197.009 255.183 195.007C254.896 194.498 254.754 193.608 254.705 192.564C256.246 192.329 260.936 191.682 263.476 192.169C263.611 193.599 263.759 194.699 263.759 194.699Z" fill="black"/>
<path d="M264.016 233.518H263.898C263.002 233.551 257.904 233.518 257.904 233.518C257.83 233.439 257.76 233.357 257.695 233.271C257.244 232.707 256.947 232.037 256.831 231.324C256.715 230.612 256.784 229.882 257.032 229.204C257.957 226.687 258.059 222.065 258.059 222.065C258.059 222.065 258.419 220.885 258.111 220.217C257.803 219.548 258.006 218.522 258.006 218.522C257.959 218.116 257.855 217.719 257.698 217.342C257.442 216.726 257.75 215.595 257.75 215.595C257.715 214.499 257.542 213.412 257.236 212.36C256.773 211.026 253.383 195.158 254.206 193.257C254.206 193.257 261.396 192.025 264.12 192.949L263.76 205.273C263.76 205.273 262.475 208.971 263.553 209.947C264.632 210.924 263.606 213.953 263.606 213.953C263.606 213.953 263.452 214.517 264.376 216.418C265.301 218.319 264.376 219.191 264.376 219.191V222.835C264.376 222.835 263.658 225.3 264.478 227.303C265.298 229.306 264.376 233.453 264.016 233.518Z" fill="#3F3D56"/>
<path d="M278.126 186.006C277.655 186.884 277.837 189.922 278.049 192.168C278.185 193.598 278.333 194.697 278.333 194.697C278.333 194.697 270.884 197.008 269.756 195.006C269.47 194.497 269.328 193.607 269.279 192.562C269.124 189.481 269.756 185.041 269.756 185.041C269.756 185.041 269.448 178.214 269.294 177.545C269.211 177.185 269.066 173.746 268.952 170.662C268.856 168.031 268.779 165.652 268.779 165.652L278.949 167.224C278.949 167.224 278.949 171.694 278.823 176.288C278.712 180.743 278.505 185.309 278.126 186.006Z" fill="#FBBEBE"/>
<path opacity="0.1" d="M278.334 194.699C278.334 194.699 270.885 197.009 269.757 195.007C269.47 194.498 269.329 193.608 269.279 192.564C270.82 192.329 275.511 191.682 278.05 192.169C278.186 193.599 278.334 194.699 278.334 194.699Z" fill="black"/>
<path d="M278.589 233.518H278.472C277.575 233.552 272.478 233.518 272.478 233.518C272.404 233.44 272.334 233.358 272.269 233.272C271.818 232.708 271.521 232.037 271.404 231.325C271.288 230.613 271.358 229.882 271.606 229.205C272.531 226.675 272.623 222.053 272.623 222.053C272.623 222.053 272.984 220.873 272.675 220.205C272.367 219.536 272.571 218.51 272.571 218.51C272.523 218.105 272.42 217.707 272.262 217.33C272.007 216.714 272.315 215.583 272.315 215.583C272.28 214.488 272.107 213.401 271.8 212.348C271.338 211.014 267.948 195.147 268.771 193.246C268.771 193.246 275.961 192.013 278.685 192.938L278.324 205.262C278.324 205.262 277.039 208.959 278.118 209.936C279.196 210.912 278.17 213.941 278.17 213.941C278.17 213.941 278.016 214.505 278.941 216.406C279.865 218.307 278.941 219.179 278.941 219.179V222.824C278.941 222.824 278.223 225.289 279.042 227.291C279.862 229.294 278.95 233.453 278.589 233.518Z" fill="#3F3D56"/>
<path opacity="0.1" d="M268.536 103.915C272.536 103.915 275.778 100.673 275.778 96.6741C275.778 92.6753 272.536 89.4336 268.536 89.4336C264.536 89.4336 261.294 92.6753 261.294 96.6741C261.294 100.673 264.536 103.915 268.536 103.915Z" fill="black"/>
<path d="M268.536 103.606C272.536 103.606 275.778 100.364 275.778 96.3655C275.778 92.3667 272.536 89.125 268.536 89.125C264.536 89.125 261.294 92.3667 261.294 96.3655C261.294 100.364 264.536 103.606 268.536 103.606Z" fill="#FBBEBE"/>
<path opacity="0.1" d="M254.206 172.615L264.376 167.223C264.376 167.223 264.376 168.233 264.357 169.789C262.872 170.677 260.632 172.011 258.477 173.271C257.306 173.958 256.163 174.623 255.183 175.181C254.955 175.305 254.717 175.408 254.471 175.489C254.335 174.137 254.206 172.615 254.206 172.615Z" fill="black"/>
<path opacity="0.1" d="M278.949 167.212C278.949 167.212 278.949 171.683 278.823 176.276H278.786C278.026 176.303 277.265 176.28 276.509 176.206C275.18 176.064 274.117 175.713 273.735 175.016C272.962 173.661 270.795 171.935 268.965 170.65C268.869 168.019 268.792 165.641 268.792 165.641L278.949 167.212Z" fill="black"/>
<path d="M277.058 128.056C276.8 130.062 276.75 132.089 276.91 134.105C281.582 137.956 280.709 146.068 280.709 146.068C280.709 146.068 284.306 162.503 283.535 163.991C282.765 165.479 285.28 174.62 285.28 174.62C283.136 175.027 280.966 175.276 278.786 175.366C278.027 175.393 277.266 175.369 276.509 175.295C275.181 175.153 274.118 174.802 273.735 174.106C272.299 171.592 266.083 167.842 266.083 167.842C266.083 167.842 262.145 170.202 258.478 172.35C257.307 173.037 256.163 173.702 255.183 174.26C254.388 174.682 253.509 174.923 252.61 174.966C248.249 175.289 242.44 172.559 243.365 171.592C244.496 170.409 250.095 149.664 250.095 149.664C250.095 149.664 252.918 136.825 255.384 135.029C255.816 134.702 256.138 134.252 256.308 133.738C257.152 131.393 255.741 127.634 255.741 127.634C255.741 127.634 247.781 117.827 248.138 117.26C248.496 116.694 248.499 113.668 248.499 113.668C248.499 113.668 249.476 108.892 250.04 106.581C250.604 104.271 254.662 103.704 255.843 103.91C257.023 104.117 259.692 104.835 260.82 103.91C261.948 102.986 263.852 104.271 263.852 104.271L268.53 105.559L272.737 103.094C272.737 103.094 276.953 103.309 277.313 103.873C277.674 104.437 283.221 105.519 283.221 105.519C286.044 107.416 285.942 116.456 285.942 116.456C285.942 116.456 279.162 122.36 277.776 125.391C277.416 126.243 277.175 127.14 277.058 128.056Z" fill="#575A89"/>
<path d="M284.407 115.203L285.948 116.436L287.542 130.762L289.132 145.142C289.132 145.142 289.748 146.581 290.263 146.427C290.777 146.272 290.725 154.949 290.725 154.949C290.725 154.949 284.827 151.322 282.712 156.138L281.067 144.526C281.067 144.526 278.959 132.663 279.011 131.739C279.064 130.815 277.933 120.801 277.933 120.801L284.407 115.203Z" fill="#575A89"/>
<path d="M249.275 115.871L248.144 117.258C248.144 117.258 248.249 123.213 247.374 124.652C246.498 126.091 249.79 134.511 251.022 133.997C252.255 133.482 255.029 120.339 255.029 120.185C255.029 120.031 249.275 115.871 249.275 115.871Z" fill="#575A89"/>
<path d="M249.174 124.344C249.174 124.344 245.578 127.989 245.833 129.736C246.089 131.483 249.531 136.97 254.462 134.021C254.462 134.021 259.036 125.422 249.174 124.344Z" fill="#575A89"/>
<path opacity="0.1" d="M263.898 233.529C263.001 233.563 257.904 233.529 257.904 233.529C257.829 233.451 257.759 233.369 257.694 233.283C258.998 232.839 261.815 232.174 263.898 233.529Z" fill="black"/>
<path opacity="0.1" d="M278.478 233.529C277.581 233.563 272.484 233.529 272.484 233.529C272.409 233.451 272.339 233.369 272.274 233.283C273.572 232.839 276.389 232.174 278.478 233.529Z" fill="black"/>
<path opacity="0.1" d="M258.841 143.215C258.055 150.751 258.314 165.707 258.477 172.349C257.306 173.036 256.163 173.702 255.183 174.26C254.387 174.681 253.509 174.922 252.61 174.965C252.283 172.956 256.807 152.322 258.841 143.215Z" fill="black"/>
<path opacity="0.1" d="M259.802 138.938C259.781 139.045 259.408 140.684 258.841 143.214C259.063 141.054 259.371 139.504 259.802 138.938Z" fill="black"/>
<path opacity="0.1" d="M272.314 138.125C272.314 138.125 276.681 165.546 263.75 168.936C263.747 168.923 272.696 167.564 272.314 138.125Z" fill="black"/>
<path opacity="0.1" d="M278.786 175.365C278.027 175.392 277.266 175.368 276.509 175.294L273.021 137.801C275.246 139.255 277.908 165.863 278.786 175.365Z" fill="black"/>
<path opacity="0.1" d="M263.144 92.1075C263.375 92.0891 263.608 92.1131 263.831 92.1784C264.158 92.3413 264.452 92.5627 264.7 92.8315C265.102 93.1673 265.582 93.3957 266.096 93.4954C266.611 93.5951 267.142 93.5628 267.64 93.4015C267.991 93.2445 268.364 93.1406 268.746 93.0934C269.335 93.0934 269.843 93.5248 270.148 94.0177C270.454 94.5107 270.611 95.0961 270.873 95.623C271.135 96.1498 271.554 96.649 272.13 96.7784C272.406 96.7891 272.678 96.8518 272.931 96.9632C273.086 97.0892 273.206 97.254 273.276 97.4408C273.757 98.4791 274.139 99.7054 275.166 100.214C275.543 100.389 275.955 100.478 276.371 100.476C276.794 100.507 277.218 100.43 277.603 100.254C277.983 100.042 278.296 99.7296 278.509 99.3511C279.15 98.2912 279.224 96.9786 279.073 95.7493C278.885 94.1985 278.333 92.7141 277.462 91.4173C276.544 90.1058 275.294 89.0613 273.84 88.3907C272.386 87.72 270.781 87.4471 269.187 87.5999C268.631 87.6625 268.08 87.7654 267.538 87.908C265.578 88.4318 263.655 89.4116 262.466 91.0538C262.178 91.4637 261.862 91.8529 261.52 92.2184C262.059 92.166 262.601 92.1198 263.144 92.1075Z" fill="black"/>
<path d="M263.144 91.7989C263.375 91.7805 263.608 91.8045 263.831 91.8698C264.158 92.0327 264.452 92.2541 264.7 92.5229C265.102 92.8587 265.582 93.0871 266.096 93.1868C266.611 93.2865 267.142 93.2542 267.64 93.0929C267.991 92.9359 268.364 92.8321 268.746 92.7848C269.335 92.7848 269.843 93.2162 270.148 93.7092C270.454 94.2021 270.611 94.7875 270.873 95.3144C271.135 95.8412 271.554 96.3404 272.13 96.4698C272.406 96.4805 272.678 96.5432 272.931 96.6546C273.086 96.7806 273.206 96.9454 273.276 97.1322C273.757 98.1705 274.139 99.3968 275.166 99.9052C275.543 100.08 275.955 100.169 276.371 100.167C276.794 100.198 277.218 100.122 277.603 99.9452C277.983 99.7334 278.296 99.421 278.509 99.0425C279.15 97.9826 279.224 96.67 279.073 95.4407C278.885 93.8899 278.333 92.4055 277.462 91.1087C276.544 89.7972 275.294 88.7527 273.84 88.0821C272.386 87.4114 270.781 87.1385 269.187 87.2913C268.631 87.3539 268.08 87.4568 267.538 87.5994C265.578 88.1232 263.655 89.103 262.466 90.7452C262.178 91.1551 261.862 91.5443 261.52 91.9098C262.059 91.8574 262.601 91.8112 263.144 91.7989Z" fill="#3F3D56"/>
<path opacity="0.1" d="M255.284 109.043C255.284 109.043 255.645 111.921 254.412 112.639C253.18 113.356 255.284 109.043 255.284 109.043Z" fill="black"/>
<path opacity="0.1" d="M281.428 131.33C281.428 131.33 284.355 127.016 284.768 128.249C285.18 129.481 281.428 131.33 281.428 131.33Z" fill="black"/>
<path opacity="0.1" d="M281.634 132.768C281.634 132.768 284.521 129.224 284.798 130.611C285.075 131.997 281.634 132.768 281.634 132.768Z" fill="black"/>
<path opacity="0.1" d="M273.153 128.549C272.106 128.564 271.084 128.228 270.25 127.594H269.997C269.132 128.384 267.997 128.811 266.826 128.786C266.217 128.8 265.612 128.691 265.047 128.464C264.481 128.237 263.968 127.898 263.538 127.468H263.202C262.315 128.19 261.2 128.575 260.056 128.554C258.912 128.533 257.812 128.108 256.952 127.354L255.747 127.332C255.747 127.332 257.159 131.091 256.314 133.436L276.91 133.802C276.75 131.787 276.8 129.76 277.057 127.754V127.726L275.926 127.705C275.113 128.269 274.143 128.564 273.153 128.549Z" fill="black"/>
<path opacity="0.1" d="M273.153 129.162C272.106 129.177 271.084 128.841 270.25 128.207H269.997C269.132 128.997 267.997 129.424 266.826 129.4C266.217 129.414 265.612 129.304 265.047 129.077C264.481 128.851 263.968 128.512 263.538 128.081H263.202C262.315 128.803 261.2 129.188 260.056 129.167C258.912 129.147 257.812 128.721 256.952 127.967L255.747 127.945C255.747 127.945 257.159 131.704 256.314 134.049L276.91 134.416C276.75 132.4 276.8 130.373 277.057 128.367V128.34L275.926 128.318C275.113 128.882 274.143 129.177 273.153 129.162Z" fill="black"/>
<path d="M273.153 128.858C272.106 128.872 271.084 128.536 270.25 127.903H269.997C269.132 128.692 267.997 129.119 266.826 129.095C266.217 129.109 265.612 128.999 265.047 128.773C264.481 128.546 263.968 128.207 263.538 127.776H263.202C262.315 128.499 261.2 128.884 260.056 128.863C258.912 128.842 257.812 128.417 256.952 127.662L255.747 127.641C255.747 127.641 257.159 131.4 256.314 133.744L276.91 134.111C276.75 132.095 276.8 130.068 277.057 128.063V128.035L275.926 128.013C275.113 128.578 274.143 128.873 273.153 128.858Z" fill="#3F3D56"/>
<path opacity="0.1" d="M272.237 108.312C272.237 108.312 276.572 108.59 276.6 109.206C276.628 109.822 272.237 108.312 272.237 108.312Z" fill="black"/>
<path opacity="0.1" d="M261.703 105.684C261.703 105.684 257.368 105.961 257.34 106.577C257.312 107.193 261.703 105.684 261.703 105.684Z" fill="black"/>
<path opacity="0.1" d="M278.275 118.282C278.232 118.252 278.189 118.227 278.145 118.199C279.255 119.197 279.07 121.379 277.708 123.178C276.346 124.978 274.278 125.726 273.021 124.919C273.061 124.953 273.094 124.99 273.138 125.024C274.37 125.967 276.528 125.227 277.951 123.366C279.375 121.505 279.514 119.228 278.275 118.282Z" fill="black"/>
<path opacity="0.1" d="M254.456 122.948C253.359 120.97 253.5 118.786 254.742 117.957C254.696 117.979 254.647 117.997 254.601 118.022C253.239 118.78 253.06 121.05 254.188 123.096C255.316 125.142 257.35 126.177 258.712 125.432C258.757 125.406 258.8 125.377 258.841 125.345C257.482 125.962 255.553 124.926 254.456 122.948Z" fill="black"/>
<path opacity="0.1" d="M255.922 106.266L255.524 106.882L254.511 106.343L255.044 105.523C255.396 105.69 255.699 105.946 255.922 106.266Z" fill="black"/>
<path d="M249.481 129.07C249.481 129.07 250.384 124.825 249.173 123.475C247.962 122.126 248.35 115.052 250.199 115.206C252.048 115.36 254.822 120.955 254.36 122.138C253.897 123.321 252.15 129.378 252.15 129.378L249.481 129.07Z" fill="#FBBEBE"/>
<path opacity="0.1" d="M278.478 98.4354C278.265 98.814 277.951 99.1263 277.572 99.3382C277.186 99.5147 276.762 99.591 276.339 99.56C275.923 99.5624 275.512 99.473 275.134 99.2981C274.108 98.7866 273.726 97.5604 273.245 96.5251C273.184 96.3384 273.076 96.1707 272.931 96.0383C272.681 95.9249 272.413 95.859 272.139 95.8442C271.563 95.7148 271.146 95.2126 270.881 94.6888C270.616 94.1651 270.459 93.5858 270.157 93.0836C269.855 92.5814 269.344 92.1408 268.755 92.1593C268.372 92.2101 267.999 92.3192 267.649 92.4828C267.15 92.6428 266.619 92.6741 266.105 92.5739C265.591 92.4738 265.111 92.2453 264.709 91.9097C264.461 91.6409 264.167 91.4195 263.84 91.2566C263.617 91.1913 263.384 91.1673 263.152 91.1857C262.798 91.1857 262.447 91.2196 262.092 91.2473C261.917 91.4775 261.728 91.6976 261.528 91.9066C262.068 91.8604 262.61 91.8142 263.152 91.8019C263.384 91.7835 263.617 91.8075 263.84 91.8728C264.167 92.0357 264.461 92.2571 264.709 92.5259C265.111 92.8615 265.591 93.09 266.105 93.1902C266.619 93.2903 267.15 93.259 267.649 93.099C267.999 92.9354 268.372 92.8263 268.755 92.7755C269.344 92.7755 269.852 93.2069 270.157 93.6998C270.462 94.1928 270.62 94.7782 270.881 95.3051C271.143 95.8319 271.563 96.331 272.139 96.4605C272.413 96.4753 272.681 96.5411 272.931 96.6546C273.086 96.7806 273.205 96.9453 273.276 97.1321C273.757 98.1704 274.139 99.3967 275.165 99.9051C275.543 100.08 275.954 100.169 276.37 100.167C276.793 100.198 277.217 100.122 277.603 99.9451C277.982 99.7333 278.296 99.4209 278.509 99.0424C278.987 98.1715 279.201 97.18 279.125 96.1893C279.102 96.9805 278.879 97.753 278.478 98.4354Z" fill="black"/>
<path d="M250.847 132.435C252.379 132.435 253.62 131.593 253.62 130.555C253.62 129.517 252.379 128.676 250.847 128.676C249.315 128.676 248.073 129.517 248.073 130.555C248.073 131.593 249.315 132.435 250.847 132.435Z" fill="#575A89"/>
<path d="M160.441 235.175C212.948 235.175 255.513 192.62 255.513 140.125C255.513 87.6298 212.948 45.0742 160.441 45.0742C107.934 45.0742 65.3682 87.6298 65.3682 140.125C65.3682 192.62 107.934 235.175 160.441 235.175Z" fill="#7210FF"/>
<path d="M210.325 187.889C210.325 202.894 186.731 189.171 161.436 189.171C136.14 189.171 110.556 202.327 110.556 187.322C110.556 178.766 118.71 166.867 130.408 158.225C139.222 151.712 150.045 147.047 160.918 147.047C172.098 147.047 183.051 152.097 191.788 159.029C202.814 167.77 210.325 179.515 210.325 187.889Z" fill="#444053"/>
<path d="M191.785 159.021C178.339 156.997 154.021 154.529 130.408 158.217C139.222 151.704 150.045 147.039 160.918 147.039C172.095 147.039 183.048 152.089 191.785 159.021Z" fill="#F6F8FB"/>
<path opacity="0.05" d="M110.555 73.0273C110.555 73.0273 81.9166 91.3319 82.1508 119.964C82.3851 148.596 110.555 73.0273 110.555 73.0273Z" fill="black"/>
<path d="M255.476 21.3305C255.476 21.3305 229.528 19.7684 232.588 37.9466C232.588 37.9466 231.971 41.1571 234.893 42.6175C234.893 42.6175 234.939 41.2711 237.552 41.7271C238.484 41.8828 239.43 41.9284 240.372 41.8626C241.645 41.7761 242.855 41.2763 243.818 40.4392C243.818 40.4392 251.112 37.429 253.951 25.5084C253.951 25.5084 256.049 22.908 255.966 22.2425L251.587 24.1096C251.587 24.1096 253.081 27.2677 251.895 29.8927C251.895 29.8927 251.753 24.2267 250.912 24.3468C250.742 24.3746 248.638 25.4406 248.638 25.4406C248.638 25.4406 251.211 30.9434 249.254 34.9395C249.254 34.9395 249.99 28.1612 247.818 25.8381L244.736 27.6374C244.736 27.6374 247.744 33.3189 245.704 37.9559C245.704 37.9559 246.228 30.8448 244.089 28.0749L241.294 30.2532C241.294 30.2532 244.12 35.8546 242.397 39.6997C242.397 39.6997 242.172 31.4209 240.69 30.7955C240.69 30.7955 238.246 32.9522 237.873 33.8365C237.873 33.8365 239.808 37.9004 238.61 40.0448C238.61 40.0448 237.873 34.5297 237.269 34.4989C237.269 34.4989 234.834 38.153 234.579 40.661C234.579 40.661 234.686 36.9329 236.677 34.1508C236.677 34.1508 234.323 34.5544 232.951 36.0826C232.951 36.0826 233.33 33.4976 237.266 33.2727C237.266 33.2727 239.278 30.4997 239.818 30.3333C239.818 30.3333 235.888 30.0037 233.506 31.0605C233.506 31.0605 235.602 28.6233 240.536 29.7294L243.309 27.4803C243.309 27.4803 238.138 26.7716 235.944 27.5542C235.944 27.5542 238.468 25.3975 244.052 26.9688L247.057 25.1726C247.057 25.1726 242.647 24.2236 240.018 24.5563C240.018 24.5563 242.791 23.062 247.935 24.6827L250.092 23.7183C250.092 23.7183 246.859 23.0836 245.913 22.985C244.967 22.8864 244.918 22.6214 244.918 22.6214C246.971 22.2877 249.076 22.532 250.998 23.327C250.998 23.327 255.553 21.617 255.476 21.3305Z" fill="#7210FF"/>
<path d="M228.862 13.2497C228.862 13.2497 217.151 12.5411 218.519 20.7552C218.519 20.7552 218.245 22.2064 219.561 22.8657C219.561 22.8657 219.58 22.2495 220.763 22.4652C221.183 22.5343 221.61 22.555 222.036 22.5268C222.611 22.4857 223.158 22.2599 223.595 21.8828C223.595 21.8828 226.889 20.521 228.171 15.1353C228.171 15.1353 229.121 13.9614 229.096 13.6595L227.118 14.5037C227.118 14.5037 227.796 15.9302 227.262 17.1164C227.262 17.1164 227.198 14.5561 226.819 14.6177C226.742 14.6177 225.789 15.1107 225.789 15.1107C225.789 15.1107 226.954 17.5971 226.076 19.4026C226.076 19.4026 226.409 16.34 225.429 15.2894L224.036 16.1028C224.036 16.1028 225.395 18.6724 224.473 20.7675C224.473 20.7675 224.708 17.554 223.743 16.303L222.479 17.2859C222.479 17.2859 223.755 19.8155 222.979 21.5532C222.979 21.5532 222.877 17.8128 222.205 17.5293C222.205 17.5293 221.102 18.5029 220.932 18.9035C220.932 18.9035 221.808 20.7521 221.265 21.7103C221.265 21.7103 220.932 19.2177 220.649 19.2085C220.649 19.2085 219.549 20.8568 219.435 21.9814C219.488 20.9349 219.814 19.9204 220.381 19.039C219.747 19.159 219.162 19.4621 218.698 19.911C218.698 19.911 218.868 18.7432 220.652 18.6416C220.652 18.6416 221.561 17.3907 221.805 17.3136C221.805 17.3136 220.029 17.1657 218.954 17.6433C218.954 17.6433 219.9 16.5403 222.131 17.0271L223.364 16.0134C223.364 16.0134 221.028 15.7053 220.036 16.0442C220.036 16.0442 221.176 15.0706 223.7 15.7823L225.056 14.969C225.056 14.969 223.065 14.5407 221.875 14.6947C221.875 14.6947 223.13 14.02 225.453 14.7533L226.424 14.3158C226.424 14.3158 224.963 14.0292 224.538 13.9861C224.113 13.943 224.085 13.8228 224.085 13.8228C225.01 13.6689 225.96 13.7756 226.828 14.1309C226.828 14.1309 228.896 13.3791 228.862 13.2497Z" fill="#7210FF"/>
<path opacity="0.1" d="M331.201 224.921C335.784 224.921 339.5 224.293 339.5 223.519C339.5 222.745 335.784 222.117 331.201 222.117C326.617 222.117 322.901 222.745 322.901 223.519C322.901 224.293 326.617 224.921 331.201 224.921Z" fill="#7210FF"/>
<path opacity="0.1" d="M14.9134 248.241C19.497 248.241 23.2126 247.614 23.2126 246.839C23.2126 246.065 19.497 245.438 14.9134 245.438C10.3299 245.438 6.61426 246.065 6.61426 246.839C6.61426 247.614 10.3299 248.241 14.9134 248.241Z" fill="#7210FF"/>
<path opacity="0.1" d="M63.0902 249.999C67.6737 249.999 71.3894 249.371 71.3894 248.597C71.3894 247.823 67.6737 247.195 63.0902 247.195C58.5067 247.195 54.791 247.823 54.791 248.597C54.791 249.371 58.5067 249.999 63.0902 249.999Z" fill="#7210FF"/>
<path d="M313.037 240.636C319.881 240.636 325.429 239.698 325.429 238.54C325.429 237.383 319.881 236.445 313.037 236.445C306.193 236.445 300.646 237.383 300.646 238.54C300.646 239.698 306.193 240.636 313.037 240.636Z" fill="#7210FF"/>
<path d="M318.159 235.117C318.724 234.655 319.137 234.033 319.342 233.333C319.493 232.627 319.191 231.777 318.516 231.518C317.758 231.228 316.947 231.755 316.334 232.285C315.721 232.815 315.015 233.419 314.211 233.308C314.624 232.934 314.934 232.458 315.109 231.928C315.284 231.399 315.318 230.833 315.209 230.286C315.174 230.059 315.078 229.846 314.932 229.669C314.51 229.219 313.749 229.411 313.243 229.765C311.641 230.893 311.194 233.068 311.184 235.027C311.024 234.322 311.16 233.585 311.157 232.871C311.154 232.156 310.953 231.33 310.343 230.951C309.965 230.749 309.54 230.649 309.11 230.661C308.389 230.634 307.588 230.705 307.095 231.231C306.479 231.888 306.642 232.985 307.175 233.696C307.708 234.408 308.516 234.87 309.258 235.366C309.856 235.721 310.366 236.207 310.75 236.787C310.795 236.868 310.832 236.954 310.861 237.042H315.376C316.386 236.529 317.322 235.881 318.159 235.117Z" fill="#7210FF"/>
<path d="M18.7868 209.285C18.7868 209.285 20.4787 211.497 18.0041 214.831C15.5294 218.165 13.4893 220.993 14.3059 223.076C14.3059 223.076 18.038 216.871 21.0858 216.781C24.1337 216.692 22.1275 213.016 18.7868 209.285Z" fill="#7210FF"/>
<path opacity="0.1" d="M18.7867 209.285C18.9337 209.499 19.0498 209.732 19.1319 209.978C22.0966 213.46 23.6744 216.71 20.8269 216.791C18.1704 216.868 14.9715 221.612 14.2227 222.811C14.2488 222.904 14.2797 222.995 14.3151 223.085C14.3151 223.085 18.0471 216.88 21.095 216.791C24.1428 216.701 22.1274 213.016 18.7867 209.285Z" fill="black"/>
<path d="M21.9333 212.102C21.9333 212.882 21.8439 213.513 21.7361 213.513C21.6283 213.513 21.542 212.897 21.542 212.102C21.542 211.307 21.6498 211.689 21.7607 211.689C21.8717 211.689 21.9333 211.323 21.9333 212.102Z" fill="#FFD037"/>
<path d="M22.9997 213.033C22.3157 213.405 21.7211 213.63 21.6687 213.535C21.6163 213.439 22.1309 213.063 22.8149 212.691C23.4989 212.318 23.2277 212.589 23.2801 212.691C23.3325 212.792 23.696 212.66 22.9997 213.033Z" fill="#FFD037"/>
<path d="M9.84419 209.285C9.84419 209.285 8.1523 211.497 10.6239 214.831C13.0955 218.165 15.1387 220.993 14.322 223.076C14.322 223.076 10.5869 216.871 7.54212 216.781C4.49733 216.692 6.50048 213.016 9.84419 209.285Z" fill="#7210FF"/>
<path opacity="0.1" d="M9.84378 209.285C9.6955 209.498 9.57922 209.732 9.49862 209.978C6.53396 213.46 4.95302 216.71 7.80365 216.791C10.457 216.868 13.659 221.612 14.4048 222.811C14.3796 222.904 14.3498 222.995 14.3154 223.085C14.3154 223.085 10.5803 216.88 7.53554 216.791C4.49076 216.701 6.50006 213.016 9.84378 209.285Z" fill="black"/>
<path d="M6.69727 212.102C6.69727 212.882 6.78354 213.513 6.89137 213.513C6.99921 213.513 7.08548 212.897 7.08548 212.102C7.08548 211.307 6.97764 211.689 6.86981 211.689C6.76197 211.689 6.69727 211.323 6.69727 212.102Z" fill="#FFD037"/>
<path d="M5.6156 213.033C6.29959 213.405 6.89732 213.63 6.9497 213.535C7.00207 213.439 6.48754 213.063 5.80354 212.691C5.11955 212.318 5.3876 212.589 5.3383 212.691C5.28901 212.792 4.9316 212.66 5.6156 213.033Z" fill="#FFD037"/>
<path d="M7.23633 222.792C7.23633 222.792 11.9699 222.648 13.3999 221.631C14.8298 220.614 20.6821 219.403 21.0365 221.015C21.3909 222.626 28.1492 229.118 22.8054 229.161C17.4616 229.204 10.389 228.326 8.9652 227.46C7.54142 226.594 7.23633 222.792 7.23633 222.792Z" fill="#A8A8A8"/>
<path opacity="0.2" d="M22.8948 228.612C17.551 228.655 10.4783 227.777 9.05457 226.912C7.96979 226.252 7.53834 223.883 7.3935 222.789H7.23633C7.23633 222.789 7.54451 226.606 8.95903 227.472C10.3736 228.338 17.4555 229.216 22.7992 229.173C24.3401 229.173 24.8733 228.609 24.8455 227.799C24.6298 228.295 24.0443 228.603 22.8948 228.612Z" fill="black"/>
<path d="M126.639 127.659C128.448 127.557 136.963 126.916 142.372 123.832C143.24 123.321 144.221 123.032 145.228 122.991C146.948 122.942 148.926 123.659 147.66 127.677C145.607 134.249 133.69 141.644 126.294 141.234C119.181 140.839 110.743 137.974 105.172 127.899C104.638 126.93 104.375 125.835 104.41 124.729C104.475 122.695 105.215 120.147 109.033 122.988C114.192 126.824 123.98 127.551 125.943 127.659C126.175 127.671 126.407 127.671 126.639 127.659Z" fill="#444053"/>
<path d="M195.055 127.659C196.864 127.557 205.379 126.916 210.788 123.832C211.656 123.321 212.637 123.032 213.644 122.991C215.364 122.942 217.342 123.659 216.076 127.677C214.023 134.249 202.106 141.644 194.71 141.234C187.597 140.839 179.159 137.974 173.588 127.899C173.054 126.93 172.791 125.835 172.826 124.729C172.891 122.695 173.631 120.147 177.449 122.988C182.608 126.824 192.396 127.551 194.359 127.659C194.591 127.671 194.823 127.671 195.055 127.659Z" fill="#444053"/>
</g>
<defs>
<linearGradient id="paint0_linear_1905_116919" x1="275.436" y1="233.54" x2="275.436" y2="81.3238" gradientUnits="userSpaceOnUse">
<stop stop-color="#808080" stop-opacity="0.25"/>
<stop offset="0.54" stop-color="#808080" stop-opacity="0.12"/>
<stop offset="1" stop-color="#808080" stop-opacity="0.1"/>
</linearGradient>
<clipPath id="clip0_1905_116919">
<rect width="339" height="250" fill="white" transform="translate(0.5)"/>
</clipPath>
</defs>
</svg>
