<svg width="309" height="250" viewBox="0 0 309 250" fill="none" xmlns="http://www.w3.org/2000/svg">
<g clip-path="url(#clip0_932_12819)">
<path d="M53.6994 169.825H52.7166C52.5863 169.825 52.4614 169.773 52.3693 169.681C52.2772 169.588 52.2254 169.463 52.2252 169.333V168.349C52.2254 168.218 52.2772 168.093 52.3693 168.001C52.4614 167.908 52.5863 167.857 52.7166 167.856H53.6994C53.8297 167.857 53.9546 167.908 54.0468 168.001C54.1389 168.093 54.1907 168.218 54.1908 168.349V169.333C54.1907 169.463 54.1389 169.588 54.0468 169.681C53.9546 169.773 53.8297 169.825 53.6994 169.825Z" fill="#CCCCCC"/>
<path d="M53.2265 168.74C53.2077 168.74 53.189 168.739 53.1706 168.736C53.1282 168.728 53.0876 168.713 53.0512 168.69C53.0148 168.667 52.9833 168.637 52.9585 168.602C52.9337 168.566 52.916 168.527 52.9065 168.485C52.897 168.443 52.8959 168.399 52.9032 168.357L56.1431 149.475C56.1583 149.39 56.2066 149.314 56.2774 149.265C56.3482 149.215 56.4358 149.195 56.5211 149.21C56.6063 149.225 56.6824 149.272 56.7325 149.343C56.7827 149.414 56.8029 149.501 56.7888 149.587L53.5489 168.468C53.5358 168.544 53.4963 168.613 53.4373 168.663C53.3783 168.713 53.3036 168.74 53.2265 168.74Z" fill="#CCCCCC"/>
<path d="M53.2257 168.74C53.1486 168.74 53.0739 168.713 53.0149 168.663C52.9559 168.613 52.9164 168.544 52.9032 168.468L49.6634 149.587C49.6493 149.501 49.6696 149.414 49.7197 149.343C49.7699 149.272 49.8459 149.225 49.9312 149.21C50.0164 149.195 50.104 149.215 50.1749 149.265C50.2457 149.314 50.294 149.39 50.3092 149.475L53.549 168.357C53.5563 168.399 53.5552 168.443 53.5457 168.485C53.5362 168.527 53.5185 168.566 53.4937 168.602C53.4689 168.637 53.4374 168.667 53.401 168.69C53.3646 168.713 53.324 168.728 53.2816 168.736C53.2632 168.739 53.2445 168.74 53.2257 168.74Z" fill="#CCCCCC"/>
<path d="M53.2085 168.349C53.1215 168.349 53.038 168.314 52.9765 168.252C52.915 168.191 52.8804 168.107 52.8804 168.02V148.61C52.88 148.567 52.8882 148.524 52.9045 148.484C52.9208 148.444 52.945 148.407 52.9755 148.377C53.006 148.346 53.0423 148.321 53.0822 148.305C53.1222 148.288 53.1651 148.279 53.2085 148.279C53.2518 148.279 53.2947 148.288 53.3347 148.305C53.3747 148.321 53.411 148.346 53.4415 148.377C53.472 148.407 53.4961 148.444 53.5124 148.484C53.5288 148.524 53.537 148.567 53.5366 148.61V168.02C53.5366 168.107 53.502 168.191 53.4405 168.252C53.379 168.314 53.2955 168.349 53.2085 168.349Z" fill="#CCCCCC"/>
<path d="M52.6769 145.224C52.2892 142.994 50.5314 141.439 48.7505 141.75C46.9697 142.06 45.8405 144.119 46.2282 146.349C46.5552 148.229 47.8575 149.625 49.3255 149.831L49.4187 150.367L51.0309 150.086L50.9377 149.55C52.2496 148.859 53.0039 147.104 52.6769 145.224Z" fill="#CCCCCC"/>
<path d="M60.2009 146.243C60.5167 144.003 59.3219 141.981 57.532 141.728C55.7421 141.475 54.0352 143.086 53.7193 145.327C53.453 147.217 54.2633 148.946 55.5968 149.595L55.5209 150.134L57.1413 150.363L57.2172 149.824C58.6778 149.57 59.9345 148.133 60.2009 146.243Z" fill="#FF6584"/>
<path d="M56.2779 144.882C56.2779 142.619 54.8127 140.785 53.0051 140.785C51.1974 140.785 49.7322 142.619 49.7322 144.882C49.7322 146.791 50.7759 148.39 52.1868 148.845V149.389H53.8233V148.845C55.2342 148.39 56.2779 146.791 56.2779 144.882Z" fill="#4D5DFA"/>
<path d="M205.764 250L205.698 249.994L103.236 240.461L10.0639 249.13C8.78789 249.248 7.50113 249.099 6.28594 248.691C5.07075 248.284 3.95386 247.627 3.00667 246.762C2.05949 245.897 1.30285 244.844 0.785126 243.67C0.267399 242.496 -2.45583e-05 241.227 -4.51956e-05 239.943V18.0135C-0.00945052 15.7116 0.84448 13.4902 2.39268 11.7889C3.94088 10.0877 6.07047 9.03064 8.35981 8.82714L103.236 0L103.302 0.00623412L205.764 9.53891L298.936 0.870479C300.212 0.751757 301.499 0.901005 302.714 1.30868C303.929 1.71636 305.046 2.37349 305.993 3.23807C306.94 4.10265 307.697 5.15566 308.215 6.32977C308.732 7.50389 309 8.77328 309 10.0568V231.986C309.009 234.288 308.155 236.51 306.607 238.211C305.059 239.912 302.929 240.969 300.64 241.173L205.764 250ZM103.236 239.035L103.302 239.042L205.764 248.574L300.509 239.76C302.446 239.587 304.248 238.693 305.558 237.253C306.868 235.814 307.591 233.934 307.583 231.986V10.0568C307.583 8.97074 307.356 7.89663 306.918 6.90314C306.48 5.90964 305.84 5.01863 305.039 4.28705C304.237 3.55546 303.292 2.99941 302.264 2.65445C301.236 2.30948 300.147 2.18318 299.067 2.28363L205.764 10.9645L205.698 10.9583L103.236 1.42562L8.4909 10.2403L8.42534 9.53373L8.4909 10.2403C6.55376 10.4126 4.75181 11.307 3.4418 12.7465C2.13179 14.1861 1.40923 16.0658 1.41717 18.0135V239.943C1.41718 241.029 1.64345 242.103 2.08153 243.097C2.5196 244.09 3.15983 244.981 3.96129 245.713C4.76275 246.445 5.70781 247.001 6.73605 247.346C7.76429 247.691 8.85309 247.817 9.93284 247.716L103.236 239.035Z" fill="#E6E6E6"/>
<path d="M299.407 136.682V143.779C287.9 143.779 282.064 141.887 276.42 140.056C271.063 138.321 266.004 136.682 255.615 136.682C245.223 136.682 240.164 138.321 234.807 140.056C234.516 140.152 234.222 140.245 233.928 140.34C233.425 140.504 232.915 140.667 232.398 140.826C230.442 138.907 228.479 137.004 226.509 135.117C227.058 134.982 227.59 134.84 228.114 134.695C229.677 134.262 231.14 133.786 232.628 133.304C238.272 131.476 244.107 129.585 255.615 129.585C267.123 129.585 272.959 131.476 278.603 133.304C283.96 135.042 289.019 136.682 299.407 136.682Z" fill="#4D5DFA"/>
<path d="M209.301 136.646C211.82 138.964 214.322 141.297 216.808 143.648C216.17 143.683 215.508 143.711 214.828 143.733C213.867 143.765 212.868 143.779 211.82 143.779C200.315 143.779 194.476 141.887 188.836 140.056C183.479 138.321 178.419 136.682 168.031 136.682C157.639 136.682 152.58 138.321 147.226 140.056C141.582 141.887 135.743 143.779 124.239 143.779C112.731 143.779 106.896 141.887 101.252 140.056C96.0187 138.36 91.069 136.756 81.1555 136.685C80.9216 136.682 80.6879 136.682 80.4469 136.682V129.585C80.6843 129.585 80.9216 129.585 81.1555 129.589C92.1957 129.663 97.9071 131.515 103.434 133.304C108.791 135.042 113.851 136.682 124.239 136.682C134.627 136.682 139.687 135.042 145.044 133.304C150.688 131.476 156.523 129.585 168.031 129.585C179.535 129.585 185.371 131.476 191.015 133.304C195.49 134.755 199.759 136.139 207.1 136.554C207.805 136.597 208.535 136.625 209.301 136.646Z" fill="#4D5DFA"/>
<path d="M271.444 81.9469C271.444 80.6808 271.946 79.4666 272.84 78.5714C273.734 77.6762 274.946 77.1732 276.21 77.1732C277.474 77.1732 278.687 77.6762 279.58 78.5714C280.474 79.4666 280.977 80.6808 280.977 81.9469" fill="#F2F2F2"/>
<path d="M276.21 81.9469C276.176 81.9469 276.143 81.9333 276.119 81.9091C276.095 81.8849 276.081 81.8521 276.081 81.8178V79.302C276.081 79.2678 276.095 79.235 276.119 79.2108C276.143 79.1866 276.176 79.173 276.21 79.173C276.245 79.173 276.277 79.1866 276.302 79.2108C276.326 79.235 276.339 79.2678 276.339 79.302V81.8178C276.339 81.8521 276.326 81.8849 276.302 81.9091C276.277 81.9333 276.245 81.9469 276.21 81.9469Z" fill="#CCCCCC"/>
<path d="M276.21 81.0824C276.179 81.0824 276.15 81.0713 276.126 81.0512L274.58 79.7225C274.568 79.7114 274.557 79.698 274.549 79.6828C274.542 79.6677 274.537 79.6513 274.536 79.6344C274.535 79.6175 274.537 79.6005 274.542 79.5844C274.547 79.5683 274.556 79.5534 274.567 79.5405C274.578 79.5277 274.591 79.5171 274.606 79.5095C274.621 79.5018 274.638 79.4972 274.655 79.4959C274.671 79.4946 274.688 79.4967 274.704 79.502C274.721 79.5072 274.735 79.5156 274.748 79.5267L276.294 80.8555C276.314 80.8726 276.328 80.8955 276.335 80.921C276.342 80.9465 276.34 80.9735 276.331 80.9982C276.322 81.0229 276.305 81.0442 276.284 81.0593C276.262 81.0743 276.236 81.0824 276.21 81.0824H276.21Z" fill="#CCCCCC"/>
<path d="M286.129 81.9469C286.129 80.6808 286.632 79.4666 287.525 78.5714C288.419 77.6762 289.632 77.1732 290.896 77.1732C292.16 77.1732 293.372 77.6762 294.266 78.5714C295.16 79.4666 295.662 80.6808 295.662 81.9469" fill="#F2F2F2"/>
<path d="M290.896 81.9469C290.862 81.9469 290.829 81.9333 290.805 81.9091C290.781 81.8849 290.767 81.8521 290.767 81.8178V79.302C290.767 79.2678 290.781 79.235 290.805 79.2108C290.829 79.1866 290.862 79.173 290.896 79.173C290.93 79.173 290.963 79.1866 290.987 79.2108C291.011 79.235 291.025 79.2678 291.025 79.302V81.8178C291.025 81.8521 291.011 81.8849 290.987 81.9091C290.963 81.9333 290.93 81.9469 290.896 81.9469Z" fill="#CCCCCC"/>
<path d="M290.896 81.0824C290.865 81.0824 290.835 81.0713 290.812 81.0512L289.266 79.7224C289.24 79.7001 289.224 79.6685 289.222 79.6345C289.219 79.6004 289.23 79.5668 289.253 79.541C289.275 79.5151 289.306 79.4991 289.34 79.4964C289.374 79.4937 289.408 79.5046 289.434 79.5267L290.98 80.8554C291 80.8726 291.014 80.8955 291.02 80.921C291.027 80.9465 291.026 80.9734 291.017 80.9982C291.007 81.0229 290.991 81.0442 290.969 81.0592C290.948 81.0743 290.922 81.0824 290.896 81.0823V81.0824Z" fill="#CCCCCC"/>
<path d="M295.227 56.7994C295.227 50.4885 290.115 35.5131 283.81 35.5131C277.504 35.5131 272.393 50.4885 272.393 56.7994C272.394 59.8308 273.598 62.7374 275.739 64.8803C277.88 67.0232 280.783 68.227 283.81 68.227C286.837 68.227 289.739 67.0232 291.88 64.8803C294.021 62.7374 295.225 59.8308 295.227 56.7994Z" fill="#3F3D56"/>
<path d="M283.81 82.1202C283.775 82.1202 283.742 82.1064 283.717 82.0819C283.693 82.0573 283.679 82.0241 283.679 81.9894V55.2963C283.679 55.2617 283.693 55.2287 283.718 55.2043C283.742 55.1799 283.775 55.1663 283.81 55.1663C283.844 55.1663 283.878 55.1799 283.902 55.2043C283.927 55.2287 283.94 55.2617 283.941 55.2963V81.9894C283.941 82.0065 283.937 82.0236 283.931 82.0394C283.924 82.0553 283.914 82.0697 283.902 82.0818C283.89 82.094 283.876 82.1036 283.86 82.1102C283.844 82.1168 283.827 82.1202 283.81 82.1202Z" fill="#CCCCCC"/>
<path d="M283.81 64.6603C283.784 64.6603 283.759 64.6526 283.737 64.6383C283.716 64.6239 283.699 64.6035 283.689 64.5796C283.679 64.5557 283.677 64.5294 283.682 64.5041C283.687 64.4787 283.699 64.4554 283.717 64.4371L287.448 60.7003C287.461 60.6881 287.475 60.6785 287.491 60.6719C287.507 60.6654 287.524 60.662 287.541 60.662C287.558 60.662 287.575 60.6654 287.591 60.6719C287.607 60.6785 287.621 60.6881 287.633 60.7003C287.645 60.7124 287.655 60.7268 287.661 60.7427C287.668 60.7586 287.671 60.7756 287.671 60.7927C287.671 60.8099 287.668 60.8269 287.661 60.8428C287.655 60.8586 287.645 60.873 287.633 60.8852L283.902 64.622C283.89 64.6342 283.876 64.6438 283.86 64.6504C283.844 64.657 283.827 64.6603 283.81 64.6603Z" fill="#CCCCCC"/>
<path d="M283.81 60.2835C283.791 60.2835 283.773 60.2795 283.755 60.2717C283.738 60.264 283.723 60.2526 283.711 60.2384L277.145 52.6544C277.122 52.6282 277.111 52.5941 277.113 52.5596C277.116 52.525 277.132 52.4929 277.158 52.4702C277.184 52.4475 277.218 52.4361 277.253 52.4385C277.287 52.441 277.319 52.457 277.342 52.4831L283.908 60.0671C283.925 60.086 283.935 60.1092 283.939 60.1341C283.942 60.1589 283.939 60.1842 283.928 60.207C283.918 60.2298 283.901 60.2491 283.88 60.2627C283.859 60.2762 283.835 60.2835 283.81 60.2835V60.2835Z" fill="#CCCCCC"/>
<path d="M115.659 44.7756C116.288 43.8778 117.247 43.2666 118.326 43.0762C119.405 42.8858 120.515 43.1317 121.412 43.7599C122.31 44.3881 122.923 45.3474 123.115 46.4272C123.308 47.5071 123.065 48.6194 122.44 49.52" fill="#F2F2F2"/>
<path d="M119.049 47.1479C119.025 47.1309 119.008 47.1049 119.003 47.0756C118.998 47.0464 119.005 47.0163 119.021 46.992L120.27 45.2024C120.287 45.1782 120.313 45.1618 120.342 45.1568C120.371 45.1517 120.401 45.1583 120.425 45.1753C120.449 45.1922 120.466 45.218 120.471 45.2471C120.476 45.2763 120.47 45.3063 120.453 45.3306L119.205 47.1202C119.188 47.1445 119.162 47.1611 119.133 47.1663C119.103 47.1715 119.073 47.1649 119.049 47.1479Z" fill="#CCCCCC"/>
<path d="M119.478 46.5329C119.456 46.5176 119.44 46.4949 119.434 46.469L118.994 44.7544C118.99 44.7401 118.989 44.7253 118.991 44.7107C118.993 44.6961 118.998 44.682 119.005 44.6693C119.013 44.6566 119.023 44.6455 119.035 44.6367C119.046 44.6278 119.06 44.6213 119.074 44.6177C119.088 44.614 119.103 44.6132 119.118 44.6153C119.132 44.6174 119.146 44.6223 119.159 44.6298C119.171 44.6373 119.183 44.6473 119.191 44.6591C119.2 44.6709 119.207 44.6844 119.21 44.6987L119.65 46.4132C119.656 46.4354 119.655 46.4588 119.647 46.4802C119.639 46.5016 119.625 46.5201 119.606 46.5331C119.587 46.5462 119.565 46.5531 119.542 46.5531C119.519 46.553 119.497 46.546 119.478 46.5329Z" fill="#CCCCCC"/>
<path d="M145.054 38.7242C148.186 34.2351 151.98 21.0384 147.495 17.9002C143.009 14.7619 131.943 22.8704 128.811 27.3595C127.308 29.5168 126.721 32.1838 127.18 34.7742C127.64 37.3646 129.108 39.6662 131.261 41.1729C133.414 42.6796 136.077 43.2681 138.664 42.8089C141.25 42.3497 143.549 40.8804 145.054 38.7242Z" fill="#F2F2F2"/>
<path d="M124.369 51.0534C124.344 51.0362 124.328 51.0099 124.322 50.9802C124.317 50.9506 124.324 50.9201 124.341 50.8954L137.586 31.9077C137.603 31.883 137.629 31.8662 137.659 31.8609C137.688 31.8557 137.719 31.8624 137.744 31.8796C137.768 31.8969 137.785 31.9232 137.79 31.9528C137.795 31.9825 137.789 32.013 137.771 32.0376L124.527 51.0254C124.51 51.0501 124.483 51.0669 124.454 51.0721C124.424 51.0774 124.394 51.0707 124.369 51.0534Z" fill="#CCCCCC"/>
<path d="M126.105 52.0847C126.416 51.6374 126.811 51.2558 127.269 50.9618C127.727 50.6678 128.238 50.4672 128.774 50.3714C129.309 50.2756 129.858 50.2866 130.39 50.4036C130.921 50.5206 131.424 50.7415 131.87 51.0534C132.316 51.3654 132.696 51.7624 132.988 52.2217C133.281 52.681 133.48 53.1936 133.574 53.7301C133.669 54.2666 133.656 54.8165 133.538 55.3483C133.42 55.88 133.199 56.3833 132.886 56.8291" fill="#F2F2F2"/>
<path d="M129.496 54.4569C129.471 54.4399 129.455 54.4139 129.449 54.3847C129.444 54.3554 129.451 54.3253 129.468 54.301L130.716 52.5114C130.733 52.4871 130.759 52.4705 130.788 52.4653C130.818 52.4601 130.848 52.4667 130.872 52.4837C130.896 52.5007 130.913 52.5267 130.918 52.556C130.923 52.5852 130.916 52.6153 130.9 52.6396L129.651 54.4292C129.634 54.4536 129.608 54.4702 129.579 54.4753C129.55 54.4805 129.52 54.4739 129.496 54.4569Z" fill="#CCCCCC"/>
<path d="M129.925 53.8419C129.903 53.8266 129.887 53.8039 129.88 53.778L129.44 52.0634C129.433 52.0347 129.437 52.0044 129.452 51.9789C129.467 51.9535 129.492 51.9351 129.521 51.9277C129.549 51.9204 129.58 51.9246 129.605 51.9396C129.631 51.9546 129.649 51.9791 129.657 52.0077L130.097 53.7223C130.103 53.7444 130.101 53.7678 130.093 53.7892C130.085 53.8107 130.071 53.8291 130.052 53.8422C130.033 53.8552 130.011 53.8622 129.988 53.8621C129.965 53.8621 129.943 53.855 129.925 53.8419Z" fill="#CCCCCC"/>
<path d="M133.032 38.6336C133.014 38.6208 133 38.6027 132.992 38.5818C132.983 38.5609 132.982 38.5381 132.987 38.5162C132.991 38.4943 133.003 38.4743 133.019 38.4587C133.035 38.4432 133.055 38.4328 133.077 38.4289L137.586 37.6277C137.6 37.625 137.615 37.6253 137.63 37.6284C137.645 37.6316 137.658 37.6376 137.671 37.6461C137.683 37.6546 137.693 37.6655 137.701 37.6781C137.709 37.6907 137.715 37.7048 137.718 37.7195C137.72 37.7342 137.72 37.7493 137.717 37.7639C137.713 37.7785 137.707 37.7923 137.699 37.8045C137.69 37.8168 137.679 37.8272 137.667 37.8352C137.654 37.8432 137.64 37.8486 137.625 37.8511L133.117 38.6523C133.102 38.6549 133.087 38.6546 133.073 38.6514C133.058 38.6482 133.044 38.6422 133.032 38.6336Z" fill="#CCCCCC"/>
<path d="M135.204 35.5202C135.191 35.5109 135.18 35.4989 135.171 35.4849C135.163 35.4708 135.158 35.4552 135.156 35.439L134.249 26.7762C134.245 26.7463 134.254 26.7163 134.273 26.6929C134.292 26.6695 134.32 26.6546 134.349 26.6515C134.379 26.6484 134.409 26.6572 134.433 26.6762C134.456 26.6951 134.471 26.7226 134.474 26.7525L135.382 35.4153C135.384 35.437 135.38 35.4588 135.37 35.4782C135.36 35.4976 135.345 35.5138 135.327 35.5249C135.308 35.5359 135.286 35.5414 135.265 35.5405C135.243 35.5397 135.222 35.5327 135.204 35.5202L135.204 35.5202Z" fill="#CCCCCC"/>
<path d="M142.829 82.103C122.995 67.6359 102.127 53.9176 80.8083 41.3312L79.7383 40.6996V83.3875H144.59L142.829 82.103ZM81.1555 81.9681V43.1871C101.436 55.2021 121.295 68.2392 140.232 81.9681H81.1555ZM243.208 169.832C234.63 160.9 225.83 152.172 216.808 143.647C214.321 141.295 211.819 138.961 209.301 136.646C193.934 122.509 178.063 109.064 161.686 96.311L161.494 96.162H79.7383V171.034H244.363L243.208 169.832ZM81.1555 169.615V97.5814H161.009C176.8 109.884 192.164 122.875 207.1 136.554C209.694 138.928 212.27 141.321 214.828 143.733C223.77 152.15 232.504 160.777 241.029 169.615H81.1555ZM243.208 169.832C234.63 160.9 225.83 152.172 216.808 143.647C214.321 141.295 211.819 138.961 209.301 136.646C193.934 122.509 178.063 109.064 161.686 96.311L161.494 96.162H79.7383V171.034H244.363L243.208 169.832ZM81.1555 169.615V97.5814H161.009C176.8 109.884 192.164 122.875 207.1 136.554C209.694 138.928 212.27 141.321 214.828 143.733C223.77 152.15 232.504 160.777 241.029 169.615H81.1555ZM142.829 82.103C122.995 67.6359 102.127 53.9176 80.8083 41.3312L79.7383 40.6996V83.3875H144.59L142.829 82.103ZM81.1555 81.9681V43.1871C101.436 55.2021 121.295 68.2392 140.232 81.9681H81.1555ZM142.829 82.103C122.995 67.6359 102.127 53.9176 80.8083 41.3312L79.7383 40.6996V83.3875H144.59L142.829 82.103ZM81.1555 81.9681V43.1871C101.436 55.2021 121.295 68.2392 140.232 81.9681H81.1555ZM243.208 169.832C234.63 160.9 225.83 152.172 216.808 143.647C214.321 141.295 211.819 138.961 209.301 136.646C193.934 122.509 178.063 109.064 161.686 96.311L161.494 96.162H79.7383V171.034H244.363L243.208 169.832ZM81.1555 169.615V97.5814H161.009C176.8 109.884 192.164 122.875 207.1 136.554C209.694 138.928 212.27 141.321 214.828 143.733C223.77 152.15 232.504 160.777 241.029 169.615H81.1555ZM9.59302 183.809V185.228H65.5661V205.809H9.59302V207.229H66.9833V183.809H9.59302ZM79.7383 220.003V234.385L81.1555 234.254V221.423H299.407V220.003H79.7383ZM299.407 185.228V183.809H79.7383V207.229H299.407V205.809H81.1555V185.228H299.407ZM167.057 81.9681C139.868 60.9628 111.155 42.0148 81.1555 25.2815V10.9103L79.7383 11.0416V25.5241L80.8296 26.7258C110.707 43.4135 139.304 62.3032 166.384 83.2385L166.575 83.3875H299.407V81.9681H167.057ZM65.5661 81.9681H9.59302V83.3875H66.9833V12.2268L65.5661 12.358V81.9681ZM299.407 96.162H182.632L184.159 97.4181C198.537 109.266 212.653 121.833 226.509 135.117C228.479 137.005 230.442 138.908 232.398 140.826C242.134 150.354 251.68 160.193 261.036 170.342L262.205 171.034H299.407V169.615H262.294C253.039 159.566 243.584 149.808 233.928 140.34C231.997 138.445 230.059 136.564 228.114 134.695C214.558 121.668 200.713 109.297 186.579 97.5814H299.407V96.162ZM9.59302 220.003V221.423H65.5661V235.702L66.9833 235.57V220.003H9.59302ZM9.59302 96.162V97.5814H65.5661V169.615H9.59302V171.034H66.9833V96.162H9.59302ZM142.829 82.103C122.995 67.6359 102.127 53.9176 80.8083 41.3312L79.7383 40.6996V83.3875H144.59L142.829 82.103ZM81.1555 81.9681V43.1871C101.436 55.2021 121.295 68.2392 140.232 81.9681H81.1555ZM243.208 169.832C234.63 160.9 225.83 152.172 216.808 143.647C214.321 141.295 211.819 138.961 209.301 136.646C193.934 122.509 178.063 109.064 161.686 96.311L161.494 96.162H79.7383V171.034H244.363L243.208 169.832ZM81.1555 169.615V97.5814H161.009C176.8 109.884 192.164 122.875 207.1 136.554C209.694 138.928 212.27 141.321 214.828 143.733C223.77 152.15 232.504 160.777 241.029 169.615H81.1555ZM142.829 82.103C122.995 67.6359 102.127 53.9176 80.8083 41.3312L79.7383 40.6996V83.3875H144.59L142.829 82.103ZM81.1555 81.9681V43.1871C101.436 55.2021 121.295 68.2392 140.232 81.9681H81.1555ZM243.208 169.832C234.63 160.9 225.83 152.172 216.808 143.647C214.321 141.295 211.819 138.961 209.301 136.646C193.934 122.509 178.063 109.064 161.686 96.311L161.494 96.162H79.7383V171.034H244.363L243.208 169.832ZM81.1555 169.615V97.5814H161.009C176.8 109.884 192.164 122.875 207.1 136.554C209.694 138.928 212.27 141.321 214.828 143.733C223.77 152.15 232.504 160.777 241.029 169.615H81.1555Z" fill="#3F3D56"/>
<path d="M158.235 180.641C158.235 174.33 153.123 159.354 146.818 159.354C140.512 159.354 135.401 174.33 135.401 180.641C135.403 183.672 136.606 186.579 138.747 188.721C140.888 190.864 143.791 192.068 146.818 192.068C149.845 192.068 152.748 190.864 154.889 188.721C157.03 186.579 158.233 183.672 158.235 180.641Z" fill="#F2F2F2"/>
<path d="M146.818 205.961C146.783 205.961 146.75 205.948 146.726 205.923C146.701 205.899 146.687 205.865 146.687 205.831V179.138C146.687 179.12 146.691 179.103 146.697 179.087C146.704 179.071 146.713 179.057 146.725 179.045C146.738 179.032 146.752 179.023 146.768 179.016C146.784 179.009 146.801 179.006 146.818 179.006C146.835 179.006 146.852 179.009 146.868 179.016C146.884 179.023 146.899 179.032 146.911 179.045C146.923 179.057 146.933 179.071 146.939 179.087C146.946 179.103 146.949 179.12 146.949 179.138V205.831C146.949 205.865 146.935 205.899 146.911 205.923C146.886 205.948 146.853 205.961 146.818 205.961Z" fill="#CCCCCC"/>
<path d="M146.818 188.501C146.792 188.501 146.767 188.494 146.745 188.479C146.724 188.465 146.707 188.445 146.697 188.421C146.687 188.397 146.685 188.371 146.69 188.345C146.695 188.32 146.707 188.297 146.726 188.278L150.457 184.541C150.481 184.517 150.514 184.503 150.549 184.503C150.584 184.503 150.617 184.517 150.641 184.542C150.666 184.566 150.679 184.599 150.679 184.634C150.679 184.669 150.666 184.702 150.641 184.726L146.91 188.463C146.898 188.475 146.884 188.485 146.868 188.492C146.852 188.498 146.835 188.502 146.818 188.501Z" fill="#CCCCCC"/>
<path d="M146.818 184.125C146.799 184.125 146.781 184.121 146.764 184.113C146.747 184.105 146.732 184.094 146.719 184.08L140.153 176.496C140.131 176.469 140.119 176.435 140.122 176.401C140.124 176.366 140.141 176.334 140.167 176.312C140.193 176.289 140.227 176.278 140.261 176.28C140.296 176.282 140.328 176.298 140.35 176.324L146.917 183.908C146.933 183.927 146.944 183.95 146.947 183.975C146.951 184 146.947 184.025 146.937 184.048C146.926 184.071 146.91 184.09 146.889 184.104C146.868 184.117 146.843 184.125 146.818 184.125Z" fill="#CCCCCC"/>
<path d="M289.204 180.286C289.204 173.975 284.092 158.999 277.787 158.999C271.481 158.999 266.369 173.975 266.369 180.286C266.371 183.317 267.575 186.224 269.716 188.367C271.857 190.51 274.76 191.713 277.787 191.713C280.813 191.713 283.716 190.51 285.857 188.367C287.998 186.224 289.202 183.317 289.204 180.286Z" fill="#4D5DFA"/>
<path d="M277.787 205.606C277.752 205.606 277.719 205.593 277.694 205.568C277.67 205.544 277.656 205.51 277.656 205.476V178.783C277.656 178.765 277.659 178.748 277.666 178.732C277.672 178.716 277.682 178.702 277.694 178.69C277.706 178.677 277.721 178.668 277.737 178.661C277.752 178.655 277.77 178.651 277.787 178.651C277.804 178.651 277.821 178.655 277.837 178.661C277.853 178.668 277.867 178.677 277.879 178.69C277.892 178.702 277.901 178.716 277.908 178.732C277.914 178.748 277.918 178.765 277.918 178.783V205.476C277.918 205.51 277.904 205.544 277.879 205.568C277.855 205.593 277.821 205.606 277.787 205.606Z" fill="#CCCCCC"/>
<path d="M277.787 188.147C277.761 188.147 277.735 188.139 277.714 188.125C277.693 188.11 277.676 188.09 277.666 188.066C277.656 188.042 277.653 188.016 277.659 187.99C277.664 187.965 277.676 187.942 277.694 187.923L281.425 184.187C281.437 184.174 281.452 184.165 281.468 184.158C281.483 184.152 281.5 184.148 281.518 184.148C281.535 184.148 281.552 184.152 281.568 184.158C281.583 184.165 281.598 184.174 281.61 184.187C281.622 184.199 281.632 184.213 281.638 184.229C281.645 184.245 281.648 184.262 281.648 184.279C281.648 184.296 281.645 184.313 281.638 184.329C281.632 184.345 281.622 184.359 281.61 184.372L277.879 188.108C277.867 188.121 277.852 188.13 277.837 188.137C277.821 188.143 277.804 188.147 277.787 188.147Z" fill="#CCCCCC"/>
<path d="M128.654 205.97H117.314C117.002 205.97 116.704 205.846 116.483 205.625C116.263 205.404 116.139 205.105 116.139 204.793V182.771C116.139 182.459 116.263 182.16 116.483 181.939C116.704 181.718 117.002 181.594 117.314 181.594H128.654C128.966 181.594 129.264 181.718 129.485 181.939C129.705 182.16 129.829 182.459 129.829 182.771V204.793C129.829 205.105 129.705 205.404 129.485 205.625C129.264 205.846 128.966 205.97 128.654 205.97Z" fill="#3F3D56"/>
<path d="M109.985 182.286H107.772C107.607 182.286 107.449 182.221 107.332 182.104C107.216 181.987 107.15 181.828 107.15 181.663V178.755C107.15 178.589 107.216 178.431 107.332 178.314C107.449 178.197 107.607 178.132 107.772 178.131H109.985C110.15 178.132 110.308 178.197 110.425 178.314C110.541 178.431 110.607 178.589 110.607 178.755V181.663C110.607 181.828 110.541 181.987 110.425 182.104C110.308 182.221 110.15 182.286 109.985 182.286Z" fill="#3F3D56"/>
<path d="M121.878 205.97H102.241C101.929 205.97 101.63 205.846 101.41 205.625C101.189 205.404 101.065 205.105 101.065 204.793V182.771C101.065 182.459 101.189 182.16 101.41 181.939C101.63 181.718 101.929 181.594 102.241 181.594H121.878C122.189 181.594 122.488 181.718 122.708 181.939C122.929 182.16 123.053 182.459 123.053 182.771V204.793C123.053 205.105 122.929 205.404 122.708 205.625C122.488 205.846 122.189 205.97 121.878 205.97Z" fill="#4D5DFA"/>
<path d="M115.931 199.807H113.304C113.212 199.807 113.124 199.77 113.059 199.705C112.995 199.64 112.958 199.552 112.958 199.461V195.444C112.958 195.352 112.995 195.264 113.059 195.199C113.124 195.134 113.212 195.098 113.304 195.098H115.931C116.023 195.098 116.111 195.134 116.176 195.199C116.24 195.264 116.277 195.352 116.277 195.444V199.461C116.277 199.552 116.24 199.64 116.176 199.705C116.111 199.77 116.023 199.807 115.931 199.807Z" fill="white"/>
<path d="M110.815 199.807H108.187C108.095 199.807 108.007 199.77 107.943 199.705C107.878 199.64 107.841 199.552 107.841 199.461V195.444C107.841 195.352 107.878 195.264 107.943 195.199C108.007 195.134 108.095 195.098 108.187 195.098H110.815C110.906 195.098 110.994 195.134 111.059 195.199C111.124 195.264 111.16 195.352 111.16 195.444V199.461C111.16 199.552 111.124 199.64 111.059 199.705C110.994 199.77 110.906 199.807 110.815 199.807Z" fill="white"/>
<path d="M115.931 192.466H113.304C113.212 192.466 113.124 192.43 113.059 192.365C112.995 192.3 112.958 192.212 112.958 192.12V188.103C112.958 188.012 112.995 187.924 113.059 187.859C113.124 187.794 113.212 187.757 113.304 187.757H115.931C116.023 187.757 116.111 187.794 116.176 187.859C116.24 187.924 116.277 188.012 116.277 188.103V192.12C116.277 192.212 116.24 192.3 116.176 192.365C116.111 192.43 116.023 192.466 115.931 192.466Z" fill="white"/>
<path d="M110.815 192.466H108.187C108.095 192.466 108.007 192.43 107.943 192.365C107.878 192.3 107.841 192.212 107.841 192.12V188.103C107.841 188.012 107.878 187.924 107.943 187.859C108.007 187.794 108.095 187.757 108.187 187.757H110.815C110.906 187.757 110.994 187.794 111.059 187.859C111.124 187.924 111.16 188.012 111.16 188.103V192.12C111.16 192.212 111.124 192.3 111.059 192.365C110.994 192.43 110.906 192.466 110.815 192.466Z" fill="white"/>
<path d="M257.513 206.044H246.174C245.862 206.044 245.563 205.92 245.343 205.699C245.122 205.478 244.998 205.179 244.998 204.867V182.845C244.998 182.533 245.122 182.234 245.343 182.013C245.563 181.793 245.862 181.669 246.174 181.668H257.513C257.825 181.669 258.124 181.793 258.344 182.013C258.564 182.234 258.688 182.533 258.689 182.845V204.867C258.688 205.179 258.564 205.478 258.344 205.699C258.124 205.92 257.825 206.044 257.513 206.044Z" fill="#3F3D56"/>
<path d="M238.844 182.361H236.632C236.467 182.361 236.308 182.295 236.192 182.178C236.075 182.061 236.009 181.903 236.009 181.737V178.829C236.009 178.664 236.075 178.505 236.192 178.389C236.308 178.272 236.467 178.206 236.632 178.206H238.844C239.009 178.206 239.167 178.272 239.284 178.389C239.401 178.505 239.466 178.664 239.467 178.829V181.737C239.466 181.903 239.401 182.061 239.284 182.178C239.167 182.295 239.009 182.361 238.844 182.361Z" fill="#3F3D56"/>
<path d="M250.737 206.044H231.1C230.788 206.044 230.49 205.92 230.269 205.699C230.049 205.478 229.925 205.179 229.925 204.867V182.845C229.925 182.533 230.049 182.234 230.269 182.013C230.49 181.793 230.788 181.669 231.1 181.668H250.737C251.049 181.669 251.348 181.793 251.568 182.013C251.788 182.234 251.912 182.533 251.913 182.845V204.867C251.912 205.179 251.788 205.478 251.568 205.699C251.348 205.92 251.049 206.044 250.737 206.044Z" fill="#4D5DFA"/>
<path d="M244.791 199.881H242.163C242.071 199.881 241.984 199.844 241.919 199.78C241.854 199.715 241.817 199.627 241.817 199.535V195.518C241.817 195.427 241.854 195.339 241.919 195.274C241.984 195.209 242.071 195.172 242.163 195.172H244.791C244.882 195.172 244.97 195.209 245.035 195.274C245.1 195.339 245.136 195.427 245.136 195.518V199.535C245.136 199.627 245.1 199.715 245.035 199.78C244.97 199.844 244.882 199.881 244.791 199.881Z" fill="white"/>
<path d="M239.674 199.881H237.046C236.955 199.881 236.867 199.844 236.802 199.78C236.737 199.715 236.701 199.627 236.701 199.535V195.518C236.701 195.427 236.737 195.339 236.802 195.274C236.867 195.209 236.955 195.172 237.046 195.172H239.674C239.766 195.172 239.853 195.209 239.918 195.274C239.983 195.339 240.02 195.427 240.02 195.518V199.535C240.02 199.627 239.983 199.715 239.918 199.78C239.853 199.844 239.766 199.881 239.674 199.881Z" fill="white"/>
<path d="M244.791 192.541H242.163C242.071 192.54 241.984 192.504 241.919 192.439C241.854 192.374 241.817 192.286 241.817 192.194V188.178C241.817 188.086 241.854 187.998 241.919 187.933C241.984 187.868 242.071 187.832 242.163 187.832H244.791C244.882 187.832 244.97 187.868 245.035 187.933C245.1 187.998 245.136 188.086 245.136 188.178V192.194C245.136 192.286 245.1 192.374 245.035 192.439C244.97 192.504 244.882 192.54 244.791 192.541Z" fill="white"/>
<path d="M239.674 192.541H237.046C236.955 192.54 236.867 192.504 236.802 192.439C236.737 192.374 236.701 192.286 236.701 192.194V188.178C236.701 188.086 236.737 187.998 236.802 187.933C236.867 187.868 236.955 187.832 237.046 187.832H239.674C239.766 187.832 239.853 187.868 239.918 187.933C239.983 187.998 240.02 188.086 240.02 188.178V192.194C240.02 192.286 239.983 192.374 239.918 192.439C239.853 192.504 239.766 192.54 239.674 192.541Z" fill="white"/>
<path d="M236.77 182.361H234.557C234.392 182.361 234.234 182.295 234.117 182.178C234.001 182.061 233.935 181.903 233.935 181.737V178.829C233.935 178.664 234.001 178.505 234.117 178.389C234.234 178.272 234.392 178.206 234.557 178.206H236.77C236.935 178.206 237.093 178.272 237.21 178.389C237.326 178.505 237.392 178.664 237.392 178.829V181.737C237.392 181.903 237.326 182.061 237.21 182.178C237.093 182.295 236.935 182.361 236.77 182.361Z" fill="#4D5DFA"/>
<path d="M107.91 182.286H105.698C105.533 182.286 105.375 182.221 105.258 182.104C105.141 181.987 105.076 181.828 105.075 181.663V178.755C105.076 178.589 105.141 178.431 105.258 178.314C105.375 178.197 105.533 178.132 105.698 178.131H107.91C108.075 178.132 108.234 178.197 108.35 178.314C108.467 178.431 108.532 178.589 108.533 178.755V181.663C108.532 181.828 108.467 181.987 108.35 182.104C108.234 182.221 108.075 182.286 107.91 182.286Z" fill="#4D5DFA"/>
<path d="M277.787 183.77C277.768 183.77 277.749 183.766 277.732 183.758C277.715 183.75 277.7 183.739 277.688 183.725L271.122 176.141C271.099 176.115 271.088 176.08 271.09 176.046C271.093 176.012 271.109 175.979 271.135 175.957C271.161 175.934 271.195 175.923 271.23 175.925C271.264 175.927 271.296 175.943 271.319 175.969L277.885 183.553C277.902 183.572 277.912 183.596 277.916 183.62C277.919 183.645 277.916 183.671 277.905 183.693C277.895 183.716 277.878 183.735 277.857 183.749C277.836 183.763 277.812 183.77 277.787 183.77V183.77Z" fill="#CCCCCC"/>
<path d="M189.578 151.058C189.643 151.058 189.705 151.032 189.751 150.985C189.797 150.939 189.823 150.877 189.823 150.811C189.823 150.746 189.797 150.684 189.751 150.637C189.705 150.591 189.643 150.565 189.578 150.565H187.243V149.581H189.578C189.643 149.581 189.705 149.555 189.751 149.509C189.797 149.463 189.823 149.4 189.823 149.335C189.823 149.27 189.797 149.207 189.751 149.161C189.705 149.115 189.643 149.089 189.578 149.089H169.675C169.61 149.089 169.548 149.115 169.502 149.161C169.456 149.207 169.43 149.27 169.43 149.335C169.43 149.4 169.456 149.463 169.502 149.509C169.548 149.555 169.61 149.581 169.675 149.581H172.01V150.565H169.675C169.61 150.565 169.548 150.591 169.502 150.637C169.456 150.684 169.43 150.746 169.43 150.811C169.43 150.877 169.456 150.939 169.502 150.985C169.548 151.032 169.61 151.058 169.675 151.058H172.01V152.042H169.675C169.61 152.042 169.548 152.068 169.502 152.114C169.456 152.16 169.43 152.223 169.43 152.288C169.43 152.353 169.456 152.416 169.502 152.462C169.548 152.508 169.61 152.534 169.675 152.534H172.01V153.518H169.921C169.791 153.518 169.666 153.57 169.574 153.662C169.482 153.755 169.43 153.88 169.43 154.01C169.43 154.141 169.482 154.266 169.574 154.358C169.666 154.451 169.791 154.503 169.921 154.503H171.909C171.895 154.542 171.887 154.584 171.887 154.626V158.071C171.887 158.119 171.896 158.167 171.915 158.212C171.933 158.257 171.96 158.298 171.994 158.333C172.029 158.367 172.069 158.394 172.114 158.413C172.159 158.432 172.207 158.441 172.255 158.441C172.304 158.441 172.352 158.432 172.397 158.413C172.442 158.394 172.482 158.367 172.516 158.333C172.551 158.298 172.578 158.257 172.596 158.212C172.615 158.167 172.624 158.119 172.624 158.071V154.626C172.624 154.584 172.616 154.542 172.601 154.503H186.652C186.637 154.542 186.63 154.584 186.629 154.626V158.071C186.629 158.169 186.668 158.263 186.737 158.332C186.806 158.401 186.9 158.44 186.998 158.44C187.095 158.44 187.189 158.401 187.258 158.332C187.327 158.263 187.366 158.169 187.366 158.071V154.626C187.366 154.584 187.358 154.542 187.344 154.503H189.332C189.462 154.503 189.587 154.451 189.679 154.358C189.772 154.266 189.823 154.141 189.823 154.01C189.823 153.88 189.772 153.755 189.679 153.662C189.587 153.57 189.462 153.518 189.332 153.518H187.243V152.534H189.578C189.643 152.534 189.705 152.508 189.751 152.462C189.797 152.416 189.823 152.353 189.823 152.288C189.823 152.223 189.797 152.16 189.751 152.114C189.705 152.068 189.643 152.042 189.578 152.042H187.243V151.057L189.578 151.058ZM172.501 149.581H186.752V150.565H172.501V149.581ZM186.752 153.518H172.501V152.534H186.752V153.518ZM186.752 152.042H172.501V151.058H186.752V152.042Z" fill="#3F3D56"/>
<path d="M179.896 130.37C179.896 124.121 184.955 109.291 191.194 109.291C197.434 109.291 202.493 124.121 202.493 130.37C202.493 133.371 201.302 136.25 199.184 138.372C197.065 140.494 194.191 141.686 191.194 141.686C188.198 141.686 185.324 140.494 183.205 138.372C181.086 136.25 179.896 133.371 179.896 130.37Z" fill="#F2F2F2"/>
<path d="M191.195 157.9C191.182 157.9 191.17 157.897 191.159 157.893C191.148 157.888 191.137 157.881 191.129 157.873C191.12 157.864 191.113 157.854 191.109 157.842C191.104 157.831 191.102 157.819 191.102 157.807V118.794C191.102 118.77 191.111 118.746 191.129 118.729C191.146 118.711 191.17 118.701 191.195 118.701C191.219 118.701 191.243 118.711 191.26 118.729C191.278 118.746 191.288 118.77 191.288 118.794V157.807C191.288 157.819 191.285 157.831 191.281 157.842C191.276 157.854 191.269 157.864 191.26 157.873C191.252 157.881 191.242 157.888 191.23 157.893C191.219 157.897 191.207 157.9 191.195 157.9Z" fill="#3F3D56"/>
<path d="M191.194 134.079C191.176 134.079 191.158 134.074 191.143 134.064C191.128 134.054 191.116 134.039 191.109 134.022C191.102 134.005 191.1 133.986 191.103 133.968C191.107 133.95 191.116 133.934 191.129 133.921L198.618 126.42C198.626 126.412 198.637 126.405 198.648 126.4C198.659 126.395 198.671 126.393 198.683 126.393C198.696 126.393 198.708 126.395 198.719 126.4C198.73 126.405 198.74 126.412 198.749 126.42C198.758 126.429 198.765 126.439 198.769 126.45C198.774 126.462 198.776 126.474 198.776 126.486C198.776 126.498 198.774 126.51 198.769 126.522C198.765 126.533 198.758 126.543 198.749 126.552L191.26 134.052C191.252 134.061 191.241 134.068 191.23 134.072C191.219 134.077 191.207 134.079 191.194 134.079Z" fill="#3F3D56"/>
<path d="M191.194 126.326C191.182 126.326 191.17 126.324 191.159 126.319C191.148 126.314 191.137 126.307 191.129 126.299L186.657 121.82C186.648 121.811 186.641 121.801 186.637 121.79C186.632 121.779 186.63 121.767 186.63 121.754C186.63 121.742 186.632 121.73 186.637 121.719C186.641 121.707 186.648 121.697 186.657 121.689C186.665 121.68 186.676 121.673 186.687 121.668C186.698 121.664 186.71 121.661 186.723 121.661C186.735 121.661 186.747 121.664 186.758 121.668C186.769 121.673 186.78 121.68 186.788 121.689L191.26 126.167C191.273 126.18 191.282 126.197 191.286 126.215C191.289 126.233 191.287 126.252 191.28 126.269C191.273 126.286 191.261 126.3 191.246 126.31C191.231 126.321 191.213 126.326 191.194 126.326Z" fill="#3F3D56"/>
<path d="M112.797 121.605C112.862 121.605 112.925 121.579 112.971 121.533C113.017 121.487 113.043 121.424 113.043 121.359C113.043 121.294 113.017 121.231 112.971 121.185C112.925 121.139 112.862 121.113 112.797 121.113H110.463V120.129H112.797C112.862 120.129 112.925 120.103 112.971 120.057C113.017 120.011 113.043 119.948 113.043 119.883C113.043 119.817 113.017 119.755 112.971 119.709C112.925 119.663 112.862 119.637 112.797 119.637H92.8952C92.8301 119.637 92.7676 119.663 92.7215 119.709C92.6754 119.755 92.6495 119.817 92.6495 119.883C92.6495 119.948 92.6754 120.011 92.7215 120.057C92.7676 120.103 92.8301 120.129 92.8952 120.129H95.2294V121.113H92.8952C92.8301 121.113 92.7676 121.139 92.7215 121.185C92.6754 121.231 92.6495 121.294 92.6495 121.359C92.6495 121.424 92.6754 121.487 92.7215 121.533C92.7676 121.579 92.8301 121.605 92.8952 121.605H95.2294V122.59H92.8952C92.8301 122.59 92.7676 122.616 92.7215 122.662C92.6754 122.708 92.6495 122.77 92.6495 122.836C92.6495 122.901 92.6754 122.964 92.7215 123.01C92.7676 123.056 92.8301 123.082 92.8952 123.082H95.2294V124.066H93.1409C93.0106 124.066 92.8856 124.118 92.7935 124.21C92.7013 124.303 92.6495 124.428 92.6495 124.558C92.6495 124.689 92.7013 124.814 92.7935 124.906C92.8856 124.999 93.0106 125.05 93.1409 125.05H95.1291C95.1146 125.09 95.107 125.131 95.1066 125.173V128.619C95.1066 128.716 95.1454 128.81 95.2145 128.88C95.2836 128.949 95.3774 128.988 95.4751 128.988C95.5729 128.988 95.6666 128.949 95.7357 128.88C95.8049 128.81 95.8437 128.716 95.8437 128.619V125.173C95.8433 125.131 95.8356 125.09 95.8211 125.05H109.871C109.857 125.09 109.849 125.131 109.849 125.173V128.619C109.849 128.716 109.888 128.81 109.957 128.88C110.026 128.949 110.12 128.988 110.217 128.988C110.315 128.988 110.409 128.949 110.478 128.88C110.547 128.81 110.586 128.716 110.586 128.619V125.173C110.586 125.131 110.578 125.09 110.563 125.05H112.552C112.682 125.05 112.807 124.999 112.899 124.906C112.991 124.814 113.043 124.689 113.043 124.558C113.043 124.428 112.991 124.303 112.899 124.21C112.807 124.118 112.682 124.066 112.552 124.066H110.463V123.082H112.797C112.862 123.082 112.925 123.056 112.971 123.01C113.017 122.964 113.043 122.901 113.043 122.836C113.043 122.77 113.017 122.708 112.971 122.662C112.925 122.616 112.862 122.59 112.797 122.59H110.463V121.605H112.797ZM95.7208 120.129H109.972V121.113H95.7208V120.129ZM109.972 124.066H95.7208V123.082H109.972V124.066ZM109.972 122.59H95.7208V121.605H109.972V122.59Z" fill="#3F3D56"/>
<path d="M251.51 118.767C251.576 118.767 251.638 118.741 251.684 118.694C251.73 118.648 251.756 118.586 251.756 118.52C251.756 118.455 251.73 118.393 251.684 118.346C251.638 118.3 251.576 118.274 251.51 118.274H249.176V117.29H251.51C251.576 117.29 251.638 117.264 251.684 117.218C251.73 117.172 251.756 117.109 251.756 117.044C251.756 116.979 251.73 116.916 251.684 116.87C251.638 116.824 251.576 116.798 251.51 116.798H231.608C231.543 116.798 231.481 116.824 231.435 116.87C231.389 116.916 231.363 116.979 231.363 117.044C231.363 117.109 231.389 117.172 231.435 117.218C231.481 117.264 231.543 117.29 231.608 117.29H233.943V118.274H231.608C231.543 118.274 231.481 118.3 231.435 118.346C231.389 118.393 231.363 118.455 231.363 118.52C231.363 118.586 231.389 118.648 231.435 118.694C231.481 118.741 231.543 118.767 231.608 118.767H233.943V119.751H231.608C231.543 119.751 231.481 119.777 231.435 119.823C231.389 119.869 231.363 119.932 231.363 119.997C231.363 120.062 231.389 120.125 231.435 120.171C231.481 120.217 231.543 120.243 231.608 120.243H233.943V121.227H231.854C231.724 121.228 231.599 121.28 231.508 121.372C231.416 121.464 231.364 121.589 231.364 121.72C231.364 121.85 231.416 121.975 231.508 122.067C231.599 122.159 231.724 122.211 231.854 122.212H233.842C233.828 122.251 233.82 122.293 233.82 122.335V125.78C233.82 125.878 233.859 125.972 233.928 126.041C233.997 126.11 234.091 126.149 234.188 126.149C234.286 126.149 234.38 126.11 234.449 126.041C234.518 125.972 234.557 125.878 234.557 125.78V122.335C234.556 122.293 234.549 122.251 234.534 122.212H248.585C248.57 122.251 248.562 122.293 248.562 122.335V125.78C248.562 125.878 248.601 125.972 248.67 126.041C248.739 126.11 248.833 126.149 248.931 126.149C249.028 126.149 249.122 126.11 249.191 126.041C249.26 125.972 249.299 125.878 249.299 125.78V122.335C249.299 122.293 249.291 122.251 249.277 122.212H251.265C251.329 122.212 251.393 122.199 251.453 122.175C251.513 122.15 251.567 122.114 251.613 122.068C251.659 122.022 251.695 121.968 251.72 121.908C251.745 121.848 251.758 121.784 251.758 121.72C251.758 121.655 251.745 121.591 251.72 121.531C251.695 121.471 251.659 121.417 251.613 121.371C251.567 121.325 251.513 121.289 251.453 121.264C251.393 121.24 251.329 121.227 251.265 121.227H249.176V120.243H251.51C251.576 120.243 251.638 120.217 251.684 120.171C251.73 120.125 251.756 120.062 251.756 119.997C251.756 119.932 251.73 119.869 251.684 119.823C251.638 119.777 251.576 119.751 251.51 119.751H249.176V118.767H251.51ZM234.434 117.29H248.685V118.274H234.434V117.29ZM248.685 121.227H234.434V120.243H248.685V121.227ZM248.685 119.751H234.434V118.767H248.685V119.751Z" fill="#3F3D56"/>
<path d="M31.2756 113.257H28.6659C28.4713 113.257 28.2847 113.18 28.1471 113.042C28.0095 112.904 27.9321 112.717 27.9319 112.522V106.478C27.9321 106.283 28.0095 106.096 28.1471 105.958C28.2847 105.821 28.4713 105.743 28.6659 105.743H31.2756C31.4702 105.743 31.6567 105.821 31.7943 105.958C31.9319 106.096 32.0093 106.283 32.0096 106.478V112.522C32.0094 112.717 31.9319 112.904 31.7943 113.042C31.6567 113.18 31.4702 113.257 31.2756 113.257Z" fill="#3F3D56"/>
<path d="M41.5512 169.615H28.1765C27.8089 169.615 27.4565 169.468 27.1966 169.208C26.9367 168.948 26.7905 168.595 26.79 168.227V114.156C26.7905 113.788 26.9367 113.435 27.1966 113.174C27.4565 112.914 27.8089 112.768 28.1765 112.767H41.5512C41.9188 112.768 42.2712 112.914 42.5311 113.174C42.791 113.435 42.9372 113.788 42.9377 114.156V168.227C42.9372 168.595 42.791 168.948 42.5311 169.208C42.2712 169.468 41.9188 169.615 41.5512 169.615Z" fill="#3F3D56"/>
<path d="M33.5591 169.615H20.1843C19.8167 169.615 19.4643 169.468 19.2044 169.208C18.9445 168.948 18.7983 168.595 18.7979 168.227V114.156C18.7983 113.788 18.9445 113.435 19.2044 113.174C19.4643 112.914 19.8167 112.768 20.1843 112.767H33.5591C33.9266 112.768 34.279 112.914 34.5389 113.174C34.7988 113.435 34.945 113.788 34.9455 114.156V168.227C34.945 168.595 34.7988 168.948 34.5389 169.208C34.279 169.468 33.9266 169.615 33.5591 169.615Z" fill="#4D5DFA"/>
<path d="M31.4387 159.65H28.3396C28.2315 159.65 28.1279 159.607 28.0515 159.531C27.975 159.454 27.932 159.35 27.9319 159.242V154.505C27.932 154.396 27.975 154.293 28.0515 154.216C28.1279 154.14 28.2315 154.096 28.3396 154.096H31.4387C31.5468 154.096 31.6504 154.14 31.7269 154.216C31.8033 154.293 31.8463 154.396 31.8465 154.505V159.242C31.8463 159.35 31.8033 159.454 31.7269 159.531C31.6504 159.607 31.5468 159.65 31.4387 159.65Z" fill="white"/>
<path d="M25.4037 159.65H22.3046C22.1965 159.65 22.0929 159.607 22.0164 159.531C21.94 159.454 21.897 159.35 21.8969 159.242V154.505C21.897 154.396 21.94 154.293 22.0164 154.216C22.0929 154.14 22.1965 154.096 22.3046 154.096H25.4037C25.5118 154.096 25.6154 154.14 25.6919 154.216C25.7683 154.293 25.8113 154.396 25.8114 154.505V159.242C25.8113 159.35 25.7683 159.454 25.6919 159.531C25.6154 159.607 25.5118 159.65 25.4037 159.65Z" fill="white"/>
<path d="M31.4387 150.993H28.3396C28.2315 150.992 28.1279 150.949 28.0515 150.873C27.975 150.796 27.932 150.692 27.9319 150.584V145.847C27.932 145.739 27.975 145.635 28.0515 145.558C28.1279 145.482 28.2315 145.439 28.3396 145.438H31.4387C31.5468 145.439 31.6504 145.482 31.7269 145.558C31.8033 145.635 31.8463 145.739 31.8465 145.847V150.584C31.8463 150.692 31.8033 150.796 31.7269 150.873C31.6504 150.949 31.5468 150.992 31.4387 150.993Z" fill="white"/>
<path d="M25.4037 150.993H22.3046C22.1965 150.992 22.0929 150.949 22.0164 150.873C21.94 150.796 21.897 150.692 21.8969 150.584V145.847C21.897 145.739 21.94 145.635 22.0164 145.558C22.0929 145.482 22.1965 145.439 22.3046 145.438H25.4037C25.5118 145.439 25.6154 145.482 25.6919 145.558C25.7683 145.635 25.8113 145.739 25.8114 145.847V150.584C25.8113 150.692 25.7683 150.796 25.6919 150.873C25.6154 150.949 25.5118 150.992 25.4037 150.993Z" fill="white"/>
<path d="M31.4387 142.335H28.3396C28.2315 142.334 28.1279 142.291 28.0515 142.215C27.975 142.138 27.932 142.034 27.9319 141.926V137.189C27.932 137.081 27.975 136.977 28.0515 136.9C28.1279 136.824 28.2315 136.781 28.3396 136.781H31.4387C31.5468 136.781 31.6504 136.824 31.7269 136.9C31.8033 136.977 31.8463 137.081 31.8465 137.189V141.926C31.8463 142.034 31.8033 142.138 31.7269 142.215C31.6504 142.291 31.5468 142.334 31.4387 142.335Z" fill="white"/>
<path d="M25.4037 142.335H22.3046C22.1965 142.334 22.0929 142.291 22.0164 142.215C21.94 142.138 21.897 142.034 21.8969 141.926V137.189C21.897 137.081 21.94 136.977 22.0164 136.9C22.0929 136.824 22.1965 136.781 22.3046 136.781H25.4037C25.5118 136.781 25.6154 136.824 25.6919 136.9C25.7683 136.977 25.8113 137.081 25.8114 137.189V141.926C25.8113 142.034 25.7683 142.138 25.6919 142.215C25.6154 142.291 25.5118 142.334 25.4037 142.335Z" fill="white"/>
<path d="M31.4387 133.677H28.3396C28.2315 133.677 28.1279 133.634 28.0515 133.557C27.975 133.48 27.932 133.377 27.9319 133.268V128.531C27.932 128.423 27.975 128.319 28.0515 128.242C28.1279 128.166 28.2315 128.123 28.3396 128.123H31.4387C31.5468 128.123 31.6504 128.166 31.7269 128.242C31.8033 128.319 31.8463 128.423 31.8465 128.531V133.268C31.8463 133.377 31.8033 133.48 31.7269 133.557C31.6504 133.634 31.5468 133.677 31.4387 133.677Z" fill="white"/>
<path d="M25.4037 133.677H22.3046C22.1965 133.677 22.0929 133.634 22.0164 133.557C21.94 133.48 21.897 133.377 21.8969 133.268V128.531C21.897 128.423 21.94 128.319 22.0164 128.242C22.0929 128.166 22.1965 128.123 22.3046 128.123H25.4037C25.5118 128.123 25.6154 128.166 25.6919 128.242C25.7683 128.319 25.8113 128.423 25.8114 128.531V133.268C25.8113 133.377 25.7683 133.48 25.6919 133.557C25.6154 133.634 25.5118 133.677 25.4037 133.677Z" fill="white"/>
<path d="M31.4387 125.019H28.3396C28.2315 125.019 28.1279 124.976 28.0515 124.899C27.975 124.823 27.932 124.719 27.9319 124.611V119.873C27.932 119.765 27.975 119.661 28.0515 119.585C28.1279 119.508 28.2315 119.465 28.3396 119.465H31.4387C31.5468 119.465 31.6504 119.508 31.7269 119.585C31.8033 119.661 31.8463 119.765 31.8465 119.873V124.61C31.8463 124.719 31.8033 124.823 31.7269 124.899C31.6504 124.976 31.5468 125.019 31.4387 125.019Z" fill="white"/>
<path d="M25.4037 125.019H22.3046C22.1965 125.019 22.0929 124.976 22.0164 124.899C21.94 124.823 21.897 124.719 21.8969 124.611V119.873C21.897 119.765 21.94 119.661 22.0164 119.585C22.0929 119.508 22.1965 119.465 22.3046 119.465H25.4037C25.5118 119.465 25.6154 119.508 25.6919 119.585C25.7683 119.661 25.8113 119.765 25.8114 119.873V124.61C25.8113 124.719 25.7683 124.823 25.6919 124.899C25.6154 124.976 25.5118 125.019 25.4037 125.019Z" fill="white"/>
<path d="M28.8289 113.257H26.2192C26.0246 113.257 25.8381 113.18 25.7004 113.042C25.5628 112.904 25.4854 112.717 25.4852 112.522V106.478C25.4854 106.283 25.5628 106.096 25.7004 105.958C25.8381 105.821 26.0246 105.743 26.2192 105.743H28.8289C29.0235 105.743 29.2101 105.821 29.3477 105.958C29.4853 106.096 29.5627 106.283 29.5629 106.478V112.522C29.5627 112.717 29.4853 112.904 29.3477 113.042C29.2101 113.18 29.0235 113.257 28.8289 113.257Z" fill="#4D5DFA"/>
<path d="M243.246 98.4342C243.246 92.1847 248.305 77.3552 254.545 77.3552C260.784 77.3552 265.843 92.1847 265.843 98.4342C265.841 101.434 264.65 104.31 262.531 106.431C260.413 108.552 257.54 109.743 254.545 109.743C251.549 109.743 248.677 108.552 246.558 106.431C244.439 104.31 243.248 101.434 243.246 98.4342Z" fill="#4D5DFA"/>
<path d="M254.545 125.964C254.533 125.964 254.52 125.961 254.509 125.957C254.498 125.952 254.488 125.945 254.479 125.936C254.47 125.928 254.463 125.918 254.459 125.906C254.454 125.895 254.452 125.883 254.452 125.871V86.8582C254.452 86.8336 254.461 86.8099 254.479 86.7924C254.496 86.775 254.52 86.7652 254.545 86.7652C254.569 86.7652 254.593 86.775 254.61 86.7924C254.628 86.8099 254.638 86.8336 254.638 86.8582V125.871C254.638 125.883 254.635 125.895 254.631 125.906C254.626 125.918 254.619 125.928 254.61 125.936C254.602 125.945 254.592 125.952 254.58 125.957C254.569 125.961 254.557 125.964 254.545 125.964Z" fill="#3F3D56"/>
<path d="M254.545 102.143C254.526 102.143 254.508 102.138 254.493 102.128C254.478 102.117 254.466 102.103 254.459 102.086C254.452 102.069 254.45 102.05 254.453 102.032C254.457 102.014 254.466 101.997 254.479 101.984L261.968 94.4841C261.985 94.4668 262.009 94.4571 262.033 94.4572C262.058 94.4573 262.081 94.4671 262.099 94.4845C262.116 94.5018 262.126 94.5254 262.126 94.55C262.126 94.5745 262.116 94.5981 262.099 94.6156L254.61 102.116C254.602 102.125 254.591 102.132 254.58 102.136C254.569 102.141 254.557 102.143 254.545 102.143Z" fill="#3F3D56"/>
<path d="M254.545 94.3898C254.532 94.3899 254.52 94.3875 254.509 94.3828C254.498 94.3781 254.488 94.3712 254.479 94.3626L250.007 89.8839C249.99 89.8665 249.98 89.8428 249.98 89.8181C249.98 89.7935 249.99 89.7698 250.007 89.7523C250.025 89.7349 250.048 89.7251 250.073 89.7251C250.097 89.7251 250.121 89.7349 250.138 89.7524L254.61 94.231C254.623 94.244 254.632 94.2606 254.636 94.2787C254.639 94.2967 254.638 94.3154 254.63 94.3324C254.623 94.3494 254.612 94.3639 254.596 94.3742C254.581 94.3844 254.563 94.3898 254.545 94.3898H254.545Z" fill="#3F3D56"/>
<path d="M104.533 101.628C104.533 95.3784 109.592 80.5488 115.831 80.5488C122.071 80.5488 127.13 95.3783 127.13 101.628C127.13 104.629 125.939 107.507 123.821 109.629C121.702 111.751 118.828 112.943 115.831 112.943C112.835 112.943 109.961 111.751 107.842 109.629C105.723 107.507 104.533 104.629 104.533 101.628Z" fill="#4D5DFA"/>
<path d="M115.832 129.157C115.819 129.157 115.807 129.155 115.796 129.15C115.785 129.146 115.774 129.139 115.766 129.13C115.757 129.121 115.75 129.111 115.746 129.1C115.741 129.089 115.739 129.076 115.739 129.064V90.0519C115.739 90.0272 115.748 90.0035 115.766 89.9861C115.783 89.9686 115.807 89.9588 115.832 89.9588C115.856 89.9588 115.88 89.9686 115.897 89.9861C115.915 90.0035 115.925 90.0272 115.925 90.0519V129.064C115.925 129.076 115.922 129.089 115.918 129.1C115.913 129.111 115.906 129.121 115.897 129.13C115.889 129.139 115.878 129.146 115.867 129.15C115.856 129.155 115.844 129.157 115.832 129.157Z" fill="#3F3D56"/>
<path d="M115.831 105.337C115.813 105.337 115.795 105.331 115.78 105.321C115.765 105.311 115.753 105.297 115.746 105.28C115.739 105.263 115.737 105.244 115.74 105.226C115.744 105.208 115.753 105.191 115.766 105.178L123.255 97.6777C123.272 97.6603 123.296 97.6506 123.32 97.6506C123.345 97.6506 123.369 97.6604 123.386 97.6778C123.403 97.6952 123.413 97.7189 123.413 97.7435C123.413 97.7682 123.403 97.7918 123.386 97.8093L115.897 105.31C115.889 105.318 115.878 105.325 115.867 105.33C115.856 105.335 115.844 105.337 115.831 105.337Z" fill="#3F3D56"/>
<path d="M115.831 97.5835C115.819 97.5835 115.807 97.5811 115.796 97.5764C115.785 97.5717 115.774 97.5648 115.766 97.5562L111.294 93.0775C111.285 93.0689 111.278 93.0586 111.274 93.0473C111.269 93.0361 111.267 93.024 111.267 93.0117C111.267 92.9995 111.269 92.9874 111.274 92.9761C111.278 92.9648 111.285 92.9546 111.294 92.9459C111.302 92.9373 111.313 92.9305 111.324 92.9258C111.335 92.9211 111.347 92.9187 111.36 92.9187C111.372 92.9187 111.384 92.9211 111.395 92.9258C111.406 92.9305 111.417 92.9373 111.425 92.946L115.897 97.4246C115.91 97.4376 115.919 97.4542 115.922 97.4723C115.926 97.4903 115.924 97.509 115.917 97.526C115.91 97.543 115.898 97.5576 115.883 97.5678C115.868 97.578 115.85 97.5835 115.831 97.5835Z" fill="#3F3D56"/>
<path d="M25.5562 81.9469C25.5562 80.6808 26.0583 79.4666 26.9522 78.5714C27.8461 77.6762 29.0584 77.1732 30.3225 77.1732C31.5867 77.1732 32.799 77.6762 33.6929 78.5714C34.5868 79.4666 35.0889 80.6808 35.0889 81.9469" fill="#F2F2F2"/>
<path d="M30.3226 81.9469C30.2884 81.9469 30.2556 81.9333 30.2314 81.9091C30.2072 81.8849 30.1936 81.8521 30.1936 81.8178V79.302C30.1936 79.2678 30.2072 79.235 30.2314 79.2108C30.2556 79.1866 30.2884 79.173 30.3226 79.173C30.3568 79.173 30.3897 79.1866 30.4139 79.2108C30.438 79.235 30.4516 79.2678 30.4516 79.302V81.8178C30.4516 81.8521 30.438 81.8849 30.4139 81.9091C30.3897 81.9333 30.3568 81.9469 30.3226 81.9469Z" fill="#CCCCCC"/>
<path d="M30.3224 81.0824C30.2917 81.0824 30.2619 81.0714 30.2386 81.0512L28.6928 79.7225C28.6799 79.7114 28.6694 79.698 28.6617 79.6828C28.6541 79.6677 28.6495 79.6513 28.6482 79.6344C28.6469 79.6175 28.649 79.6005 28.6542 79.5844C28.6595 79.5683 28.6679 79.5534 28.6789 79.5405C28.6899 79.5277 28.7034 79.5171 28.7184 79.5095C28.7335 79.5018 28.75 79.4972 28.7669 79.4959C28.7837 79.4946 28.8007 79.4967 28.8168 79.502C28.8328 79.5072 28.8477 79.5156 28.8605 79.5267L30.4064 80.8555C30.4264 80.8726 30.4406 80.8955 30.4472 80.921C30.4538 80.9465 30.4524 80.9735 30.4433 80.9982C30.4341 81.0229 30.4176 81.0442 30.396 81.0593C30.3744 81.0743 30.3487 81.0824 30.3224 81.0824H30.3224Z" fill="#CCCCCC"/>
<path d="M40.2417 81.9469C40.2417 80.6808 40.7439 79.4666 41.6377 78.5714C42.5316 77.6761 43.744 77.1732 45.0081 77.1732C46.2722 77.1732 47.4845 77.6761 48.3784 78.5714C49.2723 79.4666 49.7744 80.6808 49.7744 81.9469" fill="#F2F2F2"/>
<path d="M45.0083 81.9469C44.9741 81.9469 44.9413 81.9333 44.9171 81.9091C44.8929 81.8849 44.8793 81.8521 44.8793 81.8178V79.302C44.8793 79.2678 44.8929 79.235 44.9171 79.2108C44.9413 79.1866 44.9741 79.173 45.0083 79.173C45.0425 79.173 45.0753 79.1866 45.0995 79.2108C45.1237 79.235 45.1373 79.2678 45.1373 79.302V81.8178C45.1373 81.8521 45.1237 81.8849 45.0995 81.9091C45.0753 81.9333 45.0425 81.9469 45.0083 81.9469Z" fill="#CCCCCC"/>
<path d="M45.008 81.0824C44.9772 81.0824 44.9474 81.0713 44.9241 81.0512L43.3783 79.7224C43.3525 79.7001 43.3367 79.6685 43.3342 79.6345C43.3317 79.6004 43.3427 79.5668 43.3649 79.541C43.3871 79.5151 43.4186 79.4991 43.4526 79.4964C43.4865 79.4937 43.5201 79.5046 43.5461 79.5267L45.0919 80.8554C45.1119 80.8726 45.1262 80.8955 45.1328 80.921C45.1394 80.9465 45.138 80.9734 45.1288 80.9982C45.1197 81.0229 45.1032 81.0442 45.0816 81.0592C45.06 81.0743 45.0343 81.0824 45.008 81.0823V81.0824Z" fill="#CCCCCC"/>
<path d="M208.773 70.4513C202.355 70.4513 196.083 68.5455 190.747 64.9749C185.411 61.4044 181.253 56.3293 178.797 50.3917C176.341 44.454 175.699 37.9203 176.951 31.6169C178.203 25.3135 181.293 19.5235 185.83 14.979C190.368 10.4345 196.149 7.33965 202.443 6.08582C208.737 4.832 215.26 5.47551 221.189 7.93497C227.118 10.3944 232.185 14.5594 235.75 19.9032C239.315 25.2469 241.218 31.5295 241.218 37.9564C241.208 46.5716 237.787 54.8311 231.704 60.923C225.622 67.0149 217.375 70.4416 208.773 70.4513ZM208.773 5.89762C202.442 5.89762 196.253 7.77783 190.989 11.3005C185.725 14.8232 181.622 19.8301 179.199 25.688C176.777 31.546 176.143 37.9919 177.378 44.2107C178.613 50.4295 181.661 56.1419 186.138 60.6254C190.615 65.1089 196.318 68.1622 202.528 69.3992C208.737 70.6362 215.173 70.0013 221.022 67.5748C226.871 65.1484 231.871 61.0393 235.388 55.7673C238.905 50.4952 240.782 44.297 240.782 37.9564C240.773 29.4568 237.397 21.3081 231.396 15.298C225.395 9.28792 217.259 5.90724 208.773 5.89763V5.89762Z" fill="#CCCCCC"/>
<path d="M239.258 40.5734H232.072V44.499H239.258V40.5734Z" fill="#CCCCCC"/>
<path d="M238.823 41.4458H235.992V44.499H238.823V41.4458Z" fill="white"/>
<path d="M235.339 41.4458H232.508V44.499H235.339V41.4458Z" fill="white"/>
<path d="M208.773 70.4513C208.715 70.4513 208.66 70.4284 208.619 70.3875C208.578 70.3466 208.555 70.2911 208.555 70.2333V40.5734C208.555 40.5156 208.578 40.4601 208.619 40.4192C208.66 40.3783 208.715 40.3553 208.773 40.3553C208.831 40.3553 208.886 40.3783 208.927 40.4192C208.968 40.4601 208.991 40.5156 208.991 40.5734V70.2333C208.991 70.2911 208.968 70.3466 208.927 70.3875C208.886 70.4284 208.831 70.4513 208.773 70.4513Z" fill="#CCCCCC"/>
<path d="M231.541 60.8271C231.512 60.8271 231.484 60.8215 231.458 60.8105C231.431 60.7996 231.407 60.7835 231.387 60.7632L210.538 39.8827C210.498 39.8418 210.475 39.7864 210.475 39.7287C210.475 39.671 210.498 39.6157 210.539 39.5749C210.58 39.5341 210.635 39.5112 210.693 39.511C210.75 39.5109 210.805 39.5337 210.846 39.5743L231.695 60.4548C231.725 60.4853 231.746 60.5241 231.754 60.5664C231.763 60.6087 231.759 60.6526 231.742 60.6924C231.726 60.7323 231.698 60.7663 231.662 60.7903C231.626 60.8142 231.584 60.827 231.541 60.827V60.8271Z" fill="#CCCCCC"/>
<path d="M235.665 48.7517C234.568 48.7504 233.517 48.3134 232.741 47.5366C231.965 46.7598 231.529 45.7066 231.528 44.608V44.499C231.528 44.2388 231.631 43.9893 231.815 43.8053C231.999 43.6214 232.248 43.5179 232.508 43.5176H238.823C239.082 43.5179 239.331 43.6214 239.515 43.8053C239.699 43.9893 239.802 44.2388 239.803 44.499V44.608C239.801 45.7066 239.365 46.7598 238.589 47.5366C237.814 48.3134 236.762 48.7504 235.665 48.7517Z" fill="#CCCCCC"/>
<path d="M186.004 60.8271C185.961 60.8271 185.919 60.8143 185.883 60.7903C185.847 60.7664 185.819 60.7323 185.803 60.6925C185.786 60.6526 185.782 60.6088 185.79 60.5665C185.799 60.5242 185.82 60.4853 185.85 60.4548L206.699 39.5744C206.739 39.5335 206.795 39.5105 206.853 39.5105C206.91 39.5105 206.966 39.5335 207.007 39.5744C207.047 39.6153 207.07 39.6707 207.07 39.7286C207.07 39.7864 207.047 39.8419 207.007 39.8828L186.158 60.7632C186.138 60.7835 186.114 60.7996 186.087 60.8105C186.061 60.8215 186.033 60.8271 186.004 60.8271Z" fill="#CCCCCC"/>
<path d="M241 38.1745H211.385C211.328 38.1745 211.272 38.1515 211.232 38.1106C211.191 38.0697 211.168 38.0142 211.168 37.9564C211.168 37.8985 211.191 37.8431 211.232 37.8022C211.272 37.7613 211.328 37.7383 211.385 37.7383H241C241.058 37.7383 241.113 37.7613 241.154 37.8022C241.195 37.8431 241.218 37.8985 241.218 37.9564C241.218 38.0142 241.195 38.0697 241.154 38.1106C241.113 38.1515 241.058 38.1745 241 38.1745Z" fill="#CCCCCC"/>
<path d="M238.989 41.5548H232.341C232.249 41.5548 232.157 41.5311 232.076 41.4858C231.995 41.4406 231.927 41.3753 231.878 41.2963C231.829 41.2172 231.802 41.127 231.798 41.0341C231.793 40.9413 231.813 40.8489 231.854 40.7658L233.161 38.1487C233.206 38.0579 233.275 37.9816 233.361 37.9283C233.448 37.875 233.547 37.847 233.648 37.8474H237.682C237.784 37.847 237.883 37.875 237.969 37.9283C238.055 37.9816 238.124 38.0579 238.169 38.1487L239.476 40.7658C239.517 40.8489 239.537 40.9413 239.533 41.0341C239.529 41.127 239.501 41.2172 239.452 41.2963C239.403 41.3753 239.335 41.4406 239.254 41.4858C239.173 41.5311 239.082 41.5548 238.989 41.5548H238.989Z" fill="#4D5DFA"/>
<path d="M206.159 38.1745H176.559C176.501 38.1745 176.446 38.1515 176.405 38.1106C176.364 38.0697 176.341 38.0142 176.341 37.9564C176.341 37.8985 176.364 37.8431 176.405 37.8022C176.446 37.7613 176.501 37.7383 176.559 37.7383H206.159C206.217 37.7383 206.273 37.7613 206.313 37.8022C206.354 37.8431 206.377 37.8985 206.377 37.9564C206.377 38.0142 206.354 38.0697 206.313 38.1106C206.273 38.1515 206.217 38.1745 206.159 38.1745Z" fill="#CCCCCC"/>
<path d="M210.692 36.4023C210.649 36.4023 210.607 36.3895 210.571 36.3655C210.536 36.3416 210.508 36.3075 210.491 36.2677C210.475 36.2278 210.471 36.184 210.479 36.1417C210.487 36.0994 210.508 36.0605 210.538 36.03L231.387 15.1496C231.428 15.109 231.483 15.0862 231.541 15.0863C231.598 15.0864 231.654 15.1094 231.694 15.1502C231.735 15.191 231.758 15.2463 231.758 15.304C231.758 15.3616 231.736 15.417 231.695 15.458L210.846 36.3384C210.826 36.3587 210.802 36.3748 210.776 36.3857C210.749 36.3967 210.721 36.4023 210.692 36.4023Z" fill="#CCCCCC"/>
<path d="M206.853 36.4023C206.824 36.4023 206.796 36.3967 206.769 36.3857C206.743 36.3748 206.719 36.3587 206.699 36.3384L185.85 15.458C185.809 15.417 185.787 15.3616 185.787 15.304C185.787 15.2463 185.81 15.191 185.851 15.1502C185.891 15.1094 185.947 15.0864 186.004 15.0863C186.062 15.0862 186.117 15.109 186.158 15.1496L207.007 36.03C207.037 36.0605 207.058 36.0994 207.066 36.1417C207.075 36.184 207.07 36.2278 207.054 36.2677C207.037 36.3075 207.009 36.3416 206.974 36.3655C206.938 36.3895 206.896 36.4023 206.853 36.4023Z" fill="#CCCCCC"/>
<path d="M208.773 35.5575C208.715 35.5575 208.66 35.5345 208.619 35.4936C208.578 35.4527 208.555 35.3972 208.555 35.3394V5.67957C208.555 5.62173 208.578 5.56626 208.619 5.52536C208.66 5.48446 208.715 5.46149 208.773 5.46149C208.831 5.46149 208.886 5.48446 208.927 5.52536C208.968 5.56626 208.991 5.62173 208.991 5.67957V35.3394C208.991 35.3972 208.968 35.4527 208.927 35.4936C208.886 35.5345 208.831 35.5575 208.773 35.5575Z" fill="#CCCCCC"/>
<path d="M208.772 60.3103C204.358 60.3103 200.043 58.9993 196.372 56.543C192.702 54.0867 189.841 50.5955 188.152 46.5109C186.462 42.4262 186.02 37.9316 186.882 33.5954C187.743 29.2591 189.868 25.276 192.99 22.1498C196.111 19.0235 200.088 16.8945 204.418 16.032C208.748 15.1695 213.235 15.6122 217.314 17.3041C221.392 18.996 224.878 21.8611 227.331 25.5372C229.783 29.2133 231.092 33.5352 231.092 37.9564C231.086 43.883 228.732 49.5649 224.548 53.7556C220.363 57.9463 214.69 60.3036 208.772 60.3103ZM208.772 16.0387C204.444 16.0387 200.213 17.3241 196.614 19.7325C193.015 22.1408 190.21 25.5639 188.554 29.5689C186.898 33.5738 186.464 37.9807 187.309 42.2323C188.153 46.484 190.237 50.3893 193.298 53.4546C196.359 56.5198 200.258 58.6073 204.503 59.453C208.748 60.2987 213.148 59.8647 217.147 58.2058C221.146 56.5469 224.564 53.7376 226.969 50.1333C229.373 46.5289 230.657 42.2913 230.657 37.9564C230.65 32.1455 228.342 26.5744 224.24 22.4655C220.137 18.3565 214.575 16.0452 208.772 16.0387Z" fill="#CCCCCC"/>
<path d="M231.201 58.8928H224.015V62.8183H231.201V58.8928Z" fill="#CCCCCC"/>
<path d="M230.766 59.7651H227.935V62.8183H230.766V59.7651Z" fill="white"/>
<path d="M227.282 59.7651H224.451V62.8183H227.282V59.7651Z" fill="white"/>
<path d="M227.608 67.071C226.511 67.0698 225.46 66.6328 224.684 65.856C223.908 65.0792 223.472 64.0259 223.471 62.9273V62.8183C223.471 62.5581 223.575 62.3087 223.758 62.1247C223.942 61.9407 224.191 61.8372 224.451 61.8369H230.766C231.026 61.8372 231.275 61.9407 231.458 62.1247C231.642 62.3087 231.745 62.5581 231.746 62.8183V62.9273C231.744 64.0259 231.308 65.0792 230.532 65.856C229.757 66.6328 228.705 67.0698 227.608 67.071Z" fill="#CCCCCC"/>
<path d="M186.344 62.8183H193.53V58.8927H186.344V62.8183Z" fill="#CCCCCC"/>
<path d="M190.263 62.8183H193.094V59.7651H190.263V62.8183Z" fill="white"/>
<path d="M186.779 62.8183H189.61V59.7651H186.779V62.8183Z" fill="white"/>
<path d="M189.937 67.071C188.84 67.0698 187.788 66.6328 187.013 65.856C186.237 65.0792 185.801 64.0259 185.799 62.9273V62.8183C185.8 62.5581 185.903 62.3087 186.087 62.1247C186.27 61.9407 186.52 61.8372 186.779 61.8369H193.094C193.354 61.8372 193.603 61.9407 193.787 62.1247C193.97 62.3087 194.074 62.5581 194.074 62.8183V62.9273C194.073 64.0259 193.637 65.0792 192.861 65.856C192.085 66.6328 191.034 67.0698 189.937 67.071Z" fill="#CCCCCC"/>
<path d="M230.932 59.8741H224.285C224.192 59.8741 224.1 59.8504 224.019 59.8051C223.938 59.7598 223.87 59.6946 223.821 59.6155C223.773 59.5365 223.745 59.4462 223.741 59.3534C223.736 59.2605 223.756 59.1681 223.798 59.085L225.104 56.468C225.149 56.3772 225.218 56.3008 225.305 56.2476C225.391 56.1943 225.49 56.1663 225.591 56.1666H229.626C229.727 56.1663 229.826 56.1943 229.912 56.2476C229.998 56.3008 230.068 56.3772 230.112 56.468L231.419 59.085C231.46 59.1681 231.48 59.2605 231.476 59.3534C231.472 59.4462 231.444 59.5365 231.395 59.6155C231.346 59.6946 231.278 59.7598 231.197 59.8051C231.116 59.8504 231.025 59.8741 230.932 59.8741H230.932Z" fill="#4D5DFA"/>
<path d="M193.261 59.8741H186.613C186.52 59.8741 186.429 59.8504 186.348 59.8051C186.267 59.7598 186.199 59.6946 186.15 59.6155C186.101 59.5365 186.073 59.4462 186.069 59.3534C186.065 59.2605 186.085 59.1681 186.126 59.085L187.433 56.468C187.478 56.3772 187.547 56.3008 187.633 56.2476C187.719 56.1943 187.818 56.1663 187.92 56.1666H191.954C192.055 56.1663 192.154 56.1943 192.241 56.2476C192.327 56.3008 192.396 56.3772 192.441 56.468L193.747 59.085C193.789 59.1681 193.809 59.2605 193.804 59.3534C193.8 59.4462 193.772 59.5365 193.724 59.6155C193.675 59.6946 193.607 59.7598 193.526 59.8051C193.445 59.8504 193.353 59.8741 193.261 59.8741H193.261Z" fill="#4D5DFA"/>
<path d="M178.287 44.499H185.473V40.5735H178.287V44.499Z" fill="#CCCCCC"/>
<path d="M182.207 44.499H185.037V41.4458H182.207V44.499Z" fill="white"/>
<path d="M178.722 44.499H181.553V41.4458H178.722V44.499Z" fill="white"/>
<path d="M181.88 48.7517C180.783 48.7504 179.731 48.3134 178.956 47.5366C178.18 46.7598 177.744 45.7066 177.743 44.608V44.499C177.743 44.2388 177.846 43.9893 178.03 43.8053C178.214 43.6214 178.463 43.5179 178.722 43.5176H185.037C185.297 43.5179 185.546 43.6214 185.73 43.8053C185.914 43.9893 186.017 44.2388 186.017 44.499V44.608C186.016 45.7066 185.58 46.7598 184.804 47.5366C184.028 48.3134 182.977 48.7504 181.88 48.7517Z" fill="#CCCCCC"/>
<path d="M185.204 41.5548H178.556C178.463 41.5548 178.372 41.5311 178.291 41.4858C178.21 41.4406 178.142 41.3753 178.093 41.2963C178.044 41.2172 178.016 41.127 178.012 41.0341C178.008 40.9413 178.028 40.8489 178.069 40.7658L179.376 38.1487C179.421 38.0579 179.49 37.9816 179.576 37.9283C179.662 37.875 179.761 37.847 179.863 37.8474H183.897C183.998 37.847 184.098 37.875 184.184 37.9283C184.27 37.9816 184.339 38.0579 184.384 38.1487L185.691 40.7658C185.732 40.8489 185.752 40.9413 185.748 41.0341C185.743 41.127 185.716 41.2172 185.667 41.2963C185.618 41.3753 185.55 41.4406 185.469 41.4858C185.388 41.5311 185.296 41.5548 185.204 41.5548H185.204Z" fill="#4D5DFA"/>
<path d="M208.772 40.5734C210.216 40.5734 211.386 39.4018 211.386 37.9564C211.386 36.511 210.216 35.3394 208.772 35.3394C207.329 35.3394 206.159 36.511 206.159 37.9564C206.159 39.4018 207.329 40.5734 208.772 40.5734Z" fill="#3F3D56"/>
<path d="M198.656 82.1616L196.361 82.2281L207.566 36.9326L209.648 37.569L198.656 82.1616Z" fill="#3F3D56"/>
<path d="M218.889 82.1616L221.184 82.2281L209.979 36.9326L207.897 37.569L218.889 82.1616Z" fill="#3F3D56"/>
<path d="M212.257 67.1801H205.071V71.1056H212.257V67.1801Z" fill="#CCCCCC"/>
<path d="M211.821 68.0524H208.99V71.1056H211.821V68.0524Z" fill="white"/>
<path d="M208.337 68.0524H205.506V71.1056H208.337V68.0524Z" fill="white"/>
<path d="M205.506 70.3423C205.304 70.3425 205.111 70.423 204.968 70.5661C204.825 70.7092 204.744 70.9032 204.744 71.1056V71.2146C204.744 71.7305 204.845 72.2414 205.041 72.7181C205.238 73.1949 205.527 73.6281 205.891 73.9931C206.255 74.358 206.687 74.6475 207.163 74.8451C207.639 75.0426 208.149 75.1443 208.664 75.1443C209.179 75.1443 209.689 75.0426 210.165 74.8451C210.64 74.6475 211.073 74.358 211.437 73.9931C211.801 73.6281 212.089 73.1949 212.286 72.7181C212.483 72.2414 212.584 71.7305 212.583 71.2146V71.1056C212.583 70.9032 212.503 70.7092 212.36 70.5661C212.217 70.423 212.023 70.3425 211.821 70.3423H205.506Z" fill="#CCCCCC"/>
<path d="M206.646 64.6721C206.586 64.6719 206.526 64.6887 206.474 64.7206C206.423 64.7526 206.381 64.7984 206.354 64.8529L205.048 67.4699C205.023 67.5198 205.011 67.5752 205.014 67.6309C205.016 67.6866 205.033 67.7408 205.062 67.7882C205.091 67.8357 205.132 67.8748 205.181 67.902C205.229 67.9291 205.284 67.9434 205.34 67.9434H211.987C212.043 67.9434 212.098 67.9291 212.146 67.902C212.195 67.8748 212.236 67.8357 212.265 67.7882C212.295 67.7408 212.311 67.6866 212.314 67.6309C212.316 67.5752 212.304 67.5198 212.28 67.4699L210.973 64.8529C210.946 64.7984 210.904 64.7526 210.853 64.7206C210.801 64.6887 210.742 64.6719 210.681 64.6721H206.646Z" fill="#4D5DFA"/>
<path d="M49.3392 56.7994C49.3392 50.4885 44.2276 35.5131 37.922 35.5131C31.6165 35.5131 26.5049 50.4885 26.5049 56.7994C26.5067 59.8308 27.7104 62.7374 29.8514 64.8803C31.9923 67.0232 34.8952 68.227 37.922 68.227C40.9489 68.227 43.8518 67.0232 45.9927 64.8803C48.1337 62.7374 49.3374 59.8308 49.3392 56.7994Z" fill="#3F3D56"/>
<path d="M37.9223 82.1202C37.8876 82.1202 37.8543 82.1064 37.8298 82.0819C37.8053 82.0573 37.7915 82.0241 37.7915 81.9894V55.2963C37.7917 55.2617 37.8056 55.2287 37.8301 55.2043C37.8546 55.1799 37.8877 55.1663 37.9223 55.1663C37.9568 55.1663 37.99 55.1799 38.0145 55.2043C38.039 55.2287 38.0528 55.2617 38.053 55.2963V81.9894C38.053 82.0065 38.0496 82.0236 38.0431 82.0394C38.0365 82.0553 38.0269 82.0697 38.0147 82.0818C38.0026 82.094 37.9882 82.1036 37.9723 82.1102C37.9564 82.1168 37.9394 82.1202 37.9223 82.1202Z" fill="#CCCCCC"/>
<path d="M37.922 64.6603C37.8962 64.6603 37.871 64.6526 37.8495 64.6383C37.8281 64.6239 37.8113 64.6035 37.8014 64.5796C37.7916 64.5557 37.789 64.5294 37.794 64.5041C37.799 64.4787 37.8115 64.4554 37.8297 64.4371L41.5608 60.7003C41.5729 60.6881 41.5873 60.6785 41.6032 60.6719C41.619 60.6654 41.636 60.662 41.6531 60.662C41.6703 60.662 41.6872 60.6654 41.7031 60.6719C41.7189 60.6785 41.7333 60.6881 41.7454 60.7003C41.7575 60.7124 41.7672 60.7268 41.7737 60.7427C41.7803 60.7586 41.7837 60.7756 41.7837 60.7927C41.7837 60.8099 41.7803 60.8269 41.7737 60.8428C41.7672 60.8586 41.7575 60.873 41.7454 60.8852L38.0144 64.622C38.0022 64.6342 37.9879 64.6438 37.972 64.6504C37.9562 64.657 37.9392 64.6603 37.922 64.6603Z" fill="#CCCCCC"/>
<path d="M37.9221 60.2835C37.9034 60.2835 37.8849 60.2795 37.8679 60.2717C37.8508 60.264 37.8357 60.2526 37.8234 60.2384L31.2572 52.6544C31.2346 52.6282 31.2233 52.5941 31.2258 52.5596C31.2283 52.525 31.2444 52.4929 31.2705 52.4702C31.2966 52.4475 31.3306 52.4361 31.3651 52.4385C31.3996 52.441 31.4317 52.457 31.4545 52.4831L38.0207 60.0671C38.0371 60.086 38.0477 60.1092 38.0513 60.1341C38.0549 60.1589 38.0512 60.1842 38.0408 60.207C38.0305 60.2298 38.0137 60.2491 37.9927 60.2627C37.9717 60.2762 37.9472 60.2835 37.9221 60.2835V60.2835Z" fill="#CCCCCC"/>
<path d="M231.637 20.9456H224.451V24.8712H231.637V20.9456Z" fill="#CCCCCC"/>
<path d="M231.201 21.818H228.37V24.8712H231.201V21.818Z" fill="white"/>
<path d="M227.717 21.818H224.886V24.8712H227.717V21.818Z" fill="white"/>
<path d="M228.044 29.1239C226.947 29.1227 225.895 28.6857 225.12 27.9089C224.344 27.1321 223.908 26.0788 223.906 24.9803V24.8712C223.907 24.611 224.01 24.3616 224.194 24.1776C224.378 23.9936 224.627 23.8901 224.886 23.8898H231.201C231.461 23.8901 231.71 23.9936 231.894 24.1776C232.078 24.3616 232.181 24.611 232.181 24.8712V24.9803C232.18 26.0788 231.744 27.1321 230.968 27.9089C230.192 28.6857 229.141 29.1227 228.044 29.1239Z" fill="#CCCCCC"/>
<path d="M185.908 24.8712H193.094V20.9456H185.908V24.8712Z" fill="#CCCCCC"/>
<path d="M189.828 24.8712H192.659V21.818H189.828V24.8712Z" fill="white"/>
<path d="M186.344 24.8712H189.175V21.818H186.344V24.8712Z" fill="white"/>
<path d="M189.501 29.1239C188.404 29.1227 187.353 28.6857 186.577 27.9089C185.801 27.1321 185.365 26.0788 185.364 24.9803V24.8712C185.364 24.611 185.468 24.3616 185.651 24.1776C185.835 23.9936 186.084 23.8901 186.344 23.8898H192.659C192.918 23.8901 193.168 23.9936 193.351 24.1776C193.535 24.3616 193.638 24.611 193.639 24.8712V24.9803C193.637 26.0788 193.201 27.1321 192.425 27.9089C191.65 28.6857 190.598 29.1227 189.501 29.1239Z" fill="#CCCCCC"/>
<path d="M226.026 18.4376C225.966 18.4374 225.906 18.4543 225.855 18.4862C225.803 18.5182 225.761 18.564 225.734 18.6184L224.428 21.2355C224.403 21.2854 224.391 21.3408 224.394 21.3965C224.396 21.4522 224.413 21.5063 224.442 21.5538C224.471 21.6012 224.512 21.6404 224.561 21.6675C224.61 21.6947 224.664 21.7089 224.72 21.7089H231.368C231.423 21.7089 231.478 21.6947 231.527 21.6675C231.575 21.6404 231.616 21.6012 231.645 21.5538C231.675 21.5063 231.691 21.4522 231.694 21.3965C231.696 21.3408 231.685 21.2854 231.66 21.2355L230.353 18.6184C230.326 18.564 230.285 18.5182 230.233 18.4862C230.181 18.4543 230.122 18.4374 230.061 18.4376H226.026Z" fill="#4D5DFA"/>
<path d="M192.825 21.927H186.177C186.085 21.927 185.993 21.9033 185.912 21.858C185.831 21.8128 185.763 21.7475 185.714 21.6684C185.666 21.5894 185.638 21.4991 185.634 21.4063C185.629 21.3134 185.649 21.2211 185.691 21.1379L186.997 18.5209C187.042 18.4301 187.111 18.3538 187.198 18.3005C187.284 18.2472 187.383 18.2192 187.484 18.2195H191.519C191.62 18.2192 191.719 18.2472 191.805 18.3005C191.891 18.3538 191.96 18.4301 192.005 18.5209L193.312 21.1379C193.353 21.2211 193.373 21.3134 193.369 21.4063C193.365 21.4991 193.337 21.5894 193.288 21.6684C193.239 21.7475 193.171 21.8128 193.09 21.858C193.009 21.9033 192.918 21.927 192.825 21.927H192.825Z" fill="#4D5DFA"/>
<path d="M212.257 12.2222H205.071V16.1477H212.257V12.2222Z" fill="#CCCCCC"/>
<path d="M211.821 13.0945H208.99V16.1477H211.821V13.0945Z" fill="white"/>
<path d="M208.337 13.0945H205.506V16.1477H208.337V13.0945Z" fill="white"/>
<path d="M208.664 20.4004C207.567 20.3992 206.515 19.9622 205.74 19.1854C204.964 18.4086 204.528 17.3553 204.526 16.2568V16.1477C204.527 15.8875 204.63 15.6381 204.814 15.4541C204.997 15.2701 205.246 15.1666 205.506 15.1663H211.821C212.081 15.1666 212.33 15.2701 212.514 15.4541C212.697 15.6381 212.801 15.8875 212.801 16.1477V16.2568C212.8 17.3553 212.363 18.4086 211.588 19.1854C210.812 19.9622 209.761 20.3992 208.664 20.4004Z" fill="#CCCCCC"/>
<path d="M211.987 13.2035H205.34C205.247 13.2035 205.156 13.1798 205.075 13.1345C204.994 13.0893 204.926 13.024 204.877 12.9449C204.828 12.8659 204.8 12.7756 204.796 12.6828C204.792 12.5899 204.811 12.4976 204.853 12.4144L206.159 9.7974C206.204 9.70661 206.274 9.63026 206.36 9.57699C206.446 9.52373 206.545 9.49568 206.646 9.49604H210.681C210.782 9.49568 210.881 9.52373 210.967 9.57699C211.053 9.63026 211.123 9.70661 211.168 9.7974L212.474 12.4144C212.516 12.4976 212.535 12.5899 212.531 12.6828C212.527 12.7756 212.499 12.8659 212.45 12.9449C212.402 13.024 212.334 13.0893 212.252 13.1345C212.171 13.1798 212.08 13.2035 211.987 13.2035H211.987Z" fill="#4D5DFA"/>
</g>
<defs>
<clipPath id="clip0_932_12819">
<rect width="309" height="250" fill="white"/>
</clipPath>
</defs>
</svg>
