<svg width="28" height="29" viewBox="0 0 28 29" fill="none" xmlns="http://www.w3.org/2000/svg">
<path d="M3.49967 5.24219H9.33301C9.64243 5.24219 9.93917 5.3651 10.158 5.5839C10.3768 5.80269 10.4997 6.09943 10.4997 6.40885V22.7422C10.4997 23.0516 10.3768 23.3484 10.158 23.5671C9.93917 23.7859 9.64243 23.9089 9.33301 23.9089H3.49967C3.19026 23.9089 2.89351 23.7859 2.67472 23.5671C2.45592 23.3484 2.33301 23.0516 2.33301 22.7422V6.40885C2.33301 6.09943 2.45592 5.80269 2.67472 5.5839C2.89351 5.3651 3.19026 5.24219 3.49967 5.24219V5.24219ZM3.49967 18.0755V20.4089H5.83301V18.0755H3.49967ZM13.9997 8.74219H23.333C23.9518 8.74219 24.5453 8.98802 24.9829 9.4256C25.4205 9.86319 25.6663 10.4567 25.6663 11.0755V18.0755C25.6663 18.6944 25.4205 19.2879 24.9829 19.7254C24.5453 20.163 23.9518 20.4089 23.333 20.4089H13.9997C13.3808 20.4089 12.7873 20.163 12.3498 19.7254C11.9122 19.2879 11.6663 18.6944 11.6663 18.0755V11.0755C11.6663 10.4567 11.9122 9.86319 12.3498 9.4256C12.7873 8.98802 13.3808 8.74219 13.9997 8.74219ZM16.333 21.5755H20.9997C21.3091 21.5755 21.6058 21.6984 21.8246 21.9172C22.0434 22.136 22.1663 22.4328 22.1663 22.7422C22.1663 23.0516 22.0434 23.3484 21.8246 23.5671C21.6058 23.7859 21.3091 23.9089 20.9997 23.9089H16.333C16.0236 23.9089 15.7268 23.7859 15.508 23.5671C15.2893 23.3484 15.1663 23.0516 15.1663 22.7422C15.1663 22.4328 15.2893 22.136 15.508 21.9172C15.7268 21.6984 16.0236 21.5755 16.333 21.5755V21.5755Z" fill="#FF981F"/>
</svg>
