<svg width="25" height="24" viewBox="0 0 25 24" fill="none" xmlns="http://www.w3.org/2000/svg">
<path fill-rule="evenodd" clip-rule="evenodd" d="M9.025 2H15.195C17.905 2 20.095 3.07 20.125 5.79V20.97C20.125 21.14 20.085 21.31 20.005 21.46C19.875 21.7 19.655 21.88 19.385 21.96C19.125 22.04 18.835 22 18.595 21.86L12.115 18.62L5.625 21.86C5.476 21.939 5.305 21.99 5.135 21.99C4.575 21.99 4.125 21.53 4.125 20.97V5.79C4.125 3.07 6.325 2 9.025 2ZM8.345 9.62H15.875C16.305 9.62 16.655 9.269 16.655 8.83C16.655 8.39 16.305 8.04 15.875 8.04H8.345C7.915 8.04 7.565 8.39 7.565 8.83C7.565 9.269 7.915 9.62 8.345 9.62Z" fill="#4D5DFA"/>
</svg>
