<svg width="80" height="81" viewBox="0 0 80 81" fill="none" xmlns="http://www.w3.org/2000/svg">
<rect y="0.666748" width="80" height="80" rx="40" fill="#EDEFFF"/>
<path fill-rule="evenodd" clip-rule="evenodd" d="M26.6667 40.6869C26.6667 33.663 32.2801 27.3335 40.0267 27.3335C47.6001 27.3335 53.3334 33.5428 53.3334 40.6468C53.3334 48.8858 46.6134 54.0002 40.0001 54.0002C37.8134 54.0002 35.3867 53.4126 33.4401 52.2642C32.7601 51.8503 32.1867 51.5431 31.4534 51.7835L28.7601 52.5847C28.0801 52.7984 27.4667 52.2642 27.6667 51.5431L28.5601 48.552C28.7067 48.138 28.6801 47.6974 28.4667 47.3502C27.3201 45.2404 26.6667 42.9302 26.6667 40.6869ZM38.2667 40.6869C38.2667 41.6349 39.0267 42.3961 39.9734 42.4094C40.9201 42.4094 41.6801 41.6349 41.6801 40.7002C41.6801 39.7521 40.9201 38.991 39.9734 38.991C39.0401 38.9776 38.2667 39.7521 38.2667 40.6869ZM44.4134 40.7002C44.4134 41.6349 45.1734 42.4094 46.1201 42.4094C47.0667 42.4094 47.8267 41.6349 47.8267 40.7002C47.8267 39.7521 47.0667 38.991 46.1201 38.991C45.1734 38.991 44.4134 39.7521 44.4134 40.7002ZM33.8267 42.4094C32.8934 42.4094 32.1201 41.6349 32.1201 40.7002C32.1201 39.7521 32.8801 38.991 33.8267 38.991C34.7734 38.991 35.5334 39.7521 35.5334 40.7002C35.5334 41.6349 34.7734 42.3961 33.8267 42.4094Z" fill="url(#paint0_linear_727_25762)"/>
<defs>
<linearGradient id="paint0_linear_727_25762" x1="53.3334" y1="54.0002" x2="21.6025" y2="44.8001" gradientUnits="userSpaceOnUse">
<stop stop-color="#4D5DFA"/>
<stop offset="1" stop-color="#7784FF"/>
</linearGradient>
</defs>
</svg>
