<svg width="15" height="15" viewBox="0 0 15 15" fill="none" xmlns="http://www.w3.org/2000/svg">
<path fill-rule="evenodd" clip-rule="evenodd" d="M7.5 1.875C6.2274 1.875 6.10709 4.09158 5.34945 4.87473C4.5918 5.65789 2.23637 4.76245 1.90912 6.15252C1.58255 7.5433 3.70147 8.01518 3.96273 9.20839C4.22536 10.4016 2.93077 12.0781 4.03698 12.9124C5.14319 13.746 6.33397 11.8592 7.5 11.8592C8.66602 11.8592 9.8568 13.746 10.963 12.9124C12.0692 12.0781 10.7753 10.4016 11.0373 9.20839C11.2992 8.01518 13.4174 7.5433 13.0909 6.15252C12.7643 4.76245 10.4082 5.65789 9.65123 4.87473C8.89359 4.09158 8.77259 1.875 7.5 1.875Z" stroke="#212121" stroke-width="1.5" stroke-linecap="round" stroke-linejoin="round"/>
</svg>
