<svg width="29" height="28" viewBox="0 0 29 28" fill="none" xmlns="http://www.w3.org/2000/svg">
<path d="M24.2676 19.3804C24.6949 19.1852 25.057 18.8714 25.3109 18.4762C25.5649 18.0811 25.6998 17.6213 25.6998 17.1516V15.4534C25.6999 14.682 25.4452 13.9323 24.9754 13.3206C24.5055 12.709 23.8467 12.2697 23.1014 12.071L20.1712 11.2898L18.0124 7.40196C17.7092 6.85618 17.2656 6.40143 16.7275 6.08486C16.1893 5.76829 15.5763 5.60143 14.952 5.60156H10.2186C9.48385 5.60153 8.76772 5.83274 8.17169 6.26242C7.57567 6.6921 7.12999 7.29846 6.89781 7.99556L5.7456 11.4508C5.0361 11.6749 4.41647 12.1193 3.97667 12.7194C3.53687 13.3196 3.29978 14.0443 3.2998 14.7884V17.1516C3.2998 18.1414 3.8878 18.994 4.732 19.3804C4.84412 20.1995 5.24257 20.9524 5.85674 21.5059C6.47092 22.0593 7.26118 22.3774 8.08749 22.4039C8.9138 22.4304 9.72282 22.1636 10.3712 21.6506C11.0196 21.1377 11.4654 20.4118 11.6298 19.6016H17.3698C17.5342 20.4118 17.98 21.1377 18.6284 21.6506C19.2768 22.1636 20.0858 22.4304 20.9121 22.4039C21.7384 22.3774 22.5287 22.0593 23.1429 21.5059C23.757 20.9524 24.1555 20.1995 24.2676 19.3804V19.3804ZM10.2186 7.00156H11.6998V11.2016H7.30381L8.22501 8.43796C8.36438 8.01952 8.63195 7.65557 8.98979 7.39775C9.34763 7.13992 9.77756 7.00131 10.2186 7.00156V7.00156ZM16.7874 8.08236L18.522 11.2016H13.0998V7.00156H14.952C15.3265 7.00169 15.6942 7.10196 16.0169 7.292C16.3396 7.48203 16.6056 7.75492 16.7874 8.08236ZM6.0998 18.9016C6.0998 18.6258 6.15412 18.3527 6.25966 18.0979C6.36519 17.8431 6.51988 17.6116 6.71488 17.4166C6.90988 17.2216 7.14139 17.0669 7.39617 16.9614C7.65095 16.8559 7.92403 16.8016 8.19981 16.8016C8.47558 16.8016 8.74866 16.8559 9.00344 16.9614C9.25822 17.0669 9.48973 17.2216 9.68473 17.4166C9.87973 17.6116 10.0344 17.8431 10.14 18.0979C10.2455 18.3527 10.2998 18.6258 10.2998 18.9016C10.2998 19.4585 10.0786 19.9927 9.68473 20.3865C9.2909 20.7803 8.75676 21.0016 8.19981 21.0016C7.64285 21.0016 7.10871 20.7803 6.71488 20.3865C6.32105 19.9927 6.0998 19.4585 6.0998 18.9016V18.9016ZM18.6998 18.9016C18.6998 18.3446 18.9211 17.8105 19.3149 17.4166C19.7087 17.0228 20.2429 16.8016 20.7998 16.8016C21.3568 16.8016 21.8909 17.0228 22.2847 17.4166C22.6786 17.8105 22.8998 18.3446 22.8998 18.9016C22.8998 19.4585 22.6786 19.9927 22.2847 20.3865C21.8909 20.7803 21.3568 21.0016 20.7998 21.0016C20.2429 21.0016 19.7087 20.7803 19.3149 20.3865C18.9211 19.9927 18.6998 19.4585 18.6998 18.9016Z" fill="#1A96F0"/>
</svg>
